<ttFont>
    <TTGlyph name=".notdef" xMin="50" yMin="0" xMax="450" yMax="696">
      <contour>
        <pt x="50" y="696" on="1"/>
        <pt x="450" y="696" on="1"/>
        <pt x="450" y="0" on="1"/>
        <pt x="50" y="0" on="1"/>
      </contour>
      <contour>
        <pt x="399" y="46" on="1"/>
        <pt x="399" y="650" on="1"/>
        <pt x="101" y="650" on="1"/>
        <pt x="101" y="46" on="1"/>
      </contour>
    </TTGlyph>
    <TTGlyph name="A" xMin="-2" yMin="0" xMax="583" yMax="691">
      <contour>
        <pt x="407" y="163" on="1"/>
        <pt x="170" y="163" on="1"/>
        <pt x="125" y="0" on="1"/>
        <pt x="-2" y="0" on="1"/>
        <pt x="214" y="691" on="1"/>
        <pt x="367" y="691" on="1"/>
        <pt x="583" y="0" on="1"/>
        <pt x="451" y="0" on="1"/>
      </contour>
      <contour>
        <pt x="381" y="258" on="1"/>
        <pt x="288" y="595" on="1"/>
        <pt x="196" y="258" on="1"/>
      </contour>
    </TTGlyph>
    <TTGlyph name="AE" xMin="-17" yMin="0" xMax="783" yMax="691">
      <contour>
        <pt x="783" y="94" on="1"/>
        <pt x="783" y="0" on="1"/>
        <pt x="452" y="0" on="1"/>
        <pt x="418" y="163" on="1"/>
        <pt x="172" y="163" on="1"/>
        <pt x="114" y="0" on="1"/>
        <pt x="-17" y="0" on="1"/>
        <pt x="256" y="691" on="1"/>
        <pt x="744" y="691" on="1"/>
        <pt x="730" y="597" on="1"/>
        <pt x="438" y="597" on="1"/>
        <pt x="485" y="396" on="1"/>
        <pt x="735" y="396" on="1"/>
        <pt x="735" y="303" on="1"/>
        <pt x="506" y="303" on="1"/>
        <pt x="555" y="94" on="1"/>
      </contour>
      <contour>
        <pt x="399" y="258" on="1"/>
        <pt x="328" y="596" on="1"/>
        <pt x="206" y="258" on="1"/>
      </contour>
    </TTGlyph>
    <TTGlyph name="AEacute" xMin="-17" yMin="0" xMax="783" yMax="930">
      <component glyphName="AE" x="0" y="0" flags="0x0"/>
      <component glyphName="acutecomb.case" x="637" y="0" flags="0x0"/>
    </TTGlyph>
    <TTGlyph name="Aacute" xMin="-2" yMin="0" xMax="583" yMax="930">
      <component glyphName="A" x="0" y="0" flags="0x0"/>
      <component glyphName="acutecomb.case" x="449" y="0" flags="0x0"/>
    </TTGlyph>
    <TTGlyph name="Abreve" xMin="-2" yMin="0" xMax="583" yMax="909">
      <component glyphName="A" x="0" y="0" flags="0x0"/>
      <component glyphName="uni0306.case" x="480" y="0" flags="0x0"/>
    </TTGlyph>
    <TTGlyph name="Acircumflex" xMin="-2" yMin="0" xMax="583" yMax="929">
      <component glyphName="A" x="0" y="0" flags="0x0"/>
      <component glyphName="uni0302.case" x="496" y="0" flags="0x0"/>
    </TTGlyph>
    <TTGlyph name="Adieresis" xMin="-2" yMin="0" xMax="583" yMax="907">
      <component glyphName="A" x="0" y="0" flags="0x0"/>
      <component glyphName="uni0308.case" x="498" y="0" flags="0x0"/>
    </TTGlyph>
    <TTGlyph name="Agrave" xMin="-2" yMin="0" xMax="583" yMax="930">
      <component glyphName="A" x="0" y="0" flags="0x0"/>
      <component glyphName="gravecomb.case" x="442" y="0" flags="0x0"/>
    </TTGlyph>
    <TTGlyph name="Alpha" xMin="-2" yMin="0" xMax="583" yMax="691">
      <contour>
        <pt x="407" y="163" on="1"/>
        <pt x="170" y="163" on="1"/>
        <pt x="125" y="0" on="1"/>
        <pt x="-2" y="0" on="1"/>
        <pt x="214" y="691" on="1"/>
        <pt x="367" y="691" on="1"/>
        <pt x="583" y="0" on="1"/>
        <pt x="451" y="0" on="1"/>
      </contour>
      <contour>
        <pt x="381" y="258" on="1"/>
        <pt x="288" y="595" on="1"/>
        <pt x="196" y="258" on="1"/>
      </contour>
    </TTGlyph>
    <TTGlyph name="Alphatonos" xMin="38" yMin="0" xMax="650" yMax="714">
      <component glyphName="tonos.case" x="0" y="0" flags="0x0"/>
      <component glyphName="A" x="67" y="0" flags="0x0"/>
    </TTGlyph>
    <TTGlyph name="Amacron" xMin="-2" yMin="0" xMax="583" yMax="874">
      <component glyphName="A" x="0" y="0" flags="0x0"/>
      <component glyphName="uni0304.case" x="464" y="0" flags="0x0"/>
    </TTGlyph>
    <TTGlyph name="Aogonek" xMin="-2" yMin="-238" xMax="583" yMax="691">
      <contour>
        <pt x="455" y="-28" on="0"/>
        <pt x="403" y="-81" on="0"/>
        <pt x="403" y="-109" on="1"/>
        <pt x="403" y="-156" on="0"/>
        <pt x="458" y="-156" on="1"/>
        <pt x="485" y="-156" on="0"/>
        <pt x="519" y="-149" on="1"/>
        <pt x="509" y="-231" on="1"/>
        <pt x="472" y="-238" on="0"/>
        <pt x="443" y="-238" on="1"/>
        <pt x="383" y="-238" on="0"/>
        <pt x="309" y="-178" on="0"/>
        <pt x="309" y="-130" on="1"/>
        <pt x="309" y="-80" on="0"/>
        <pt x="378" y="-7" on="0"/>
        <pt x="446" y="20" on="1"/>
        <pt x="407" y="163" on="1"/>
        <pt x="170" y="163" on="1"/>
        <pt x="125" y="0" on="1"/>
        <pt x="-2" y="0" on="1"/>
        <pt x="214" y="691" on="1"/>
        <pt x="367" y="691" on="1"/>
        <pt x="583" y="0" on="1"/>
        <pt x="524" y="0" on="1"/>
      </contour>
      <contour>
        <pt x="381" y="258" on="1"/>
        <pt x="288" y="595" on="1"/>
        <pt x="196" y="258" on="1"/>
      </contour>
    </TTGlyph>
    <TTGlyph name="Aring" xMin="-2" yMin="0" xMax="583" yMax="975">
      <component glyphName="A" x="0" y="0" flags="0x0"/>
      <component glyphName="uni030A.case" x="445" y="0" flags="0x0"/>
    </TTGlyph>
    <TTGlyph name="Aringacute" xMin="-2" yMin="0" xMax="583" yMax="1141">
      <contour>
        <pt x="194" y="964" on="1"/>
        <pt x="163" y="1027" on="1"/>
        <pt x="371" y="1141" on="1"/>
        <pt x="420" y="1047" on="1"/>
      </contour>
      <contour>
        <pt x="165" y="892" on="0"/>
        <pt x="235" y="959" on="0"/>
        <pt x="290" y="959" on="1"/>
        <pt x="345" y="959" on="0"/>
        <pt x="414" y="892" on="0"/>
        <pt x="414" y="843" on="1"/>
        <pt x="414" y="794" on="0"/>
        <pt x="344" y="726" on="0"/>
        <pt x="290" y="726" on="1"/>
        <pt x="235" y="726" on="0"/>
        <pt x="165" y="794" on="0"/>
        <pt x="165" y="843" on="1"/>
      </contour>
      <contour>
        <pt x="339" y="868" on="0"/>
        <pt x="313" y="896" on="0"/>
        <pt x="290" y="896" on="1"/>
        <pt x="267" y="896" on="0"/>
        <pt x="240" y="868" on="0"/>
        <pt x="240" y="843" on="1"/>
        <pt x="240" y="817" on="0"/>
        <pt x="266" y="789" on="0"/>
        <pt x="290" y="789" on="1"/>
        <pt x="312" y="789" on="0"/>
        <pt x="339" y="817" on="0"/>
        <pt x="339" y="843" on="1"/>
      </contour>
      <contour>
        <pt x="407" y="163" on="1"/>
        <pt x="170" y="163" on="1"/>
        <pt x="125" y="0" on="1"/>
        <pt x="-2" y="0" on="1"/>
        <pt x="214" y="691" on="1"/>
        <pt x="367" y="691" on="1"/>
        <pt x="583" y="0" on="1"/>
        <pt x="451" y="0" on="1"/>
      </contour>
      <contour>
        <pt x="381" y="258" on="1"/>
        <pt x="288" y="595" on="1"/>
        <pt x="196" y="258" on="1"/>
      </contour>
    </TTGlyph>
    <TTGlyph name="Atilde" xMin="-2" yMin="0" xMax="583" yMax="908">
      <component glyphName="A" x="0" y="0" flags="0x0"/>
      <component glyphName="tildecomb.case" x="495" y="0" flags="0x0"/>
    </TTGlyph>
    <TTGlyph name="B" xMin="85" yMin="0" xMax="575" yMax="691">
      <contour>
        <pt x="488" y="353" on="0"/>
        <pt x="575" y="278" on="0"/>
        <pt x="575" y="199" on="1"/>
        <pt x="575" y="92" on="0"/>
        <pt x="424" y="0" on="0"/>
        <pt x="289" y="0" on="1"/>
        <pt x="85" y="0" on="1"/>
        <pt x="85" y="691" on="1"/>
        <pt x="262" y="691" on="1"/>
        <pt x="545" y="691" on="0"/>
        <pt x="545" y="515" on="1"/>
        <pt x="545" y="455" on="0"/>
        <pt x="471" y="377" on="0"/>
        <pt x="417" y="365" on="1"/>
      </contour>
      <contour>
        <pt x="209" y="598" on="1"/>
        <pt x="209" y="405" on="1"/>
        <pt x="295" y="405" on="1"/>
        <pt x="352" y="405" on="0"/>
        <pt x="418" y="456" on="0"/>
        <pt x="418" y="505" on="1"/>
        <pt x="418" y="557" on="0"/>
        <pt x="348" y="598" on="0"/>
        <pt x="275" y="598" on="1"/>
      </contour>
      <contour>
        <pt x="366" y="94" on="0"/>
        <pt x="445" y="139" on="0"/>
        <pt x="445" y="202" on="1"/>
        <pt x="445" y="263" on="0"/>
        <pt x="369" y="317" on="0"/>
        <pt x="305" y="317" on="1"/>
        <pt x="209" y="317" on="1"/>
        <pt x="209" y="94" on="1"/>
        <pt x="290" y="94" on="1"/>
      </contour>
    </TTGlyph>
    <TTGlyph name="Beta" xMin="85" yMin="0" xMax="575" yMax="691">
      <component glyphName="B" x="0" y="0" flags="0x0"/>
    </TTGlyph>
    <TTGlyph name="C" xMin="46" yMin="-14" xMax="552" yMax="705">
      <contour>
        <pt x="407" y="705" on="0"/>
        <pt x="499" y="670" on="0"/>
        <pt x="544" y="633" on="1"/>
        <pt x="479" y="558" on="1"/>
        <pt x="420" y="608" on="0"/>
        <pt x="350" y="608" on="1"/>
        <pt x="271" y="608" on="0"/>
        <pt x="177" y="482" on="0"/>
        <pt x="177" y="346" on="1"/>
        <pt x="177" y="213" on="0"/>
        <pt x="271" y="86" on="0"/>
        <pt x="351" y="86" on="1"/>
        <pt x="392" y="86" on="0"/>
        <pt x="455" y="116" on="0"/>
        <pt x="493" y="144" on="1"/>
        <pt x="552" y="68" on="1"/>
        <pt x="518" y="33" on="0"/>
        <pt x="412" y="-14" on="0"/>
        <pt x="346" y="-14" on="1"/>
        <pt x="257" y="-14" on="0"/>
        <pt x="121" y="69" on="0"/>
        <pt x="46" y="231" on="0"/>
        <pt x="46" y="346" on="1"/>
        <pt x="46" y="459" on="0"/>
        <pt x="124" y="621" on="0"/>
        <pt x="259" y="705" on="0"/>
        <pt x="343" y="705" on="1"/>
      </contour>
    </TTGlyph>
    <TTGlyph name="Cacute" xMin="46" yMin="-14" xMax="552" yMax="930">
      <component glyphName="C" x="0" y="0" flags="0x0"/>
      <component glyphName="acutecomb.case" x="508" y="0" flags="0x0"/>
    </TTGlyph>
    <TTGlyph name="Cacute.loclPLK" xMin="46" yMin="-14" xMax="552" yMax="942">
      <component glyphName="C" x="0" y="0" flags="0x0"/>
      <component glyphName="acute.case.loclPLK" x="192" y="0" flags="0x0"/>
    </TTGlyph>
    <TTGlyph name="Ccaron" xMin="46" yMin="-14" xMax="552" yMax="924">
      <component glyphName="C" x="0" y="0" flags="0x0"/>
      <component glyphName="uni030C.case" x="556" y="0" flags="0x0"/>
    </TTGlyph>
    <TTGlyph name="Ccedilla" xMin="46" yMin="-250" xMax="552" yMax="705">
      <contour>
        <pt x="522" y="37" on="0"/>
        <pt x="434" y="-6" on="0"/>
        <pt x="379" y="-12" on="1"/>
        <pt x="379" y="-53" on="1"/>
        <pt x="428" y="-57" on="0"/>
        <pt x="477" y="-107" on="0"/>
        <pt x="477" y="-144" on="1"/>
        <pt x="477" y="-193" on="0"/>
        <pt x="402" y="-250" on="0"/>
        <pt x="342" y="-250" on="1"/>
        <pt x="311" y="-250" on="0"/>
        <pt x="259" y="-235" on="0"/>
        <pt x="242" y="-223" on="1"/>
        <pt x="272" y="-162" on="1"/>
        <pt x="301" y="-179" on="0"/>
        <pt x="335" y="-179" on="1"/>
        <pt x="357" y="-179" on="0"/>
        <pt x="384" y="-162" on="0"/>
        <pt x="384" y="-143" on="1"/>
        <pt x="384" y="-123" on="0"/>
        <pt x="341" y="-105" on="0"/>
        <pt x="293" y="-105" on="1"/>
        <pt x="305" y="-12" on="1"/>
        <pt x="186" y="3" on="0"/>
        <pt x="46" y="188" on="0"/>
        <pt x="46" y="346" on="1"/>
        <pt x="46" y="459" on="0"/>
        <pt x="124" y="621" on="0"/>
        <pt x="259" y="705" on="0"/>
        <pt x="343" y="705" on="1"/>
        <pt x="407" y="705" on="0"/>
        <pt x="499" y="670" on="0"/>
        <pt x="544" y="633" on="1"/>
        <pt x="479" y="558" on="1"/>
        <pt x="420" y="608" on="0"/>
        <pt x="350" y="608" on="1"/>
        <pt x="271" y="608" on="0"/>
        <pt x="177" y="482" on="0"/>
        <pt x="177" y="346" on="1"/>
        <pt x="177" y="213" on="0"/>
        <pt x="271" y="86" on="0"/>
        <pt x="351" y="86" on="1"/>
        <pt x="392" y="86" on="0"/>
        <pt x="455" y="116" on="0"/>
        <pt x="493" y="144" on="1"/>
        <pt x="552" y="68" on="1"/>
      </contour>
    </TTGlyph>
    <TTGlyph name="Ccircumflex" xMin="46" yMin="-14" xMax="552" yMax="929">
      <component glyphName="C" x="0" y="0" flags="0x0"/>
      <component glyphName="uni0302.case" x="555" y="0" flags="0x0"/>
    </TTGlyph>
    <TTGlyph name="Cdotaccent" xMin="46" yMin="-14" xMax="552" yMax="919">
      <component glyphName="C" x="0" y="0" flags="0x0"/>
      <component glyphName="uni0307.case" x="456" y="0" flags="0x0"/>
    </TTGlyph>
    <TTGlyph name="Chi" xMin="1" yMin="0" xMax="556" yMax="691">
      <component glyphName="X" x="0" y="0" flags="0x0"/>
    </TTGlyph>
    <TTGlyph name="D" xMin="85" yMin="0" xMax="601" yMax="691">
      <contour>
        <pt x="409" y="691" on="0"/>
        <pt x="601" y="545" on="0"/>
        <pt x="601" y="349" on="1"/>
        <pt x="601" y="157" on="0"/>
        <pt x="411" y="0" on="0"/>
        <pt x="268" y="0" on="1"/>
        <pt x="85" y="0" on="1"/>
        <pt x="85" y="691" on="1"/>
        <pt x="250" y="691" on="1"/>
      </contour>
      <contour>
        <pt x="209" y="597" on="1"/>
        <pt x="209" y="93" on="1"/>
        <pt x="277" y="93" on="1"/>
        <pt x="366" y="93" on="0"/>
        <pt x="471" y="205" on="0"/>
        <pt x="471" y="349" on="1"/>
        <pt x="471" y="450" on="0"/>
        <pt x="418" y="559" on="0"/>
        <pt x="332" y="597" on="0"/>
        <pt x="272" y="597" on="1"/>
      </contour>
    </TTGlyph>
    <TTGlyph name="Dcaron" xMin="85" yMin="0" xMax="601" yMax="924">
      <component glyphName="D" x="0" y="0" flags="0x0"/>
      <component glyphName="uni030C.case" x="506" y="0" flags="0x0"/>
    </TTGlyph>
    <TTGlyph name="Dcroat" xMin="17" yMin="0" xMax="614" yMax="691">
      <component glyphName="Eth" x="0" y="0" flags="0x0"/>
    </TTGlyph>
    <TTGlyph name="Delta" xMin="-2" yMin="0" xMax="592" yMax="691">
      <contour>
        <pt x="592" y="0" on="1"/>
        <pt x="-2" y="0" on="1"/>
        <pt x="219" y="691" on="1"/>
        <pt x="372" y="691" on="1"/>
      </contour>
      <contour>
        <pt x="150" y="96" on="1"/>
        <pt x="436" y="96" on="1"/>
        <pt x="293" y="593" on="1"/>
      </contour>
    </TTGlyph>
    <TTGlyph name="E" xMin="85" yMin="0" xMax="485" yMax="691">
      <contour>
        <pt x="466" y="597" on="1"/>
        <pt x="209" y="597" on="1"/>
        <pt x="209" y="397" on="1"/>
        <pt x="433" y="397" on="1"/>
        <pt x="433" y="305" on="1"/>
        <pt x="209" y="305" on="1"/>
        <pt x="209" y="94" on="1"/>
        <pt x="485" y="94" on="1"/>
        <pt x="485" y="0" on="1"/>
        <pt x="85" y="0" on="1"/>
        <pt x="85" y="691" on="1"/>
        <pt x="480" y="691" on="1"/>
      </contour>
    </TTGlyph>
    <TTGlyph name="Eacute" xMin="85" yMin="0" xMax="485" yMax="930">
      <component glyphName="E" x="0" y="0" flags="0x0"/>
      <component glyphName="acutecomb.case" x="444" y="0" flags="0x0"/>
    </TTGlyph>
    <TTGlyph name="Ebreve" xMin="85" yMin="0" xMax="485" yMax="909">
      <component glyphName="E" x="0" y="0" flags="0x0"/>
      <component glyphName="uni0306.case" x="475" y="0" flags="0x0"/>
    </TTGlyph>
    <TTGlyph name="Ecaron" xMin="85" yMin="0" xMax="485" yMax="924">
      <component glyphName="E" x="0" y="0" flags="0x0"/>
      <component glyphName="uni030C.case" x="491" y="0" flags="0x0"/>
    </TTGlyph>
    <TTGlyph name="Ecircumflex" xMin="85" yMin="0" xMax="485" yMax="929">
      <component glyphName="E" x="0" y="0" flags="0x0"/>
      <component glyphName="uni0302.case" x="490" y="0" flags="0x0"/>
    </TTGlyph>
    <TTGlyph name="Edieresis" xMin="85" yMin="0" xMax="485" yMax="907">
      <component glyphName="E" x="0" y="0" flags="0x0"/>
      <component glyphName="uni0308.case" x="492" y="0" flags="0x0"/>
    </TTGlyph>
    <TTGlyph name="Edotaccent" xMin="85" yMin="0" xMax="485" yMax="919">
      <component glyphName="E" x="0" y="0" flags="0x0"/>
      <component glyphName="uni0307.case" x="391" y="0" flags="0x0"/>
    </TTGlyph>
    <TTGlyph name="Egrave" xMin="85" yMin="0" xMax="485" yMax="930">
      <component glyphName="E" x="0" y="0" flags="0x0"/>
      <component glyphName="gravecomb.case" x="436" y="0" flags="0x0"/>
    </TTGlyph>
    <TTGlyph name="Emacron" xMin="85" yMin="0" xMax="485" yMax="874">
      <component glyphName="E" x="0" y="0" flags="0x0"/>
      <component glyphName="uni0304.case" x="458" y="0" flags="0x0"/>
    </TTGlyph>
    <TTGlyph name="Eng" xMin="85" yMin="-217" xMax="590" yMax="691">
      <contour>
        <pt x="590" y="-130" on="0"/>
        <pt x="498" y="-217" on="0"/>
        <pt x="417" y="-217" on="1"/>
        <pt x="344" y="-217" on="0"/>
        <pt x="291" y="-177" on="1"/>
        <pt x="335" y="-100" on="1"/>
        <pt x="354" y="-112" on="0"/>
        <pt x="385" y="-122" on="0"/>
        <pt x="407" y="-122" on="1"/>
        <pt x="465" y="-122" on="0"/>
        <pt x="465" y="-54" on="1"/>
        <pt x="465" y="0" on="1"/>
        <pt x="428" y="0" on="1"/>
        <pt x="182" y="565" on="1"/>
        <pt x="184" y="551" on="0"/>
        <pt x="184" y="541" on="1"/>
        <pt x="199" y="417" on="0"/>
        <pt x="199" y="290" on="1"/>
        <pt x="199" y="0" on="1"/>
        <pt x="85" y="0" on="1"/>
        <pt x="85" y="691" on="1"/>
        <pt x="243" y="691" on="1"/>
        <pt x="493" y="125" on="1"/>
        <pt x="487" y="162" on="0"/>
        <pt x="476" y="293" on="0"/>
        <pt x="476" y="355" on="1"/>
        <pt x="476" y="691" on="1"/>
        <pt x="590" y="691" on="1"/>
        <pt x="590" y="-46" on="1"/>
      </contour>
    </TTGlyph>
    <TTGlyph name="Eng.ss01" xMin="85" yMin="-217" xMax="586" yMax="705">
      <contour>
        <pt x="586" y="-130" on="0"/>
        <pt x="494" y="-217" on="0"/>
        <pt x="414" y="-217" on="1"/>
        <pt x="341" y="-217" on="0"/>
        <pt x="288" y="-177" on="1"/>
        <pt x="331" y="-100" on="1"/>
        <pt x="350" y="-112" on="0"/>
        <pt x="381" y="-122" on="0"/>
        <pt x="403" y="-122" on="1"/>
        <pt x="462" y="-122" on="0"/>
        <pt x="462" y="-54" on="1"/>
        <pt x="462" y="492" on="1"/>
        <pt x="462" y="551" on="0"/>
        <pt x="417" y="608" on="0"/>
        <pt x="367" y="608" on="1"/>
        <pt x="320" y="608" on="0"/>
        <pt x="251" y="568" on="0"/>
        <pt x="209" y="526" on="1"/>
        <pt x="209" y="0" on="1"/>
        <pt x="85" y="0" on="1"/>
        <pt x="85" y="691" on="1"/>
        <pt x="193" y="691" on="1"/>
        <pt x="203" y="615" on="1"/>
        <pt x="247" y="660" on="0"/>
        <pt x="342" y="705" on="0"/>
        <pt x="403" y="705" on="1"/>
        <pt x="494" y="705" on="0"/>
        <pt x="586" y="600" on="0"/>
        <pt x="586" y="515" on="1"/>
        <pt x="586" y="-46" on="1"/>
      </contour>
    </TTGlyph>
    <TTGlyph name="Eogonek" xMin="85" yMin="-238" xMax="485" yMax="691">
      <contour>
        <pt x="485" y="94" on="1"/>
        <pt x="485" y="0" on="1"/>
        <pt x="445" y="0" on="1"/>
        <pt x="376" y="-28" on="0"/>
        <pt x="324" y="-81" on="0"/>
        <pt x="324" y="-109" on="1"/>
        <pt x="324" y="-156" on="0"/>
        <pt x="379" y="-156" on="1"/>
        <pt x="406" y="-156" on="0"/>
        <pt x="440" y="-149" on="1"/>
        <pt x="430" y="-231" on="1"/>
        <pt x="393" y="-238" on="0"/>
        <pt x="364" y="-238" on="1"/>
        <pt x="304" y="-238" on="0"/>
        <pt x="230" y="-178" on="0"/>
        <pt x="230" y="-130" on="1"/>
        <pt x="230" y="-49" on="0"/>
        <pt x="323" y="0" on="1"/>
        <pt x="85" y="0" on="1"/>
        <pt x="85" y="691" on="1"/>
        <pt x="480" y="691" on="1"/>
        <pt x="466" y="597" on="1"/>
        <pt x="209" y="597" on="1"/>
        <pt x="209" y="397" on="1"/>
        <pt x="433" y="397" on="1"/>
        <pt x="433" y="305" on="1"/>
        <pt x="209" y="305" on="1"/>
        <pt x="209" y="94" on="1"/>
      </contour>
    </TTGlyph>
    <TTGlyph name="Epsilon" xMin="85" yMin="0" xMax="485" yMax="691">
      <contour>
        <pt x="466" y="597" on="1"/>
        <pt x="209" y="597" on="1"/>
        <pt x="209" y="397" on="1"/>
        <pt x="433" y="397" on="1"/>
        <pt x="433" y="305" on="1"/>
        <pt x="209" y="305" on="1"/>
        <pt x="209" y="94" on="1"/>
        <pt x="485" y="94" on="1"/>
        <pt x="485" y="0" on="1"/>
        <pt x="85" y="0" on="1"/>
        <pt x="85" y="691" on="1"/>
        <pt x="480" y="691" on="1"/>
      </contour>
    </TTGlyph>
    <TTGlyph name="Epsilontonos" xMin="38" yMin="0" xMax="628" yMax="714">
      <component glyphName="tonos.case" x="0" y="0" flags="0x0"/>
      <component glyphName="E" x="143" y="0" flags="0x0"/>
    </TTGlyph>
    <TTGlyph name="Eta" xMin="85" yMin="0" xMax="589" yMax="691">
      <contour>
        <pt x="465" y="312" on="1"/>
        <pt x="209" y="312" on="1"/>
        <pt x="209" y="0" on="1"/>
        <pt x="85" y="0" on="1"/>
        <pt x="85" y="691" on="1"/>
        <pt x="209" y="691" on="1"/>
        <pt x="209" y="411" on="1"/>
        <pt x="465" y="411" on="1"/>
        <pt x="465" y="691" on="1"/>
        <pt x="589" y="691" on="1"/>
        <pt x="589" y="0" on="1"/>
        <pt x="465" y="0" on="1"/>
      </contour>
    </TTGlyph>
    <TTGlyph name="Etatonos" xMin="38" yMin="0" xMax="732" yMax="714">
      <component glyphName="tonos.case" x="0" y="0" flags="0x0"/>
      <component glyphName="H" x="143" y="0" flags="0x0"/>
    </TTGlyph>
    <TTGlyph name="Eth" xMin="17" yMin="0" xMax="614" yMax="691">
      <contour>
        <pt x="422" y="691" on="0"/>
        <pt x="614" y="545" on="0"/>
        <pt x="614" y="349" on="1"/>
        <pt x="614" y="157" on="0"/>
        <pt x="424" y="0" on="0"/>
        <pt x="281" y="0" on="1"/>
        <pt x="98" y="0" on="1"/>
        <pt x="98" y="312" on="1"/>
        <pt x="17" y="312" on="1"/>
        <pt x="17" y="394" on="1"/>
        <pt x="98" y="394" on="1"/>
        <pt x="98" y="691" on="1"/>
        <pt x="263" y="691" on="1"/>
      </contour>
      <contour>
        <pt x="379" y="93" on="0"/>
        <pt x="484" y="205" on="0"/>
        <pt x="484" y="349" on="1"/>
        <pt x="484" y="450" on="0"/>
        <pt x="431" y="559" on="0"/>
        <pt x="345" y="597" on="0"/>
        <pt x="285" y="597" on="1"/>
        <pt x="222" y="597" on="1"/>
        <pt x="222" y="394" on="1"/>
        <pt x="370" y="394" on="1"/>
        <pt x="370" y="312" on="1"/>
        <pt x="222" y="312" on="1"/>
        <pt x="222" y="93" on="1"/>
        <pt x="290" y="93" on="1"/>
      </contour>
    </TTGlyph>
    <TTGlyph name="Euro" xMin="16" yMin="-14" xMax="557" yMax="705">
      <contour>
        <pt x="240" y="152" on="0"/>
        <pt x="314" y="79" on="0"/>
        <pt x="383" y="79" on="1"/>
        <pt x="422" y="79" on="0"/>
        <pt x="488" y="101" on="0"/>
        <pt x="524" y="121" on="1"/>
        <pt x="524" y="24" on="1"/>
        <pt x="484" y="5" on="0"/>
        <pt x="411" y="-14" on="0"/>
        <pt x="367" y="-14" on="1"/>
        <pt x="259" y="-14" on="0"/>
        <pt x="124" y="113" on="0"/>
        <pt x="103" y="236" on="1"/>
        <pt x="16" y="236" on="1"/>
        <pt x="34" y="306" on="1"/>
        <pt x="100" y="306" on="1"/>
        <pt x="100" y="388" on="1"/>
        <pt x="16" y="388" on="1"/>
        <pt x="34" y="459" on="1"/>
        <pt x="104" y="459" on="1"/>
        <pt x="130" y="577" on="0"/>
        <pt x="272" y="705" on="0"/>
        <pt x="371" y="705" on="1"/>
        <pt x="425" y="705" on="0"/>
        <pt x="516" y="676" on="0"/>
        <pt x="557" y="648" on="1"/>
        <pt x="515" y="571" on="1"/>
        <pt x="479" y="593" on="0"/>
        <pt x="415" y="613" on="0"/>
        <pt x="377" y="613" on="1"/>
        <pt x="321" y="613" on="0"/>
        <pt x="247" y="539" on="0"/>
        <pt x="229" y="459" on="1"/>
        <pt x="480" y="459" on="1"/>
        <pt x="462" y="388" on="1"/>
        <pt x="224" y="388" on="1"/>
        <pt x="224" y="306" on="1"/>
        <pt x="445" y="306" on="1"/>
        <pt x="428" y="236" on="1"/>
        <pt x="227" y="236" on="1"/>
      </contour>
    </TTGlyph>
    <TTGlyph name="Euro.lf" xMin="18" yMin="-14" xMax="564" yMax="683">
      <contour>
        <pt x="243" y="149" on="0"/>
        <pt x="321" y="79" on="0"/>
        <pt x="389" y="79" on="1"/>
        <pt x="428" y="79" on="0"/>
        <pt x="496" y="101" on="0"/>
        <pt x="531" y="121" on="1"/>
        <pt x="531" y="24" on="1"/>
        <pt x="491" y="5" on="0"/>
        <pt x="418" y="-14" on="0"/>
        <pt x="374" y="-14" on="1"/>
        <pt x="266" y="-14" on="0"/>
        <pt x="127" y="110" on="0"/>
        <pt x="105" y="226" on="1"/>
        <pt x="18" y="226" on="1"/>
        <pt x="36" y="296" on="1"/>
        <pt x="102" y="296" on="1"/>
        <pt x="102" y="378" on="1"/>
        <pt x="18" y="378" on="1"/>
        <pt x="36" y="449" on="1"/>
        <pt x="107" y="449" on="1"/>
        <pt x="133" y="560" on="0"/>
        <pt x="279" y="683" on="0"/>
        <pt x="379" y="683" on="1"/>
        <pt x="481" y="683" on="0"/>
        <pt x="564" y="627" on="1"/>
        <pt x="519" y="550" on="1"/>
        <pt x="485" y="571" on="0"/>
        <pt x="422" y="591" on="0"/>
        <pt x="383" y="591" on="1"/>
        <pt x="268" y="591" on="0"/>
        <pt x="232" y="449" on="1"/>
        <pt x="482" y="449" on="1"/>
        <pt x="464" y="378" on="1"/>
        <pt x="226" y="378" on="1"/>
        <pt x="226" y="296" on="1"/>
        <pt x="447" y="296" on="1"/>
        <pt x="430" y="226" on="1"/>
        <pt x="230" y="226" on="1"/>
      </contour>
    </TTGlyph>
    <TTGlyph name="Euro.osf" xMin="18" yMin="-14" xMax="564" yMax="683">
      <component glyphName="Euro.lf" x="0" y="0" flags="0x0"/>
    </TTGlyph>
    <TTGlyph name="Euro.tosf" xMin="35" yMin="-14" xMax="569" yMax="683">
      <contour>
        <pt x="259" y="149" on="0"/>
        <pt x="333" y="79" on="0"/>
        <pt x="399" y="79" on="1"/>
        <pt x="436" y="79" on="0"/>
        <pt x="500" y="101" on="0"/>
        <pt x="535" y="121" on="1"/>
        <pt x="535" y="24" on="1"/>
        <pt x="495" y="5" on="0"/>
        <pt x="425" y="-14" on="0"/>
        <pt x="384" y="-14" on="1"/>
        <pt x="277" y="-14" on="0"/>
        <pt x="143" y="110" on="0"/>
        <pt x="122" y="226" on="1"/>
        <pt x="35" y="226" on="1"/>
        <pt x="53" y="296" on="1"/>
        <pt x="119" y="296" on="1"/>
        <pt x="119" y="378" on="1"/>
        <pt x="35" y="378" on="1"/>
        <pt x="53" y="449" on="1"/>
        <pt x="123" y="449" on="1"/>
        <pt x="149" y="560" on="0"/>
        <pt x="291" y="683" on="0"/>
        <pt x="389" y="683" on="1"/>
        <pt x="440" y="683" on="0"/>
        <pt x="527" y="655" on="0"/>
        <pt x="569" y="627" on="1"/>
        <pt x="524" y="550" on="1"/>
        <pt x="489" y="572" on="0"/>
        <pt x="430" y="591" on="0"/>
        <pt x="393" y="591" on="1"/>
        <pt x="340" y="591" on="0"/>
        <pt x="266" y="521" on="0"/>
        <pt x="249" y="449" on="1"/>
        <pt x="488" y="449" on="1"/>
        <pt x="470" y="378" on="1"/>
        <pt x="242" y="378" on="1"/>
        <pt x="242" y="296" on="1"/>
        <pt x="453" y="296" on="1"/>
        <pt x="436" y="226" on="1"/>
        <pt x="246" y="226" on="1"/>
      </contour>
    </TTGlyph>
    <TTGlyph name="F" xMin="85" yMin="0" xMax="471" yMax="691">
      <contour>
        <pt x="457" y="597" on="1"/>
        <pt x="209" y="597" on="1"/>
        <pt x="209" y="384" on="1"/>
        <pt x="425" y="384" on="1"/>
        <pt x="425" y="291" on="1"/>
        <pt x="209" y="291" on="1"/>
        <pt x="209" y="0" on="1"/>
        <pt x="85" y="0" on="1"/>
        <pt x="85" y="691" on="1"/>
        <pt x="471" y="691" on="1"/>
      </contour>
    </TTGlyph>
    <TTGlyph name="G" xMin="46" yMin="-14" xMax="582" yMax="705">
      <contour>
        <pt x="426" y="705" on="0"/>
        <pt x="530" y="665" on="0"/>
        <pt x="576" y="625" on="1"/>
        <pt x="507" y="554" on="1"/>
        <pt x="471" y="583" on="0"/>
        <pt x="405" y="610" on="0"/>
        <pt x="362" y="610" on="1"/>
        <pt x="281" y="610" on="0"/>
        <pt x="176" y="480" on="0"/>
        <pt x="176" y="346" on="1"/>
        <pt x="176" y="206" on="0"/>
        <pt x="260" y="82" on="0"/>
        <pt x="345" y="82" on="1"/>
        <pt x="412" y="82" on="0"/>
        <pt x="460" y="110" on="1"/>
        <pt x="460" y="296" on="1"/>
        <pt x="352" y="296" on="1"/>
        <pt x="339" y="389" on="1"/>
        <pt x="582" y="389" on="1"/>
        <pt x="582" y="52" on="1"/>
        <pt x="476" y="-14" on="0"/>
        <pt x="342" y="-14" on="1"/>
        <pt x="200" y="-14" on="0"/>
        <pt x="46" y="169" on="0"/>
        <pt x="46" y="346" on="1"/>
        <pt x="46" y="459" on="0"/>
        <pt x="130" y="621" on="0"/>
        <pt x="272" y="705" on="0"/>
        <pt x="357" y="705" on="1"/>
      </contour>
    </TTGlyph>
    <TTGlyph name="Gamma" xMin="85" yMin="0" xMax="503" yMax="691">
      <component glyphName="uni0413" x="0" y="0" flags="0x0"/>
    </TTGlyph>
    <TTGlyph name="Gbreve" xMin="46" yMin="-14" xMax="582" yMax="909">
      <component glyphName="G" x="0" y="0" flags="0x0"/>
      <component glyphName="uni0306.case" x="543" y="0" flags="0x0"/>
    </TTGlyph>
    <TTGlyph name="Gcaron" xMin="46" yMin="-14" xMax="582" yMax="924">
      <component glyphName="G" x="0" y="0" flags="0x0"/>
      <component glyphName="uni030C.case" x="560" y="0" flags="0x0"/>
    </TTGlyph>
    <TTGlyph name="Gcircumflex" xMin="46" yMin="-14" xMax="582" yMax="929">
      <component glyphName="G" x="0" y="0" flags="0x0"/>
      <component glyphName="uni0302.case" x="559" y="0" flags="0x0"/>
    </TTGlyph>
    <TTGlyph name="Gcommaaccent" xMin="46" yMin="-308" xMax="582" yMax="705">
      <component glyphName="G" x="0" y="0" flags="0x0"/>
      <component glyphName="uni0326.case" x="443" y="0" flags="0x0"/>
    </TTGlyph>
    <TTGlyph name="Gdotaccent" xMin="46" yMin="-14" xMax="582" yMax="919">
      <component glyphName="G" x="0" y="0" flags="0x0"/>
      <component glyphName="uni0307.case" x="460" y="0" flags="0x0"/>
    </TTGlyph>
    <TTGlyph name="H" xMin="85" yMin="0" xMax="589" yMax="691">
      <contour>
        <pt x="465" y="312" on="1"/>
        <pt x="209" y="312" on="1"/>
        <pt x="209" y="0" on="1"/>
        <pt x="85" y="0" on="1"/>
        <pt x="85" y="691" on="1"/>
        <pt x="209" y="691" on="1"/>
        <pt x="209" y="411" on="1"/>
        <pt x="465" y="411" on="1"/>
        <pt x="465" y="691" on="1"/>
        <pt x="589" y="691" on="1"/>
        <pt x="589" y="0" on="1"/>
        <pt x="465" y="0" on="1"/>
      </contour>
    </TTGlyph>
    <TTGlyph name="Hbar" xMin="26" yMin="0" xMax="658" yMax="691">
      <contour>
        <pt x="658" y="505" on="1"/>
        <pt x="594" y="505" on="1"/>
        <pt x="594" y="0" on="1"/>
        <pt x="469" y="0" on="1"/>
        <pt x="469" y="312" on="1"/>
        <pt x="214" y="312" on="1"/>
        <pt x="214" y="0" on="1"/>
        <pt x="90" y="0" on="1"/>
        <pt x="90" y="505" on="1"/>
        <pt x="26" y="505" on="1"/>
        <pt x="26" y="583" on="1"/>
        <pt x="90" y="583" on="1"/>
        <pt x="90" y="691" on="1"/>
        <pt x="214" y="691" on="1"/>
        <pt x="214" y="583" on="1"/>
        <pt x="469" y="583" on="1"/>
        <pt x="469" y="691" on="1"/>
        <pt x="594" y="691" on="1"/>
        <pt x="594" y="583" on="1"/>
        <pt x="658" y="583" on="1"/>
      </contour>
      <contour>
        <pt x="469" y="505" on="1"/>
        <pt x="214" y="505" on="1"/>
        <pt x="214" y="411" on="1"/>
        <pt x="469" y="411" on="1"/>
      </contour>
    </TTGlyph>
    <TTGlyph name="Hcircumflex" xMin="85" yMin="0" xMax="589" yMax="929">
      <component glyphName="H" x="0" y="0" flags="0x0"/>
      <component glyphName="uni0302.case" x="542" y="0" flags="0x0"/>
    </TTGlyph>
    <TTGlyph name="I" xMin="85" yMin="0" xMax="209" yMax="691">
      <contour>
        <pt x="209" y="0" on="1"/>
        <pt x="85" y="0" on="1"/>
        <pt x="85" y="691" on="1"/>
        <pt x="209" y="691" on="1"/>
      </contour>
    </TTGlyph>
    <TTGlyph name="IJ" xMin="85" yMin="-151" xMax="524" yMax="691">
      <component glyphName="I" x="0" y="0" flags="0x0"/>
      <component glyphName="J" x="294" y="0" flags="0x0"/>
    </TTGlyph>
    <TTGlyph name="Iacute" xMin="18" yMin="0" xMax="275" yMax="930">
      <component glyphName="I" x="0" y="0" flags="0x0"/>
      <component glyphName="acutecomb.case" x="305" y="0" flags="0x0"/>
    </TTGlyph>
    <TTGlyph name="Ibreve" xMin="-14" yMin="0" xMax="307" yMax="909">
      <component glyphName="I" x="0" y="0" flags="0x0"/>
      <component glyphName="uni0306.case" x="336" y="0" flags="0x0"/>
    </TTGlyph>
    <TTGlyph name="Icircumflex" xMin="-30" yMin="0" xMax="322" yMax="929">
      <component glyphName="I" x="0" y="0" flags="0x0"/>
      <component glyphName="uni0302.case" x="352" y="0" flags="0x0"/>
    </TTGlyph>
    <TTGlyph name="Idieresis" xMin="-30" yMin="0" xMax="324" yMax="907">
      <component glyphName="I" x="0" y="0" flags="0x0"/>
      <component glyphName="uni0308.case" x="354" y="0" flags="0x0"/>
    </TTGlyph>
    <TTGlyph name="Idotaccent" xMin="70" yMin="0" xMax="224" yMax="919">
      <component glyphName="I" x="0" y="0" flags="0x0"/>
      <component glyphName="uni0307.case" x="253" y="0" flags="0x0"/>
    </TTGlyph>
    <TTGlyph name="Igrave" xMin="11" yMin="0" xMax="268" yMax="930">
      <component glyphName="I" x="0" y="0" flags="0x0"/>
      <component glyphName="gravecomb.case" x="298" y="0" flags="0x0"/>
    </TTGlyph>
    <TTGlyph name="Imacron" xMin="3" yMin="0" xMax="290" yMax="874">
      <component glyphName="I" x="0" y="0" flags="0x0"/>
      <component glyphName="uni0304.case" x="320" y="0" flags="0x0"/>
    </TTGlyph>
    <TTGlyph name="Iogonek" xMin="-18" yMin="-238" xMax="209" yMax="691">
      <contour>
        <pt x="209" y="691" on="1"/>
        <pt x="209" y="0" on="1"/>
        <pt x="197" y="0" on="1"/>
        <pt x="128" y="-28" on="0"/>
        <pt x="76" y="-81" on="0"/>
        <pt x="76" y="-109" on="1"/>
        <pt x="76" y="-156" on="0"/>
        <pt x="131" y="-156" on="1"/>
        <pt x="158" y="-156" on="0"/>
        <pt x="192" y="-149" on="1"/>
        <pt x="182" y="-231" on="1"/>
        <pt x="145" y="-238" on="0"/>
        <pt x="116" y="-238" on="1"/>
        <pt x="56" y="-238" on="0"/>
        <pt x="-18" y="-178" on="0"/>
        <pt x="-18" y="-130" on="1"/>
        <pt x="-18" y="-46" on="0"/>
        <pt x="85" y="5" on="1"/>
        <pt x="85" y="691" on="1"/>
      </contour>
    </TTGlyph>
    <TTGlyph name="Iota" xMin="85" yMin="0" xMax="209" yMax="691">
      <contour>
        <pt x="209" y="0" on="1"/>
        <pt x="85" y="0" on="1"/>
        <pt x="85" y="691" on="1"/>
        <pt x="209" y="691" on="1"/>
      </contour>
    </TTGlyph>
    <TTGlyph name="Iotadieresis" xMin="-30" yMin="0" xMax="324" yMax="907">
      <component glyphName="I" x="0" y="0" flags="0x0"/>
      <component glyphName="uni0308.case" x="354" y="0" flags="0x0"/>
    </TTGlyph>
    <TTGlyph name="Iotatonos" xMin="38" yMin="0" xMax="352" yMax="714">
      <component glyphName="tonos.case" x="0" y="0" flags="0x0"/>
      <component glyphName="I" x="143" y="0" flags="0x0"/>
    </TTGlyph>
    <TTGlyph name="Itilde" xMin="-29" yMin="0" xMax="323" yMax="908">
      <component glyphName="I" x="0" y="0" flags="0x0"/>
      <component glyphName="tildecomb.case" x="351" y="0" flags="0x0"/>
    </TTGlyph>
    <TTGlyph name="J" xMin="-2" yMin="-151" xMax="230" yMax="691">
      <contour>
        <pt x="230" y="100" on="1"/>
        <pt x="230" y="-9" on="0"/>
        <pt x="128" y="-119" on="0"/>
        <pt x="31" y="-151" on="1"/>
        <pt x="-2" y="-62" on="1"/>
        <pt x="43" y="-44" on="0"/>
        <pt x="89" y="-1" on="0"/>
        <pt x="105" y="58" on="0"/>
        <pt x="105" y="105" on="1"/>
        <pt x="105" y="691" on="1"/>
        <pt x="230" y="691" on="1"/>
      </contour>
    </TTGlyph>
    <TTGlyph name="Jcircumflex" xMin="-9" yMin="-151" xMax="343" yMax="929">
      <component glyphName="J" x="0" y="0" flags="0x0"/>
      <component glyphName="uni0302.case" x="373" y="0" flags="0x0"/>
    </TTGlyph>
    <TTGlyph name="K" xMin="85" yMin="0" xMax="613" yMax="691">
      <contour>
        <pt x="209" y="0" on="1"/>
        <pt x="85" y="0" on="1"/>
        <pt x="85" y="691" on="1"/>
        <pt x="209" y="691" on="1"/>
      </contour>
      <contour>
        <pt x="350" y="377" on="1"/>
        <pt x="613" y="0" on="1"/>
        <pt x="465" y="0" on="1"/>
        <pt x="215" y="369" on="1"/>
        <pt x="459" y="691" on="1"/>
        <pt x="594" y="691" on="1"/>
      </contour>
    </TTGlyph>
    <TTGlyph name="Kappa" xMin="85" yMin="0" xMax="613" yMax="691">
      <component glyphName="K" x="0" y="0" flags="0x0"/>
    </TTGlyph>
    <TTGlyph name="Kcommaaccent" xMin="85" yMin="-308" xMax="613" yMax="691">
      <component glyphName="K" x="0" y="0" flags="0x0"/>
      <component glyphName="uni0326.case" x="418" y="0" flags="0x0"/>
    </TTGlyph>
    <TTGlyph name="L" xMin="85" yMin="0" xMax="487" yMax="691">
      <contour>
        <pt x="209" y="103" on="1"/>
        <pt x="487" y="103" on="1"/>
        <pt x="473" y="0" on="1"/>
        <pt x="85" y="0" on="1"/>
        <pt x="85" y="691" on="1"/>
        <pt x="209" y="691" on="1"/>
      </contour>
    </TTGlyph>
    <TTGlyph name="Lacute" xMin="19" yMin="0" xMax="487" yMax="930">
      <component glyphName="L" x="0" y="0" flags="0x0"/>
      <component glyphName="acutecomb.case" x="306" y="0" flags="0x0"/>
    </TTGlyph>
    <TTGlyph name="Lambda" xMin="-2" yMin="0" xMax="583" yMax="691">
      <contour>
        <pt x="583" y="0" on="1"/>
        <pt x="451" y="0" on="1"/>
        <pt x="289" y="595" on="1"/>
        <pt x="125" y="0" on="1"/>
        <pt x="-2" y="0" on="1"/>
        <pt x="214" y="691" on="1"/>
        <pt x="367" y="691" on="1"/>
      </contour>
    </TTGlyph>
    <TTGlyph name="Lcaron" xMin="85" yMin="0" xMax="487" yMax="703">
      <component glyphName="L" x="0" y="0" flags="0x0"/>
      <component glyphName="caron.alt" x="194" y="0" flags="0x0"/>
    </TTGlyph>
    <TTGlyph name="Lcommaaccent" xMin="85" yMin="-308" xMax="487" yMax="691">
      <component glyphName="L" x="0" y="0" flags="0x0"/>
      <component glyphName="uni0326.case" x="378" y="0" flags="0x0"/>
    </TTGlyph>
    <TTGlyph name="Ldot" xMin="85" yMin="0" xMax="487" yMax="691">
      <component glyphName="L" x="0" y="0" flags="0x0"/>
      <component glyphName="uni0307" x="502" y="-326" flags="0x0"/>
    </TTGlyph>
    <TTGlyph name="Lslash" xMin="16" yMin="0" xMax="513" yMax="691">
      <contour>
        <pt x="513" y="103" on="1"/>
        <pt x="499" y="0" on="1"/>
        <pt x="111" y="0" on="1"/>
        <pt x="111" y="243" on="1"/>
        <pt x="61" y="212" on="1"/>
        <pt x="16" y="283" on="1"/>
        <pt x="111" y="342" on="1"/>
        <pt x="111" y="691" on="1"/>
        <pt x="235" y="691" on="1"/>
        <pt x="235" y="419" on="1"/>
        <pt x="382" y="509" on="1"/>
        <pt x="426" y="438" on="1"/>
        <pt x="235" y="320" on="1"/>
        <pt x="235" y="103" on="1"/>
      </contour>
    </TTGlyph>
    <TTGlyph name="M" xMin="50" yMin="0" xMax="732" yMax="691">
      <contour>
        <pt x="732" y="0" on="1"/>
        <pt x="611" y="0" on="1"/>
        <pt x="592" y="294" on="1"/>
        <pt x="581" y="432" on="0"/>
        <pt x="581" y="542" on="1"/>
        <pt x="581" y="576" on="1"/>
        <pt x="450" y="76" on="1"/>
        <pt x="333" y="76" on="1"/>
        <pt x="194" y="577" on="1"/>
        <pt x="195" y="553" on="0"/>
        <pt x="195" y="503" on="1"/>
        <pt x="195" y="415" on="0"/>
        <pt x="188" y="289" on="1"/>
        <pt x="169" y="0" on="1"/>
        <pt x="50" y="0" on="1"/>
        <pt x="105" y="691" on="1"/>
        <pt x="266" y="691" on="1"/>
        <pt x="394" y="203" on="1"/>
        <pt x="514" y="691" on="1"/>
        <pt x="677" y="691" on="1"/>
      </contour>
    </TTGlyph>
    <TTGlyph name="Mu" xMin="50" yMin="0" xMax="732" yMax="691">
      <component glyphName="M" x="0" y="0" flags="0x0"/>
    </TTGlyph>
    <TTGlyph name="N" xMin="85" yMin="0" xMax="590" yMax="691">
      <contour>
        <pt x="590" y="0" on="1"/>
        <pt x="428" y="0" on="1"/>
        <pt x="182" y="565" on="1"/>
        <pt x="184" y="551" on="0"/>
        <pt x="184" y="541" on="1"/>
        <pt x="199" y="417" on="0"/>
        <pt x="199" y="290" on="1"/>
        <pt x="199" y="0" on="1"/>
        <pt x="85" y="0" on="1"/>
        <pt x="85" y="691" on="1"/>
        <pt x="243" y="691" on="1"/>
        <pt x="493" y="125" on="1"/>
        <pt x="487" y="162" on="0"/>
        <pt x="476" y="293" on="0"/>
        <pt x="476" y="355" on="1"/>
        <pt x="476" y="691" on="1"/>
        <pt x="590" y="691" on="1"/>
      </contour>
    </TTGlyph>
    <TTGlyph name="Nacute" xMin="85" yMin="0" xMax="590" yMax="930">
      <component glyphName="N" x="0" y="0" flags="0x0"/>
      <component glyphName="acutecomb.case" x="504" y="0" flags="0x0"/>
    </TTGlyph>
    <TTGlyph name="Nacute.loclPLK" xMin="85" yMin="0" xMax="590" yMax="942">
      <component glyphName="N" x="0" y="0" flags="0x0"/>
      <component glyphName="acute.case.loclPLK" x="188" y="0" flags="0x0"/>
    </TTGlyph>
    <TTGlyph name="Ncaron" xMin="85" yMin="0" xMax="590" yMax="924">
      <component glyphName="N" x="0" y="0" flags="0x0"/>
      <component glyphName="uni030C.case" x="552" y="0" flags="0x0"/>
    </TTGlyph>
    <TTGlyph name="Ncommaaccent" xMin="85" yMin="-308" xMax="590" yMax="691">
      <component glyphName="N" x="0" y="0" flags="0x0"/>
      <component glyphName="uni0326.case" x="437" y="0" flags="0x0"/>
    </TTGlyph>
    <TTGlyph name="Ntilde" xMin="85" yMin="0" xMax="590" yMax="908">
      <component glyphName="N" x="0" y="0" flags="0x0"/>
      <component glyphName="tildecomb.case" x="550" y="0" flags="0x0"/>
    </TTGlyph>
    <TTGlyph name="Nu" xMin="85" yMin="0" xMax="590" yMax="691">
      <component glyphName="N" x="0" y="0" flags="0x0"/>
    </TTGlyph>
    <TTGlyph name="O" xMin="46" yMin="-14" xMax="646" yMax="705">
      <contour>
        <pt x="437" y="705" on="0"/>
        <pt x="572" y="621" on="0"/>
        <pt x="646" y="459" on="0"/>
        <pt x="646" y="345" on="1"/>
        <pt x="646" y="233" on="0"/>
        <pt x="572" y="71" on="0"/>
        <pt x="437" y="-14" on="0"/>
        <pt x="346" y="-14" on="1"/>
        <pt x="255" y="-14" on="0"/>
        <pt x="120" y="70" on="0"/>
        <pt x="46" y="231" on="0"/>
        <pt x="46" y="345" on="1"/>
        <pt x="46" y="457" on="0"/>
        <pt x="120" y="619" on="0"/>
        <pt x="255" y="705" on="0"/>
        <pt x="346" y="705" on="1"/>
      </contour>
      <contour>
        <pt x="177" y="609" on="0"/>
        <pt x="177" y="345" on="1"/>
        <pt x="177" y="82" on="0"/>
        <pt x="346" y="82" on="1"/>
        <pt x="429" y="82" on="0"/>
        <pt x="515" y="208" on="0"/>
        <pt x="515" y="345" on="1"/>
        <pt x="515" y="483" on="0"/>
        <pt x="429" y="609" on="0"/>
        <pt x="346" y="609" on="1"/>
      </contour>
    </TTGlyph>
    <TTGlyph name="OE" xMin="46" yMin="-14" xMax="854" yMax="705">
      <contour>
        <pt x="854" y="0" on="1"/>
        <pt x="413" y="0" on="1"/>
        <pt x="374" y="-14" on="0"/>
        <pt x="331" y="-14" on="1"/>
        <pt x="247" y="-14" on="0"/>
        <pt x="118" y="70" on="0"/>
        <pt x="46" y="232" on="0"/>
        <pt x="46" y="345" on="1"/>
        <pt x="46" y="456" on="0"/>
        <pt x="118" y="619" on="0"/>
        <pt x="247" y="705" on="0"/>
        <pt x="331" y="705" on="1"/>
        <pt x="377" y="705" on="0"/>
        <pt x="417" y="691" on="1"/>
        <pt x="850" y="691" on="1"/>
        <pt x="836" y="597" on="1"/>
        <pt x="545" y="597" on="1"/>
        <pt x="612" y="522" on="0"/>
        <pt x="623" y="397" on="1"/>
        <pt x="803" y="397" on="1"/>
        <pt x="803" y="305" on="1"/>
        <pt x="624" y="305" on="1"/>
        <pt x="613" y="173" on="0"/>
        <pt x="540" y="94" on="1"/>
        <pt x="854" y="94" on="1"/>
      </contour>
      <contour>
        <pt x="177" y="209" on="0"/>
        <pt x="262" y="82" on="0"/>
        <pt x="336" y="82" on="1"/>
        <pt x="412" y="82" on="0"/>
        <pt x="495" y="209" on="0"/>
        <pt x="495" y="345" on="1"/>
        <pt x="495" y="609" on="0"/>
        <pt x="336" y="609" on="1"/>
        <pt x="261" y="609" on="0"/>
        <pt x="177" y="481" on="0"/>
        <pt x="177" y="345" on="1"/>
      </contour>
    </TTGlyph>
    <TTGlyph name="Oacute" xMin="46" yMin="-14" xMax="646" yMax="930">
      <component glyphName="O" x="0" y="0" flags="0x0"/>
      <component glyphName="acutecomb.case" x="504" y="0" flags="0x0"/>
    </TTGlyph>
    <TTGlyph name="Oacute.loclPLK" xMin="46" yMin="-14" xMax="646" yMax="942">
      <component glyphName="O" x="0" y="0" flags="0x0"/>
      <component glyphName="acute.case.loclPLK" x="188" y="0" flags="0x0"/>
    </TTGlyph>
    <TTGlyph name="Obreve" xMin="46" yMin="-14" xMax="646" yMax="909">
      <component glyphName="O" x="0" y="0" flags="0x0"/>
      <component glyphName="uni0306.case" x="535" y="0" flags="0x0"/>
    </TTGlyph>
    <TTGlyph name="Ocircumflex" xMin="46" yMin="-14" xMax="646" yMax="929">
      <component glyphName="O" x="0" y="0" flags="0x0"/>
      <component glyphName="uni0302.case" x="551" y="0" flags="0x0"/>
    </TTGlyph>
    <TTGlyph name="Odieresis" xMin="46" yMin="-14" xMax="646" yMax="907">
      <component glyphName="O" x="0" y="0" flags="0x0"/>
      <component glyphName="uni0308.case" x="553" y="0" flags="0x0"/>
    </TTGlyph>
    <TTGlyph name="Ograve" xMin="46" yMin="-14" xMax="646" yMax="930">
      <component glyphName="O" x="0" y="0" flags="0x0"/>
      <component glyphName="gravecomb.case" x="497" y="0" flags="0x0"/>
    </TTGlyph>
    <TTGlyph name="Ohorn" xMin="46" yMin="-14" xMax="685" yMax="773">
      <contour>
        <pt x="685" y="645" on="0"/>
        <pt x="635" y="586" on="0"/>
        <pt x="590" y="576" on="1"/>
        <pt x="646" y="486" on="0"/>
        <pt x="646" y="345" on="1"/>
        <pt x="646" y="233" on="0"/>
        <pt x="572" y="71" on="0"/>
        <pt x="437" y="-14" on="0"/>
        <pt x="346" y="-14" on="1"/>
        <pt x="255" y="-14" on="0"/>
        <pt x="120" y="70" on="0"/>
        <pt x="46" y="231" on="0"/>
        <pt x="46" y="345" on="1"/>
        <pt x="46" y="457" on="0"/>
        <pt x="120" y="619" on="0"/>
        <pt x="255" y="705" on="0"/>
        <pt x="346" y="705" on="1"/>
        <pt x="466" y="705" on="0"/>
        <pt x="543" y="634" on="1"/>
        <pt x="570" y="638" on="0"/>
        <pt x="594" y="664" on="0"/>
        <pt x="594" y="688" on="1"/>
        <pt x="594" y="710" on="0"/>
        <pt x="587" y="740" on="0"/>
        <pt x="580" y="758" on="1"/>
        <pt x="666" y="773" on="1"/>
        <pt x="685" y="737" on="0"/>
        <pt x="685" y="688" on="1"/>
      </contour>
      <contour>
        <pt x="429" y="82" on="0"/>
        <pt x="515" y="208" on="0"/>
        <pt x="515" y="345" on="1"/>
        <pt x="515" y="483" on="0"/>
        <pt x="429" y="609" on="0"/>
        <pt x="346" y="609" on="1"/>
        <pt x="177" y="609" on="0"/>
        <pt x="177" y="345" on="1"/>
        <pt x="177" y="82" on="0"/>
        <pt x="346" y="82" on="1"/>
      </contour>
    </TTGlyph>
    <TTGlyph name="Ohungarumlaut" xMin="46" yMin="-14" xMax="646" yMax="970">
      <component glyphName="O" x="0" y="0" flags="0x0"/>
      <component glyphName="uni030B.case" x="608" y="0" flags="0x0"/>
    </TTGlyph>
    <TTGlyph name="Omacron" xMin="46" yMin="-14" xMax="646" yMax="874">
      <component glyphName="O" x="0" y="0" flags="0x0"/>
      <component glyphName="uni0304.case" x="519" y="0" flags="0x0"/>
    </TTGlyph>
    <TTGlyph name="Omega" xMin="46" yMin="0" xMax="646" yMax="705">
      <contour>
        <pt x="438" y="705" on="0"/>
        <pt x="573" y="622" on="0"/>
        <pt x="646" y="468" on="0"/>
        <pt x="646" y="364" on="1"/>
        <pt x="646" y="263" on="0"/>
        <pt x="584" y="137" on="0"/>
        <pt x="513" y="96" on="1"/>
        <pt x="624" y="96" on="1"/>
        <pt x="624" y="0" on="1"/>
        <pt x="393" y="0" on="1"/>
        <pt x="393" y="94" on="1"/>
        <pt x="459" y="119" on="0"/>
        <pt x="515" y="246" on="0"/>
        <pt x="515" y="364" on="1"/>
        <pt x="515" y="488" on="0"/>
        <pt x="428" y="609" on="0"/>
        <pt x="346" y="609" on="1"/>
        <pt x="265" y="609" on="0"/>
        <pt x="177" y="487" on="0"/>
        <pt x="177" y="363" on="1"/>
        <pt x="177" y="242" on="0"/>
        <pt x="233" y="120" on="0"/>
        <pt x="298" y="94" on="1"/>
        <pt x="298" y="0" on="1"/>
        <pt x="67" y="0" on="1"/>
        <pt x="67" y="96" on="1"/>
        <pt x="174" y="96" on="1"/>
        <pt x="107" y="133" on="0"/>
        <pt x="46" y="260" on="0"/>
        <pt x="46" y="363" on="1"/>
        <pt x="46" y="465" on="0"/>
        <pt x="120" y="620" on="0"/>
        <pt x="256" y="705" on="0"/>
        <pt x="346" y="705" on="1"/>
      </contour>
    </TTGlyph>
    <TTGlyph name="Omegatonos" xMin="38" yMin="0" xMax="774" yMax="714">
      <component glyphName="tonos.case" x="0" y="0" flags="0x0"/>
      <component glyphName="Omega" x="128" y="0" flags="0x0"/>
    </TTGlyph>
    <TTGlyph name="Omicron" xMin="46" yMin="-14" xMax="646" yMax="705">
      <contour>
        <pt x="437" y="705" on="0"/>
        <pt x="572" y="621" on="0"/>
        <pt x="646" y="459" on="0"/>
        <pt x="646" y="345" on="1"/>
        <pt x="646" y="233" on="0"/>
        <pt x="572" y="71" on="0"/>
        <pt x="437" y="-14" on="0"/>
        <pt x="346" y="-14" on="1"/>
        <pt x="255" y="-14" on="0"/>
        <pt x="120" y="70" on="0"/>
        <pt x="46" y="231" on="0"/>
        <pt x="46" y="345" on="1"/>
        <pt x="46" y="457" on="0"/>
        <pt x="120" y="619" on="0"/>
        <pt x="255" y="705" on="0"/>
        <pt x="346" y="705" on="1"/>
      </contour>
      <contour>
        <pt x="177" y="609" on="0"/>
        <pt x="177" y="345" on="1"/>
        <pt x="177" y="82" on="0"/>
        <pt x="346" y="82" on="1"/>
        <pt x="429" y="82" on="0"/>
        <pt x="515" y="208" on="0"/>
        <pt x="515" y="345" on="1"/>
        <pt x="515" y="483" on="0"/>
        <pt x="429" y="609" on="0"/>
        <pt x="346" y="609" on="1"/>
      </contour>
    </TTGlyph>
    <TTGlyph name="Omicrontonos" xMin="38" yMin="-14" xMax="774" yMax="714">
      <component glyphName="tonos.case" x="0" y="0" flags="0x0"/>
      <component glyphName="O" x="128" y="0" flags="0x0"/>
    </TTGlyph>
    <TTGlyph name="Oslash" xMin="46" yMin="-130" xMax="646" yMax="823">
      <contour>
        <pt x="569" y="626" on="0"/>
        <pt x="646" y="462" on="0"/>
        <pt x="646" y="345" on="1"/>
        <pt x="646" y="233" on="0"/>
        <pt x="572" y="71" on="0"/>
        <pt x="437" y="-14" on="0"/>
        <pt x="346" y="-14" on="1"/>
        <pt x="318" y="-14" on="0"/>
        <pt x="286" y="-9" on="1"/>
        <pt x="251" y="-130" on="1"/>
        <pt x="153" y="-104" on="1"/>
        <pt x="193" y="24" on="1"/>
        <pt x="123" y="65" on="0"/>
        <pt x="46" y="229" on="0"/>
        <pt x="46" y="345" on="1"/>
        <pt x="46" y="457" on="0"/>
        <pt x="120" y="619" on="0"/>
        <pt x="255" y="705" on="0"/>
        <pt x="346" y="705" on="1"/>
        <pt x="374" y="705" on="0"/>
        <pt x="404" y="700" on="1"/>
        <pt x="442" y="823" on="1"/>
        <pt x="539" y="797" on="1"/>
        <pt x="498" y="667" on="1"/>
      </contour>
      <contour>
        <pt x="177" y="609" on="0"/>
        <pt x="177" y="345" on="1"/>
        <pt x="177" y="175" on="0"/>
        <pt x="240" y="117" on="1"/>
        <pt x="387" y="605" on="1"/>
        <pt x="370" y="609" on="0"/>
        <pt x="346" y="609" on="1"/>
      </contour>
      <contour>
        <pt x="429" y="82" on="0"/>
        <pt x="515" y="208" on="0"/>
        <pt x="515" y="345" on="1"/>
        <pt x="515" y="519" on="0"/>
        <pt x="451" y="575" on="1"/>
        <pt x="304" y="86" on="1"/>
        <pt x="321" y="82" on="0"/>
        <pt x="346" y="82" on="1"/>
      </contour>
    </TTGlyph>
    <TTGlyph name="Oslashacute" xMin="46" yMin="-130" xMax="646" yMax="953">
      <component glyphName="Oslash" x="0" y="0" flags="0x0"/>
      <component glyphName="acutecomb.case" x="501" y="23" flags="0x0"/>
    </TTGlyph>
    <TTGlyph name="Otilde" xMin="46" yMin="-14" xMax="646" yMax="908">
      <component glyphName="O" x="0" y="0" flags="0x0"/>
      <component glyphName="tildecomb.case" x="550" y="0" flags="0x0"/>
    </TTGlyph>
    <TTGlyph name="P" xMin="85" yMin="0" xMax="561" yMax="691">
      <contour>
        <pt x="416" y="691" on="0"/>
        <pt x="561" y="581" on="0"/>
        <pt x="561" y="472" on="1"/>
        <pt x="561" y="357" on="0"/>
        <pt x="414" y="243" on="0"/>
        <pt x="291" y="243" on="1"/>
        <pt x="209" y="243" on="1"/>
        <pt x="209" y="0" on="1"/>
        <pt x="85" y="0" on="1"/>
        <pt x="85" y="691" on="1"/>
        <pt x="284" y="691" on="1"/>
      </contour>
      <contour>
        <pt x="356" y="337" on="0"/>
        <pt x="432" y="398" on="0"/>
        <pt x="432" y="472" on="1"/>
        <pt x="432" y="599" on="0"/>
        <pt x="283" y="599" on="1"/>
        <pt x="209" y="599" on="1"/>
        <pt x="209" y="337" on="1"/>
        <pt x="283" y="337" on="1"/>
      </contour>
    </TTGlyph>
    <TTGlyph name="Phi" xMin="27" yMin="0" xMax="797" yMax="691">
      <contour>
        <pt x="797" y="219" on="0"/>
        <pt x="623" y="76" on="0"/>
        <pt x="472" y="71" on="1"/>
        <pt x="472" y="0" on="1"/>
        <pt x="352" y="0" on="1"/>
        <pt x="352" y="71" on="1"/>
        <pt x="197" y="79" on="0"/>
        <pt x="27" y="222" on="0"/>
        <pt x="27" y="345" on="1"/>
        <pt x="27" y="472" on="0"/>
        <pt x="201" y="613" on="0"/>
        <pt x="352" y="618" on="1"/>
        <pt x="352" y="691" on="1"/>
        <pt x="472" y="691" on="1"/>
        <pt x="472" y="618" on="1"/>
        <pt x="626" y="611" on="0"/>
        <pt x="797" y="469" on="0"/>
        <pt x="797" y="348" on="1"/>
      </contour>
      <contour>
        <pt x="154" y="256" on="0"/>
        <pt x="255" y="158" on="0"/>
        <pt x="356" y="154" on="1"/>
        <pt x="356" y="536" on="1"/>
        <pt x="253" y="529" on="0"/>
        <pt x="154" y="434" on="0"/>
        <pt x="154" y="345" on="1"/>
      </contour>
      <contour>
        <pt x="571" y="160" on="0"/>
        <pt x="670" y="257" on="0"/>
        <pt x="670" y="348" on="1"/>
        <pt x="670" y="435" on="0"/>
        <pt x="569" y="531" on="0"/>
        <pt x="468" y="535" on="1"/>
        <pt x="468" y="153" on="1"/>
      </contour>
    </TTGlyph>
    <TTGlyph name="Pi" xMin="85" yMin="0" xMax="585" yMax="691">
      <component glyphName="uni041F" x="0" y="0" flags="0x0"/>
    </TTGlyph>
    <TTGlyph name="Psi" xMin="28" yMin="0" xMax="680" yMax="691">
      <contour>
        <pt x="680" y="691" on="1"/>
        <pt x="680" y="430" on="1"/>
        <pt x="680" y="323" on="0"/>
        <pt x="544" y="201" on="0"/>
        <pt x="416" y="188" on="1"/>
        <pt x="416" y="0" on="1"/>
        <pt x="292" y="0" on="1"/>
        <pt x="292" y="188" on="1"/>
        <pt x="160" y="201" on="0"/>
        <pt x="28" y="321" on="0"/>
        <pt x="28" y="427" on="1"/>
        <pt x="28" y="691" on="1"/>
        <pt x="149" y="691" on="1"/>
        <pt x="149" y="430" on="1"/>
        <pt x="149" y="360" on="0"/>
        <pt x="219" y="287" on="0"/>
        <pt x="296" y="280" on="1"/>
        <pt x="296" y="691" on="1"/>
        <pt x="412" y="691" on="1"/>
        <pt x="412" y="280" on="1"/>
        <pt x="488" y="288" on="0"/>
        <pt x="559" y="360" on="0"/>
        <pt x="559" y="430" on="1"/>
        <pt x="559" y="691" on="1"/>
      </contour>
    </TTGlyph>
    <TTGlyph name="Q" xMin="46" yMin="-121" xMax="680" yMax="705">
      <contour>
        <pt x="545" y="41" on="0"/>
        <pt x="639" y="9" on="0"/>
        <pt x="680" y="-21" on="1"/>
        <pt x="603" y="-121" on="1"/>
        <pt x="543" y="-64" on="0"/>
        <pt x="430" y="-12" on="0"/>
        <pt x="340" y="-12" on="1"/>
        <pt x="252" y="-12" on="0"/>
        <pt x="119" y="71" on="0"/>
        <pt x="46" y="232" on="0"/>
        <pt x="46" y="345" on="1"/>
        <pt x="46" y="457" on="0"/>
        <pt x="120" y="619" on="0"/>
        <pt x="255" y="705" on="0"/>
        <pt x="346" y="705" on="1"/>
        <pt x="437" y="705" on="0"/>
        <pt x="572" y="621" on="0"/>
        <pt x="646" y="459" on="0"/>
        <pt x="646" y="345" on="1"/>
        <pt x="646" y="227" on="0"/>
        <pt x="561" y="82" on="0"/>
        <pt x="486" y="41" on="1"/>
      </contour>
      <contour>
        <pt x="177" y="82" on="0"/>
        <pt x="346" y="82" on="1"/>
        <pt x="429" y="82" on="0"/>
        <pt x="515" y="208" on="0"/>
        <pt x="515" y="345" on="1"/>
        <pt x="515" y="483" on="0"/>
        <pt x="429" y="609" on="0"/>
        <pt x="346" y="609" on="1"/>
        <pt x="177" y="609" on="0"/>
        <pt x="177" y="345" on="1"/>
      </contour>
    </TTGlyph>
    <TTGlyph name="R" xMin="85" yMin="0" xMax="597" yMax="691">
      <contour>
        <pt x="298" y="280" on="1"/>
        <pt x="209" y="280" on="1"/>
        <pt x="209" y="0" on="1"/>
        <pt x="85" y="0" on="1"/>
        <pt x="85" y="691" on="1"/>
        <pt x="285" y="691" on="1"/>
        <pt x="557" y="691" on="0"/>
        <pt x="557" y="489" on="1"/>
        <pt x="557" y="419" on="0"/>
        <pt x="487" y="330" on="0"/>
        <pt x="415" y="303" on="1"/>
        <pt x="597" y="0" on="1"/>
        <pt x="454" y="0" on="1"/>
      </contour>
      <contour>
        <pt x="209" y="371" on="1"/>
        <pt x="294" y="371" on="1"/>
        <pt x="360" y="371" on="0"/>
        <pt x="427" y="427" on="0"/>
        <pt x="427" y="489" on="1"/>
        <pt x="427" y="547" on="0"/>
        <pt x="358" y="599" on="0"/>
        <pt x="283" y="599" on="1"/>
        <pt x="209" y="599" on="1"/>
      </contour>
    </TTGlyph>
    <TTGlyph name="Racute" xMin="85" yMin="0" xMax="597" yMax="930">
      <component glyphName="R" x="0" y="0" flags="0x0"/>
      <component glyphName="acutecomb.case" x="461" y="0" flags="0x0"/>
    </TTGlyph>
    <TTGlyph name="Rcaron" xMin="85" yMin="0" xMax="597" yMax="924">
      <component glyphName="R" x="0" y="0" flags="0x0"/>
      <component glyphName="uni030C.case" x="508" y="0" flags="0x0"/>
    </TTGlyph>
    <TTGlyph name="Rcommaaccent" xMin="85" yMin="-308" xMax="597" yMax="691">
      <component glyphName="R" x="0" y="0" flags="0x0"/>
      <component glyphName="uni0326.case" x="408" y="0" flags="0x0"/>
    </TTGlyph>
    <TTGlyph name="Rho" xMin="85" yMin="0" xMax="561" yMax="691">
      <contour>
        <pt x="416" y="691" on="0"/>
        <pt x="561" y="581" on="0"/>
        <pt x="561" y="472" on="1"/>
        <pt x="561" y="357" on="0"/>
        <pt x="414" y="243" on="0"/>
        <pt x="291" y="243" on="1"/>
        <pt x="209" y="243" on="1"/>
        <pt x="209" y="0" on="1"/>
        <pt x="85" y="0" on="1"/>
        <pt x="85" y="691" on="1"/>
        <pt x="284" y="691" on="1"/>
      </contour>
      <contour>
        <pt x="356" y="337" on="0"/>
        <pt x="432" y="398" on="0"/>
        <pt x="432" y="472" on="1"/>
        <pt x="432" y="599" on="0"/>
        <pt x="283" y="599" on="1"/>
        <pt x="209" y="599" on="1"/>
        <pt x="209" y="337" on="1"/>
        <pt x="283" y="337" on="1"/>
      </contour>
    </TTGlyph>
    <TTGlyph name="S" xMin="18" yMin="-14" xMax="523" yMax="705">
      <contour>
        <pt x="350" y="705" on="0"/>
        <pt x="456" y="663" on="0"/>
        <pt x="502" y="621" on="1"/>
        <pt x="440" y="550" on="1"/>
        <pt x="403" y="581" on="0"/>
        <pt x="328" y="609" on="0"/>
        <pt x="285" y="609" on="1"/>
        <pt x="235" y="609" on="0"/>
        <pt x="174" y="565" on="0"/>
        <pt x="174" y="524" on="1"/>
        <pt x="174" y="497" on="0"/>
        <pt x="198" y="461" on="0"/>
        <pt x="258" y="430" on="0"/>
        <pt x="318" y="412" on="1"/>
        <pt x="385" y="391" on="0"/>
        <pt x="472" y="340" on="0"/>
        <pt x="523" y="258" on="0"/>
        <pt x="523" y="196" on="1"/>
        <pt x="523" y="134" on="0"/>
        <pt x="461" y="39" on="0"/>
        <pt x="344" y="-14" on="0"/>
        <pt x="265" y="-14" on="1"/>
        <pt x="187" y="-14" on="0"/>
        <pt x="63" y="35" on="0"/>
        <pt x="18" y="79" on="1"/>
        <pt x="84" y="152" on="1"/>
        <pt x="125" y="118" on="0"/>
        <pt x="210" y="82" on="0"/>
        <pt x="262" y="82" on="1"/>
        <pt x="320" y="82" on="0"/>
        <pt x="394" y="138" on="0"/>
        <pt x="394" y="190" on="1"/>
        <pt x="394" y="221" on="0"/>
        <pt x="370" y="261" on="0"/>
        <pt x="310" y="293" on="0"/>
        <pt x="254" y="310" on="1"/>
        <pt x="144" y="344" on="0"/>
        <pt x="47" y="439" on="0"/>
        <pt x="47" y="516" on="1"/>
        <pt x="47" y="572" on="0"/>
        <pt x="106" y="658" on="0"/>
        <pt x="211" y="705" on="0"/>
        <pt x="278" y="705" on="1"/>
      </contour>
    </TTGlyph>
    <TTGlyph name="Sacute" xMin="18" yMin="-14" xMax="523" yMax="930">
      <component glyphName="S" x="0" y="0" flags="0x0"/>
      <component glyphName="acutecomb.case" x="443" y="0" flags="0x0"/>
    </TTGlyph>
    <TTGlyph name="Sacute.loclPLK" xMin="18" yMin="-14" xMax="523" yMax="942">
      <component glyphName="S" x="0" y="0" flags="0x0"/>
      <component glyphName="acute.case.loclPLK" x="127" y="0" flags="0x0"/>
    </TTGlyph>
    <TTGlyph name="Scaron" xMin="18" yMin="-14" xMax="523" yMax="924">
      <component glyphName="S" x="0" y="0" flags="0x0"/>
      <component glyphName="uni030C.case" x="490" y="0" flags="0x0"/>
    </TTGlyph>
    <TTGlyph name="Scedilla" xMin="18" yMin="-250" xMax="523" yMax="705">
      <contour>
        <pt x="523" y="111" on="0"/>
        <pt x="409" y="-1" on="0"/>
        <pt x="309" y="-12" on="1"/>
        <pt x="309" y="-53" on="1"/>
        <pt x="358" y="-57" on="0"/>
        <pt x="407" y="-107" on="0"/>
        <pt x="407" y="-144" on="1"/>
        <pt x="407" y="-193" on="0"/>
        <pt x="332" y="-250" on="0"/>
        <pt x="272" y="-250" on="1"/>
        <pt x="241" y="-250" on="0"/>
        <pt x="189" y="-235" on="0"/>
        <pt x="172" y="-223" on="1"/>
        <pt x="202" y="-162" on="1"/>
        <pt x="231" y="-179" on="0"/>
        <pt x="265" y="-179" on="1"/>
        <pt x="287" y="-179" on="0"/>
        <pt x="314" y="-162" on="0"/>
        <pt x="314" y="-143" on="1"/>
        <pt x="314" y="-123" on="0"/>
        <pt x="271" y="-105" on="0"/>
        <pt x="223" y="-105" on="1"/>
        <pt x="234" y="-13" on="1"/>
        <pt x="105" y="-5" on="0"/>
        <pt x="18" y="79" on="1"/>
        <pt x="84" y="152" on="1"/>
        <pt x="125" y="118" on="0"/>
        <pt x="210" y="82" on="0"/>
        <pt x="262" y="82" on="1"/>
        <pt x="320" y="82" on="0"/>
        <pt x="394" y="138" on="0"/>
        <pt x="394" y="190" on="1"/>
        <pt x="394" y="221" on="0"/>
        <pt x="370" y="261" on="0"/>
        <pt x="310" y="293" on="0"/>
        <pt x="254" y="310" on="1"/>
        <pt x="144" y="344" on="0"/>
        <pt x="47" y="439" on="0"/>
        <pt x="47" y="516" on="1"/>
        <pt x="47" y="572" on="0"/>
        <pt x="106" y="658" on="0"/>
        <pt x="211" y="705" on="0"/>
        <pt x="278" y="705" on="1"/>
        <pt x="350" y="705" on="0"/>
        <pt x="456" y="663" on="0"/>
        <pt x="502" y="621" on="1"/>
        <pt x="440" y="550" on="1"/>
        <pt x="403" y="581" on="0"/>
        <pt x="328" y="609" on="0"/>
        <pt x="285" y="609" on="1"/>
        <pt x="235" y="609" on="0"/>
        <pt x="174" y="565" on="0"/>
        <pt x="174" y="524" on="1"/>
        <pt x="174" y="497" on="0"/>
        <pt x="198" y="461" on="0"/>
        <pt x="258" y="430" on="0"/>
        <pt x="318" y="412" on="1"/>
        <pt x="385" y="391" on="0"/>
        <pt x="472" y="340" on="0"/>
        <pt x="523" y="258" on="0"/>
        <pt x="523" y="196" on="1"/>
      </contour>
    </TTGlyph>
    <TTGlyph name="Scircumflex" xMin="18" yMin="-14" xMax="523" yMax="929">
      <component glyphName="S" x="0" y="0" flags="0x0"/>
      <component glyphName="uni0302.case" x="489" y="0" flags="0x0"/>
    </TTGlyph>
    <TTGlyph name="Scommaaccent" xMin="18" yMin="-308" xMax="523" yMax="705">
      <component glyphName="S" x="0" y="0" flags="0x0"/>
      <component glyphName="uni0326.case" x="372" y="0" flags="0x0"/>
    </TTGlyph>
    <TTGlyph name="Sigma" xMin="32" yMin="0" xMax="471" yMax="691">
      <contour>
        <pt x="471" y="595" on="1"/>
        <pt x="171" y="595" on="1"/>
        <pt x="357" y="373" on="1"/>
        <pt x="357" y="309" on="1"/>
        <pt x="170" y="96" on="1"/>
        <pt x="471" y="96" on="1"/>
        <pt x="471" y="0" on="1"/>
        <pt x="32" y="0" on="1"/>
        <pt x="32" y="95" on="1"/>
        <pt x="241" y="339" on="1"/>
        <pt x="32" y="595" on="1"/>
        <pt x="32" y="691" on="1"/>
        <pt x="471" y="691" on="1"/>
      </contour>
    </TTGlyph>
    <TTGlyph name="T" xMin="12" yMin="0" xMax="521" yMax="691">
      <contour>
        <pt x="508" y="591" on="1"/>
        <pt x="326" y="591" on="1"/>
        <pt x="326" y="0" on="1"/>
        <pt x="201" y="0" on="1"/>
        <pt x="201" y="591" on="1"/>
        <pt x="12" y="591" on="1"/>
        <pt x="12" y="691" on="1"/>
        <pt x="521" y="691" on="1"/>
      </contour>
    </TTGlyph>
    <TTGlyph name="Tau" xMin="12" yMin="0" xMax="521" yMax="691">
      <component glyphName="T" x="0" y="0" flags="0x0"/>
    </TTGlyph>
    <TTGlyph name="Tbar" xMin="12" yMin="-1" xMax="521" yMax="689">
      <contour>
        <pt x="326" y="589" on="1"/>
        <pt x="326" y="388" on="1"/>
        <pt x="446" y="388" on="1"/>
        <pt x="446" y="309" on="1"/>
        <pt x="326" y="309" on="1"/>
        <pt x="326" y="-1" on="1"/>
        <pt x="201" y="-1" on="1"/>
        <pt x="201" y="309" on="1"/>
        <pt x="82" y="309" on="1"/>
        <pt x="82" y="388" on="1"/>
        <pt x="201" y="388" on="1"/>
        <pt x="201" y="589" on="1"/>
        <pt x="12" y="589" on="1"/>
        <pt x="12" y="689" on="1"/>
        <pt x="521" y="689" on="1"/>
        <pt x="508" y="589" on="1"/>
      </contour>
    </TTGlyph>
    <TTGlyph name="Tcaron" xMin="12" yMin="0" xMax="521" yMax="924">
      <component glyphName="T" x="0" y="0" flags="0x0"/>
      <component glyphName="uni030C.case" x="470" y="0" flags="0x0"/>
    </TTGlyph>
    <TTGlyph name="Theta" xMin="46" yMin="-14" xMax="646" yMax="705">
      <contour>
        <pt x="437" y="705" on="0"/>
        <pt x="572" y="621" on="0"/>
        <pt x="646" y="459" on="0"/>
        <pt x="646" y="345" on="1"/>
        <pt x="646" y="233" on="0"/>
        <pt x="572" y="71" on="0"/>
        <pt x="437" y="-14" on="0"/>
        <pt x="346" y="-14" on="1"/>
        <pt x="255" y="-14" on="0"/>
        <pt x="120" y="70" on="0"/>
        <pt x="46" y="231" on="0"/>
        <pt x="46" y="345" on="1"/>
        <pt x="46" y="457" on="0"/>
        <pt x="120" y="619" on="0"/>
        <pt x="255" y="705" on="0"/>
        <pt x="346" y="705" on="1"/>
      </contour>
      <contour>
        <pt x="262" y="609" on="0"/>
        <pt x="173" y="482" on="0"/>
        <pt x="173" y="345" on="1"/>
        <pt x="173" y="82" on="0"/>
        <pt x="346" y="82" on="1"/>
        <pt x="431" y="82" on="0"/>
        <pt x="519" y="208" on="0"/>
        <pt x="519" y="345" on="1"/>
        <pt x="519" y="483" on="0"/>
        <pt x="431" y="609" on="0"/>
        <pt x="346" y="609" on="1"/>
      </contour>
      <contour>
        <pt x="457" y="311" on="1"/>
        <pt x="234" y="311" on="1"/>
        <pt x="234" y="393" on="1"/>
        <pt x="457" y="393" on="1"/>
      </contour>
    </TTGlyph>
    <TTGlyph name="Thorn" xMin="85" yMin="0" xMax="561" yMax="691">
      <contour>
        <pt x="416" y="577" on="0"/>
        <pt x="561" y="466" on="0"/>
        <pt x="561" y="355" on="1"/>
        <pt x="561" y="237" on="0"/>
        <pt x="414" y="121" on="0"/>
        <pt x="291" y="121" on="1"/>
        <pt x="209" y="121" on="1"/>
        <pt x="209" y="0" on="1"/>
        <pt x="85" y="0" on="1"/>
        <pt x="85" y="691" on="1"/>
        <pt x="209" y="691" on="1"/>
        <pt x="209" y="577" on="1"/>
        <pt x="284" y="577" on="1"/>
      </contour>
      <contour>
        <pt x="356" y="215" on="0"/>
        <pt x="432" y="277" on="0"/>
        <pt x="432" y="354" on="1"/>
        <pt x="432" y="485" on="0"/>
        <pt x="283" y="485" on="1"/>
        <pt x="209" y="485" on="1"/>
        <pt x="209" y="215" on="1"/>
        <pt x="283" y="215" on="1"/>
      </contour>
    </TTGlyph>
    <TTGlyph name="U" xMin="75" yMin="-14" xMax="582" yMax="691">
      <contour>
        <pt x="582" y="225" on="1"/>
        <pt x="582" y="155" on="0"/>
        <pt x="523" y="47" on="0"/>
        <pt x="409" y="-14" on="0"/>
        <pt x="328" y="-14" on="1"/>
        <pt x="206" y="-14" on="0"/>
        <pt x="75" y="116" on="0"/>
        <pt x="75" y="225" on="1"/>
        <pt x="75" y="691" on="1"/>
        <pt x="199" y="691" on="1"/>
        <pt x="199" y="232" on="1"/>
        <pt x="199" y="157" on="0"/>
        <pt x="262" y="84" on="0"/>
        <pt x="328" y="84" on="1"/>
        <pt x="394" y="84" on="0"/>
        <pt x="457" y="157" on="0"/>
        <pt x="457" y="232" on="1"/>
        <pt x="457" y="691" on="1"/>
        <pt x="582" y="691" on="1"/>
      </contour>
    </TTGlyph>
    <TTGlyph name="Uacute" xMin="75" yMin="-14" xMax="582" yMax="930">
      <component glyphName="U" x="0" y="0" flags="0x0"/>
      <component glyphName="acutecomb.case" x="487" y="0" flags="0x0"/>
    </TTGlyph>
    <TTGlyph name="Ubreve" xMin="75" yMin="-14" xMax="582" yMax="909">
      <component glyphName="U" x="0" y="0" flags="0x0"/>
      <component glyphName="uni0306.case" x="518" y="0" flags="0x0"/>
    </TTGlyph>
    <TTGlyph name="Ucircumflex" xMin="75" yMin="-14" xMax="582" yMax="929">
      <component glyphName="U" x="0" y="0" flags="0x0"/>
      <component glyphName="uni0302.case" x="534" y="0" flags="0x0"/>
    </TTGlyph>
    <TTGlyph name="Udieresis" xMin="75" yMin="-14" xMax="582" yMax="907">
      <component glyphName="U" x="0" y="0" flags="0x0"/>
      <component glyphName="uni0308.case" x="536" y="0" flags="0x0"/>
    </TTGlyph>
    <TTGlyph name="Ugrave" xMin="75" yMin="-14" xMax="582" yMax="930">
      <component glyphName="U" x="0" y="0" flags="0x0"/>
      <component glyphName="gravecomb.case" x="480" y="0" flags="0x0"/>
    </TTGlyph>
    <TTGlyph name="Uhorn" xMin="75" yMin="-14" xMax="717" yMax="773">
      <component glyphName="U" x="0" y="0" flags="0x0"/>
      <component glyphName="uni031B.case" x="747" y="0" flags="0x0"/>
    </TTGlyph>
    <TTGlyph name="Uhungarumlaut" xMin="75" yMin="-14" xMax="582" yMax="970">
      <component glyphName="U" x="0" y="0" flags="0x0"/>
      <component glyphName="uni030B.case" x="591" y="0" flags="0x0"/>
    </TTGlyph>
    <TTGlyph name="Umacron" xMin="75" yMin="-14" xMax="582" yMax="874">
      <component glyphName="U" x="0" y="0" flags="0x0"/>
      <component glyphName="uni0304.case" x="502" y="0" flags="0x0"/>
    </TTGlyph>
    <TTGlyph name="Uogonek" xMin="75" yMin="-238" xMax="582" yMax="691">
      <contour>
        <pt x="582" y="691" on="1"/>
        <pt x="582" y="225" on="1"/>
        <pt x="582" y="142" on="0"/>
        <pt x="501" y="23" on="0"/>
        <pt x="424" y="-1" on="1"/>
        <pt x="356" y="-29" on="0"/>
        <pt x="305" y="-81" on="0"/>
        <pt x="305" y="-109" on="1"/>
        <pt x="305" y="-156" on="0"/>
        <pt x="360" y="-156" on="1"/>
        <pt x="387" y="-156" on="0"/>
        <pt x="421" y="-149" on="1"/>
        <pt x="411" y="-231" on="1"/>
        <pt x="374" y="-238" on="0"/>
        <pt x="345" y="-238" on="1"/>
        <pt x="285" y="-238" on="0"/>
        <pt x="211" y="-178" on="0"/>
        <pt x="211" y="-130" on="1"/>
        <pt x="211" y="-55" on="0"/>
        <pt x="302" y="-13" on="1"/>
        <pt x="192" y="-6" on="0"/>
        <pt x="75" y="122" on="0"/>
        <pt x="75" y="225" on="1"/>
        <pt x="75" y="691" on="1"/>
        <pt x="199" y="691" on="1"/>
        <pt x="199" y="232" on="1"/>
        <pt x="199" y="157" on="0"/>
        <pt x="262" y="84" on="0"/>
        <pt x="328" y="84" on="1"/>
        <pt x="394" y="84" on="0"/>
        <pt x="457" y="157" on="0"/>
        <pt x="457" y="232" on="1"/>
        <pt x="457" y="691" on="1"/>
      </contour>
    </TTGlyph>
    <TTGlyph name="Upsilon" xMin="0" yMin="0" xMax="569" yMax="691">
      <contour>
        <pt x="347" y="263" on="1"/>
        <pt x="347" y="0" on="1"/>
        <pt x="222" y="0" on="1"/>
        <pt x="222" y="262" on="1"/>
        <pt x="0" y="691" on="1"/>
        <pt x="136" y="691" on="1"/>
        <pt x="287" y="365" on="1"/>
        <pt x="438" y="691" on="1"/>
        <pt x="569" y="691" on="1"/>
      </contour>
    </TTGlyph>
    <TTGlyph name="Upsilondieresis" xMin="0" yMin="0" xMax="569" yMax="907">
      <component glyphName="Y" x="0" y="0" flags="0x0"/>
      <component glyphName="uni0308.case" x="491" y="0" flags="0x0"/>
    </TTGlyph>
    <TTGlyph name="Upsilontonos" xMin="38" yMin="0" xMax="782" yMax="714">
      <component glyphName="tonos.case" x="0" y="0" flags="0x0"/>
      <component glyphName="Y" x="213" y="0" flags="0x0"/>
    </TTGlyph>
    <TTGlyph name="Uring" xMin="75" yMin="-14" xMax="582" yMax="975">
      <component glyphName="U" x="0" y="0" flags="0x0"/>
      <component glyphName="uni030A.case" x="483" y="0" flags="0x0"/>
    </TTGlyph>
    <TTGlyph name="Utilde" xMin="75" yMin="-14" xMax="582" yMax="908">
      <component glyphName="U" x="0" y="0" flags="0x0"/>
      <component glyphName="tildecomb.case" x="533" y="0" flags="0x0"/>
    </TTGlyph>
    <TTGlyph name="V" xMin="-2" yMin="0" xMax="564" yMax="691">
      <contour>
        <pt x="356" y="0" on="1"/>
        <pt x="211" y="0" on="1"/>
        <pt x="-2" y="691" on="1"/>
        <pt x="130" y="691" on="1"/>
        <pt x="285" y="114" on="1"/>
        <pt x="438" y="691" on="1"/>
        <pt x="564" y="691" on="1"/>
      </contour>
    </TTGlyph>
    <TTGlyph name="W" xMin="18" yMin="0" xMax="816" yMax="691">
      <contour>
        <pt x="687" y="0" on="1"/>
        <pt x="526" y="0" on="1"/>
        <pt x="416" y="557" on="1"/>
        <pt x="304" y="0" on="1"/>
        <pt x="147" y="0" on="1"/>
        <pt x="18" y="691" on="1"/>
        <pt x="141" y="691" on="1"/>
        <pt x="235" y="100" on="1"/>
        <pt x="352" y="691" on="1"/>
        <pt x="483" y="691" on="1"/>
        <pt x="600" y="100" on="1"/>
        <pt x="700" y="691" on="1"/>
        <pt x="816" y="691" on="1"/>
      </contour>
    </TTGlyph>
    <TTGlyph name="Wacute" xMin="18" yMin="0" xMax="816" yMax="930">
      <component glyphName="W" x="0" y="0" flags="0x0"/>
      <component glyphName="acutecomb.case" x="577" y="0" flags="0x0"/>
    </TTGlyph>
    <TTGlyph name="Wcircumflex" xMin="18" yMin="0" xMax="816" yMax="929">
      <component glyphName="W" x="0" y="0" flags="0x0"/>
      <component glyphName="uni0302.case" x="623" y="0" flags="0x0"/>
    </TTGlyph>
    <TTGlyph name="Wdieresis" xMin="18" yMin="0" xMax="816" yMax="907">
      <component glyphName="W" x="0" y="0" flags="0x0"/>
      <component glyphName="uni0308.case" x="625" y="0" flags="0x0"/>
    </TTGlyph>
    <TTGlyph name="Wgrave" xMin="18" yMin="0" xMax="816" yMax="930">
      <component glyphName="W" x="0" y="0" flags="0x0"/>
      <component glyphName="gravecomb.case" x="569" y="0" flags="0x0"/>
    </TTGlyph>
    <TTGlyph name="X" xMin="1" yMin="0" xMax="556" yMax="691">
      <contour>
        <pt x="556" y="0" on="1"/>
        <pt x="418" y="0" on="1"/>
        <pt x="276" y="288" on="1"/>
        <pt x="134" y="0" on="1"/>
        <pt x="1" y="0" on="1"/>
        <pt x="202" y="368" on="1"/>
        <pt x="18" y="691" on="1"/>
        <pt x="156" y="691" on="1"/>
        <pt x="278" y="447" on="1"/>
        <pt x="403" y="691" on="1"/>
        <pt x="536" y="691" on="1"/>
        <pt x="351" y="373" on="1"/>
      </contour>
    </TTGlyph>
    <TTGlyph name="Xi" xMin="38" yMin="0" xMax="478" yMax="691">
      <contour>
        <pt x="458" y="583" on="1"/>
        <pt x="38" y="583" on="1"/>
        <pt x="38" y="691" on="1"/>
        <pt x="474" y="691" on="1"/>
      </contour>
      <contour>
        <pt x="410" y="299" on="1"/>
        <pt x="101" y="299" on="1"/>
        <pt x="101" y="402" on="1"/>
        <pt x="410" y="402" on="1"/>
      </contour>
      <contour>
        <pt x="478" y="0" on="1"/>
        <pt x="38" y="0" on="1"/>
        <pt x="38" y="111" on="1"/>
        <pt x="478" y="111" on="1"/>
      </contour>
    </TTGlyph>
    <TTGlyph name="Y" xMin="0" yMin="0" xMax="569" yMax="691">
      <contour>
        <pt x="347" y="263" on="1"/>
        <pt x="347" y="0" on="1"/>
        <pt x="222" y="0" on="1"/>
        <pt x="222" y="262" on="1"/>
        <pt x="0" y="691" on="1"/>
        <pt x="136" y="691" on="1"/>
        <pt x="287" y="365" on="1"/>
        <pt x="438" y="691" on="1"/>
        <pt x="569" y="691" on="1"/>
      </contour>
    </TTGlyph>
    <TTGlyph name="Yacute" xMin="0" yMin="0" xMax="569" yMax="930">
      <component glyphName="Y" x="0" y="0" flags="0x0"/>
      <component glyphName="acutecomb.case" x="443" y="0" flags="0x0"/>
    </TTGlyph>
    <TTGlyph name="Ycircumflex" xMin="0" yMin="0" xMax="569" yMax="929">
      <component glyphName="Y" x="0" y="0" flags="0x0"/>
      <component glyphName="uni0302.case" x="489" y="0" flags="0x0"/>
    </TTGlyph>
    <TTGlyph name="Ydieresis" xMin="0" yMin="0" xMax="569" yMax="907">
      <component glyphName="Y" x="0" y="0" flags="0x0"/>
      <component glyphName="uni0308.case" x="491" y="0" flags="0x0"/>
    </TTGlyph>
    <TTGlyph name="Ygrave" xMin="0" yMin="0" xMax="569" yMax="930">
      <component glyphName="Y" x="0" y="0" flags="0x0"/>
      <component glyphName="gravecomb.case" x="435" y="0" flags="0x0"/>
    </TTGlyph>
    <TTGlyph name="Z" xMin="25" yMin="0" xMax="494" yMax="691">
      <contour>
        <pt x="492" y="594" on="1"/>
        <pt x="168" y="102" on="1"/>
        <pt x="494" y="102" on="1"/>
        <pt x="481" y="0" on="1"/>
        <pt x="25" y="0" on="1"/>
        <pt x="25" y="96" on="1"/>
        <pt x="353" y="591" on="1"/>
        <pt x="59" y="591" on="1"/>
        <pt x="59" y="691" on="1"/>
        <pt x="492" y="691" on="1"/>
      </contour>
    </TTGlyph>
    <TTGlyph name="Zacute" xMin="25" yMin="0" xMax="494" yMax="930">
      <component glyphName="Z" x="0" y="0" flags="0x0"/>
      <component glyphName="acutecomb.case" x="432" y="0" flags="0x0"/>
    </TTGlyph>
    <TTGlyph name="Zacute.loclPLK" xMin="25" yMin="0" xMax="494" yMax="942">
      <component glyphName="Z" x="0" y="0" flags="0x0"/>
      <component glyphName="acute.case.loclPLK" x="116" y="0" flags="0x0"/>
    </TTGlyph>
    <TTGlyph name="Zcaron" xMin="25" yMin="0" xMax="494" yMax="924">
      <component glyphName="Z" x="0" y="0" flags="0x0"/>
      <component glyphName="uni030C.case" x="480" y="0" flags="0x0"/>
    </TTGlyph>
    <TTGlyph name="Zdotaccent" xMin="25" yMin="0" xMax="494" yMax="919">
      <component glyphName="Z" x="0" y="0" flags="0x0"/>
      <component glyphName="uni0307.case" x="380" y="0" flags="0x0"/>
    </TTGlyph>
    <TTGlyph name="Zeta" xMin="25" yMin="0" xMax="494" yMax="691">
      <component glyphName="Z" x="0" y="0" flags="0x0"/>
    </TTGlyph>
    <TTGlyph name="a" xMin="37" yMin="-14" xMax="505" yMax="543">
      <contour>
        <pt x="464" y="105" on="0"/>
        <pt x="484" y="75" on="0"/>
        <pt x="505" y="68" on="1"/>
        <pt x="479" y="-13" on="1"/>
        <pt x="434" y="-8" on="0"/>
        <pt x="379" y="27" on="0"/>
        <pt x="365" y="65" on="1"/>
        <pt x="314" y="-14" on="0"/>
        <pt x="207" y="-14" on="1"/>
        <pt x="129" y="-14" on="0"/>
        <pt x="37" y="75" on="0"/>
        <pt x="37" y="148" on="1"/>
        <pt x="37" y="233" on="0"/>
        <pt x="161" y="324" on="0"/>
        <pt x="276" y="324" on="1"/>
        <pt x="346" y="324" on="1"/>
        <pt x="346" y="356" on="1"/>
        <pt x="346" y="408" on="0"/>
        <pt x="298" y="451" on="0"/>
        <pt x="244" y="451" on="1"/>
        <pt x="187" y="451" on="0"/>
        <pt x="103" y="423" on="1"/>
        <pt x="75" y="505" on="1"/>
        <pt x="175" y="543" on="0"/>
        <pt x="265" y="543" on="1"/>
        <pt x="464" y="543" on="0"/>
        <pt x="464" y="362" on="1"/>
        <pt x="464" y="136" on="1"/>
      </contour>
      <contour>
        <pt x="306" y="73" on="0"/>
        <pt x="346" y="142" on="1"/>
        <pt x="346" y="252" on="1"/>
        <pt x="289" y="252" on="1"/>
        <pt x="160" y="252" on="0"/>
        <pt x="160" y="156" on="1"/>
        <pt x="160" y="116" on="0"/>
        <pt x="200" y="73" on="0"/>
        <pt x="239" y="73" on="1"/>
      </contour>
    </TTGlyph>
    <TTGlyph name="a.sc" xMin="-2" yMin="0" xMax="513" yMax="566">
      <contour>
        <pt x="351" y="127" on="1"/>
        <pt x="157" y="127" on="1"/>
        <pt x="121" y="0" on="1"/>
        <pt x="-2" y="0" on="1"/>
        <pt x="183" y="566" on="1"/>
        <pt x="329" y="566" on="1"/>
        <pt x="513" y="0" on="1"/>
        <pt x="387" y="0" on="1"/>
      </contour>
      <contour>
        <pt x="327" y="216" on="1"/>
        <pt x="254" y="477" on="1"/>
        <pt x="181" y="216" on="1"/>
      </contour>
    </TTGlyph>
    <TTGlyph name="aacute" xMin="37" yMin="-14" xMax="505" yMax="816">
      <component glyphName="a" x="0" y="0" flags="0x0"/>
      <component glyphName="acutecomb" x="421" y="0" flags="0x0"/>
    </TTGlyph>
    <TTGlyph name="aacute.sc" xMin="-2" yMin="0" xMax="513" yMax="846">
      <component glyphName="a.sc" x="0" y="0" flags="0x0"/>
      <component glyphName="acutecomb.sc" x="95" y="0" flags="0x0"/>
    </TTGlyph>
    <TTGlyph name="abreve" xMin="37" yMin="-14" xMax="505" yMax="802">
      <component glyphName="a" x="0" y="0" flags="0x0"/>
      <component glyphName="uni0306" x="456" y="0" flags="0x0"/>
    </TTGlyph>
    <TTGlyph name="abreve.sc" xMin="-2" yMin="0" xMax="513" yMax="832">
      <component glyphName="a.sc" x="0" y="0" flags="0x0"/>
      <component glyphName="uni0306.sc" x="65" y="0" flags="0x0"/>
    </TTGlyph>
    <TTGlyph name="abrevecy.sc" xMin="-2" yMin="0" xMax="513" yMax="815">
      <component glyphName="a.sc" x="0" y="0" flags="0x0"/>
      <component glyphName="brevecy.sc" x="65" y="0" flags="0x0"/>
    </TTGlyph>
    <TTGlyph name="acircumflex" xMin="37" yMin="-14" xMax="505" yMax="805">
      <component glyphName="a" x="0" y="0" flags="0x0"/>
      <component glyphName="uni0302" x="471" y="0" flags="0x0"/>
    </TTGlyph>
    <TTGlyph name="acircumflex.sc" xMin="-2" yMin="0" xMax="513" yMax="835">
      <component glyphName="a.sc" x="0" y="0" flags="0x0"/>
      <component glyphName="uni0302.sc" x="50" y="0" flags="0x0"/>
    </TTGlyph>
    <TTGlyph name="acute" xMin="30" yMin="631" xMax="287" yMax="816">
      <contour>
        <pt x="287" y="721" on="1"/>
        <pt x="65" y="631" on="1"/>
        <pt x="30" y="694" on="1"/>
        <pt x="237" y="816" on="1"/>
      </contour>
    </TTGlyph>
    <TTGlyph name="acute.case" xMin="30" yMin="753" xMax="287" yMax="930">
      <contour>
        <pt x="287" y="836" on="1"/>
        <pt x="61" y="753" on="1"/>
        <pt x="30" y="816" on="1"/>
        <pt x="238" y="930" on="1"/>
      </contour>
    </TTGlyph>
    <TTGlyph name="acute.case.loclPLK" xMin="96" yMin="737" xMax="289" yMax="942">
      <contour>
        <pt x="289" y="887" on="1"/>
        <pt x="152" y="737" on="1"/>
        <pt x="96" y="770" on="1"/>
        <pt x="198" y="942" on="1"/>
      </contour>
    </TTGlyph>
    <TTGlyph name="acute.loclPLK" xMin="96" yMin="579" xMax="288" yMax="791">
      <contour>
        <pt x="288" y="736" on="1"/>
        <pt x="152" y="579" on="1"/>
        <pt x="96" y="612" on="1"/>
        <pt x="197" y="791" on="1"/>
      </contour>
    </TTGlyph>
    <TTGlyph name="acute.sc" xMin="30" yMin="661" xMax="287" yMax="846">
      <component glyphName="acutecomb" x="317" y="30" flags="0x0"/>
    </TTGlyph>
    <TTGlyph name="acute.sc.loclPLK" xMin="96" yMin="622" xMax="288" yMax="834">
      <contour>
        <pt x="288" y="779" on="1"/>
        <pt x="152" y="622" on="1"/>
        <pt x="96" y="655" on="1"/>
        <pt x="197" y="834" on="1"/>
      </contour>
    </TTGlyph>
    <TTGlyph name="acutecomb" xMin="-287" yMin="631" xMax="-30" yMax="816">
      <contour>
        <pt x="-30" y="721" on="1"/>
        <pt x="-252" y="631" on="1"/>
        <pt x="-287" y="694" on="1"/>
        <pt x="-80" y="816" on="1"/>
      </contour>
    </TTGlyph>
    <TTGlyph name="acutecomb.case" xMin="-287" yMin="753" xMax="-30" yMax="930">
      <contour>
        <pt x="-30" y="836" on="1"/>
        <pt x="-256" y="753" on="1"/>
        <pt x="-287" y="816" on="1"/>
        <pt x="-79" y="930" on="1"/>
      </contour>
    </TTGlyph>
    <TTGlyph name="acutecomb.sc" xMin="30" yMin="661" xMax="287" yMax="846">
      <contour>
        <pt x="287" y="751" on="1"/>
        <pt x="65" y="661" on="1"/>
        <pt x="30" y="724" on="1"/>
        <pt x="237" y="846" on="1"/>
      </contour>
    </TTGlyph>
    <TTGlyph name="adieresis" xMin="37" yMin="-14" xMax="505" yMax="781">
      <component glyphName="a" x="0" y="0" flags="0x0"/>
      <component glyphName="uni0308" x="472" y="0" flags="0x0"/>
    </TTGlyph>
    <TTGlyph name="adieresis.sc" xMin="-2" yMin="0" xMax="513" yMax="811">
      <component glyphName="a.sc" x="0" y="0" flags="0x0"/>
      <component glyphName="uni0308.sc" x="48" y="0" flags="0x0"/>
    </TTGlyph>
    <TTGlyph name="ae" xMin="37" yMin="-14" xMax="810" yMax="543">
      <contour>
        <pt x="810" y="254" on="0"/>
        <pt x="808" y="226" on="1"/>
        <pt x="475" y="226" on="1"/>
        <pt x="481" y="147" on="0"/>
        <pt x="550" y="78" on="0"/>
        <pt x="608" y="78" on="1"/>
        <pt x="644" y="78" on="0"/>
        <pt x="705" y="100" on="0"/>
        <pt x="740" y="124" on="1"/>
        <pt x="791" y="55" on="1"/>
        <pt x="703" y="-14" on="0"/>
        <pt x="597" y="-14" on="1"/>
        <pt x="531" y="-14" on="0"/>
        <pt x="430" y="35" on="0"/>
        <pt x="399" y="80" on="1"/>
        <pt x="363" y="30" on="0"/>
        <pt x="271" y="-14" on="0"/>
        <pt x="210" y="-14" on="1"/>
        <pt x="131" y="-14" on="0"/>
        <pt x="37" y="75" on="0"/>
        <pt x="37" y="148" on="1"/>
        <pt x="37" y="233" on="0"/>
        <pt x="164" y="324" on="0"/>
        <pt x="280" y="324" on="1"/>
        <pt x="350" y="324" on="1"/>
        <pt x="350" y="356" on="1"/>
        <pt x="350" y="407" on="0"/>
        <pt x="302" y="450" on="0"/>
        <pt x="249" y="450" on="1"/>
        <pt x="190" y="450" on="0"/>
        <pt x="108" y="422" on="1"/>
        <pt x="79" y="505" on="1"/>
        <pt x="179" y="543" on="0"/>
        <pt x="269" y="543" on="1"/>
        <pt x="382" y="543" on="0"/>
        <pt x="429" y="467" on="1"/>
        <pt x="489" y="543" on="0"/>
        <pt x="588" y="543" on="1"/>
        <pt x="692" y="543" on="0"/>
        <pt x="810" y="402" on="0"/>
        <pt x="810" y="278" on="1"/>
      </contour>
      <contour>
        <pt x="692" y="312" on="1"/>
        <pt x="691" y="381" on="0"/>
        <pt x="638" y="456" on="0"/>
        <pt x="584" y="456" on="1"/>
        <pt x="535" y="456" on="0"/>
        <pt x="480" y="385" on="0"/>
        <pt x="475" y="306" on="1"/>
        <pt x="692" y="306" on="1"/>
      </contour>
      <contour>
        <pt x="281" y="73" on="0"/>
        <pt x="338" y="113" on="0"/>
        <pt x="364" y="154" on="1"/>
        <pt x="351" y="200" on="0"/>
        <pt x="351" y="247" on="1"/>
        <pt x="351" y="251" on="1"/>
        <pt x="294" y="251" on="1"/>
        <pt x="166" y="251" on="0"/>
        <pt x="166" y="155" on="1"/>
        <pt x="166" y="116" on="0"/>
        <pt x="206" y="73" on="0"/>
        <pt x="244" y="73" on="1"/>
      </contour>
    </TTGlyph>
    <TTGlyph name="ae.sc" xMin="-17" yMin="0" xMax="686" yMax="566">
      <contour>
        <pt x="686" y="88" on="1"/>
        <pt x="686" y="0" on="1"/>
        <pt x="388" y="0" on="1"/>
        <pt x="362" y="127" on="1"/>
        <pt x="158" y="127" on="1"/>
        <pt x="111" y="0" on="1"/>
        <pt x="-17" y="0" on="1"/>
        <pt x="219" y="566" on="1"/>
        <pt x="653" y="566" on="1"/>
        <pt x="640" y="478" on="1"/>
        <pt x="398" y="478" on="1"/>
        <pt x="431" y="330" on="1"/>
        <pt x="645" y="330" on="1"/>
        <pt x="645" y="244" on="1"/>
        <pt x="450" y="244" on="1"/>
        <pt x="485" y="88" on="1"/>
      </contour>
      <contour>
        <pt x="343" y="216" on="1"/>
        <pt x="289" y="476" on="1"/>
        <pt x="192" y="216" on="1"/>
      </contour>
    </TTGlyph>
    <TTGlyph name="aeacute" xMin="37" yMin="-14" xMax="810" yMax="816">
      <component glyphName="ae" x="0" y="0" flags="0x0"/>
      <component glyphName="acutecomb" x="584" y="0" flags="0x0"/>
    </TTGlyph>
    <TTGlyph name="aeacute.sc" xMin="-17" yMin="0" xMax="686" yMax="846">
      <component glyphName="ae.sc" x="0" y="0" flags="0x0"/>
      <component glyphName="acutecomb.sc" x="247" y="0" flags="0x0"/>
    </TTGlyph>
    <TTGlyph name="agrave" xMin="37" yMin="-14" xMax="505" yMax="816">
      <component glyphName="a" x="0" y="0" flags="0x0"/>
      <component glyphName="gravecomb" x="434" y="0" flags="0x0"/>
    </TTGlyph>
    <TTGlyph name="agrave.sc" xMin="-2" yMin="0" xMax="513" yMax="846">
      <component glyphName="a.sc" x="0" y="0" flags="0x0"/>
      <component glyphName="gravecomb.sc" x="100" y="0" flags="0x0"/>
    </TTGlyph>
    <TTGlyph name="alpha" xMin="46" yMin="-15" xMax="559" yMax="543">
      <contour>
        <pt x="322" y="543" on="0"/>
        <pt x="401" y="470" on="0"/>
        <pt x="416" y="390" on="1"/>
        <pt x="438" y="529" on="1"/>
        <pt x="543" y="529" on="1"/>
        <pt x="482" y="254" on="1"/>
        <pt x="509" y="132" on="1"/>
        <pt x="514" y="110" on="0"/>
        <pt x="537" y="86" on="0"/>
        <pt x="559" y="79" on="1"/>
        <pt x="519" y="-15" on="1"/>
        <pt x="479" y="-9" on="0"/>
        <pt x="423" y="39" on="0"/>
        <pt x="415" y="80" on="1"/>
        <pt x="407" y="127" on="1"/>
        <pt x="358" y="-14" on="0"/>
        <pt x="243" y="-14" on="1"/>
        <pt x="150" y="-14" on="0"/>
        <pt x="46" y="126" on="0"/>
        <pt x="46" y="260" on="1"/>
        <pt x="46" y="387" on="0"/>
        <pt x="155" y="543" on="0"/>
        <pt x="255" y="543" on="1"/>
      </contour>
      <contour>
        <pt x="221" y="452" on="0"/>
        <pt x="171" y="355" on="0"/>
        <pt x="171" y="260" on="1"/>
        <pt x="171" y="77" on="0"/>
        <pt x="263" y="77" on="1"/>
        <pt x="303" y="77" on="0"/>
        <pt x="365" y="160" on="0"/>
        <pt x="385" y="269" on="1"/>
        <pt x="367" y="372" on="0"/>
        <pt x="312" y="452" on="0"/>
        <pt x="267" y="452" on="1"/>
      </contour>
    </TTGlyph>
    <TTGlyph name="alpha.sc" xMin="-2" yMin="0" xMax="513" yMax="566">
      <component glyphName="a.sc" x="0" y="0" flags="0x0"/>
    </TTGlyph>
    <TTGlyph name="alphadasiaoxiaprosgegrammeni.sc" xMin="-2" yMin="0" xMax="513" yMax="566">
      <component glyphName="a.sc" x="0" y="0" flags="0x0"/>
    </TTGlyph>
    <TTGlyph name="alphadasiaperispomeniprosgegram" xMin="-2" yMin="0" xMax="513" yMax="566">
      <component glyphName="a.sc" x="0" y="0" flags="0x0"/>
    </TTGlyph>
    <TTGlyph name="alphadasiaprosgegrammeni.sc" xMin="-2" yMin="0" xMax="513" yMax="566">
      <component glyphName="a.sc" x="0" y="0" flags="0x0"/>
    </TTGlyph>
    <TTGlyph name="alphadasiavariaprosgegrammeni.s" xMin="-2" yMin="0" xMax="513" yMax="566">
      <component glyphName="a.sc" x="0" y="0" flags="0x0"/>
    </TTGlyph>
    <TTGlyph name="alphaprosgegrammeni.sc" xMin="-2" yMin="0" xMax="513" yMax="566">
      <component glyphName="a.sc" x="0" y="0" flags="0x0"/>
    </TTGlyph>
    <TTGlyph name="alphapsilioxiaprosgegrammeni.sc" xMin="-2" yMin="0" xMax="513" yMax="566">
      <component glyphName="a.sc" x="0" y="0" flags="0x0"/>
    </TTGlyph>
    <TTGlyph name="alphapsiliperispomeniprosgegram" xMin="-2" yMin="0" xMax="513" yMax="566">
      <component glyphName="a.sc" x="0" y="0" flags="0x0"/>
    </TTGlyph>
    <TTGlyph name="alphapsiliprosgegrammeni.sc" xMin="-2" yMin="0" xMax="513" yMax="566">
      <component glyphName="a.sc" x="0" y="0" flags="0x0"/>
    </TTGlyph>
    <TTGlyph name="alphapsilivariaprosgegrammeni.s" xMin="-2" yMin="0" xMax="513" yMax="566">
      <component glyphName="a.sc" x="0" y="0" flags="0x0"/>
    </TTGlyph>
    <TTGlyph name="alphatonos" xMin="46" yMin="-15" xMax="559" yMax="827">
      <component glyphName="alpha" x="0" y="0" flags="0x0"/>
      <component glyphName="tonos" x="206" y="0" flags="0x0"/>
    </TTGlyph>
    <TTGlyph name="alphatonos.sc" xMin="-2" yMin="0" xMax="513" yMax="566">
      <component glyphName="a.sc" x="0" y="0" flags="0x0"/>
    </TTGlyph>
    <TTGlyph name="amacron" xMin="37" yMin="-14" xMax="505" yMax="748">
      <component glyphName="a" x="0" y="0" flags="0x0"/>
      <component glyphName="uni0304" x="438" y="0" flags="0x0"/>
    </TTGlyph>
    <TTGlyph name="amacron.sc" xMin="-2" yMin="0" xMax="513" yMax="778">
      <component glyphName="a.sc" x="0" y="0" flags="0x0"/>
      <component glyphName="uni0304.sc" x="82" y="0" flags="0x0"/>
    </TTGlyph>
    <TTGlyph name="ampersand" xMin="72" yMin="-14" xMax="710" yMax="705">
      <contour>
        <pt x="365" y="705" on="0"/>
        <pt x="455" y="665" on="0"/>
        <pt x="503" y="594" on="0"/>
        <pt x="503" y="550" on="1"/>
        <pt x="503" y="491" on="0"/>
        <pt x="432" y="405" on="0"/>
        <pt x="366" y="364" on="1"/>
        <pt x="524" y="214" on="1"/>
        <pt x="558" y="282" on="0"/>
        <pt x="579" y="373" on="1"/>
        <pt x="684" y="342" on="1"/>
        <pt x="649" y="230" on="0"/>
        <pt x="594" y="149" on="1"/>
        <pt x="710" y="44" on="1"/>
        <pt x="615" y="-14" on="1"/>
        <pt x="526" y="72" on="1"/>
        <pt x="437" y="-14" on="0"/>
        <pt x="306" y="-14" on="1"/>
        <pt x="237" y="-14" on="0"/>
        <pt x="131" y="33" on="0"/>
        <pt x="72" y="119" on="0"/>
        <pt x="72" y="176" on="1"/>
        <pt x="72" y="237" on="0"/>
        <pt x="140" y="328" on="0"/>
        <pt x="210" y="373" on="1"/>
        <pt x="158" y="424" on="0"/>
        <pt x="113" y="498" on="0"/>
        <pt x="113" y="545" on="1"/>
        <pt x="113" y="590" on="0"/>
        <pt x="157" y="662" on="0"/>
        <pt x="244" y="705" on="0"/>
        <pt x="306" y="705" on="1"/>
      </contour>
      <contour>
        <pt x="271" y="622" on="0"/>
        <pt x="229" y="580" on="0"/>
        <pt x="229" y="546" on="1"/>
        <pt x="229" y="514" on="0"/>
        <pt x="261" y="463" on="0"/>
        <pt x="299" y="427" on="1"/>
        <pt x="343" y="455" on="0"/>
        <pt x="387" y="511" on="0"/>
        <pt x="387" y="545" on="1"/>
        <pt x="387" y="581" on="0"/>
        <pt x="345" y="622" on="0"/>
        <pt x="308" y="622" on="1"/>
      </contour>
      <contour>
        <pt x="236" y="280" on="0"/>
        <pt x="196" y="219" on="0"/>
        <pt x="196" y="181" on="1"/>
        <pt x="196" y="132" on="0"/>
        <pt x="266" y="76" on="0"/>
        <pt x="323" y="76" on="1"/>
        <pt x="364" y="76" on="0"/>
        <pt x="431" y="104" on="0"/>
        <pt x="461" y="133" on="1"/>
        <pt x="278" y="309" on="1"/>
      </contour>
    </TTGlyph>
    <TTGlyph name="ampersand.ss03" xMin="35" yMin="-13" xMax="901" yMax="626">
      <contour>
        <pt x="901" y="480" on="1"/>
        <pt x="901" y="395" on="1"/>
        <pt x="796" y="395" on="1"/>
        <pt x="785" y="282" on="0"/>
        <pt x="681" y="97" on="0"/>
        <pt x="495" y="-13" on="0"/>
        <pt x="366" y="-13" on="1"/>
        <pt x="206" y="-13" on="0"/>
        <pt x="35" y="157" on="0"/>
        <pt x="35" y="314" on="1"/>
        <pt x="35" y="408" on="0"/>
        <pt x="106" y="549" on="0"/>
        <pt x="231" y="626" on="0"/>
        <pt x="309" y="626" on="1"/>
        <pt x="369" y="626" on="0"/>
        <pt x="461" y="581" on="0"/>
        <pt x="512" y="502" on="0"/>
        <pt x="512" y="453" on="1"/>
        <pt x="512" y="253" on="0"/>
        <pt x="167" y="230" on="1"/>
        <pt x="182" y="153" on="0"/>
        <pt x="279" y="82" on="0"/>
        <pt x="368" y="82" on="1"/>
        <pt x="503" y="82" on="0"/>
        <pt x="673" y="247" on="0"/>
        <pt x="689" y="395" on="1"/>
        <pt x="595" y="395" on="1"/>
        <pt x="595" y="480" on="1"/>
      </contour>
      <contour>
        <pt x="239" y="533" on="0"/>
        <pt x="160" y="415" on="0"/>
        <pt x="160" y="314" on="1"/>
        <pt x="283" y="324" on="0"/>
        <pt x="388" y="395" on="0"/>
        <pt x="388" y="455" on="1"/>
        <pt x="388" y="492" on="0"/>
        <pt x="345" y="533" on="0"/>
        <pt x="305" y="533" on="1"/>
      </contour>
    </TTGlyph>
    <TTGlyph name="anoteleia" xMin="41" yMin="231" xMax="198" yMax="388">
      <component glyphName="periodcentered" x="0" y="0" flags="0x0"/>
    </TTGlyph>
    <TTGlyph name="aogonek" xMin="37" yMin="-251" xMax="505" yMax="543">
      <contour>
        <pt x="358" y="-169" on="0"/>
        <pt x="413" y="-169" on="1"/>
        <pt x="440" y="-169" on="0"/>
        <pt x="474" y="-162" on="1"/>
        <pt x="464" y="-244" on="1"/>
        <pt x="427" y="-251" on="0"/>
        <pt x="398" y="-251" on="1"/>
        <pt x="338" y="-251" on="0"/>
        <pt x="264" y="-191" on="0"/>
        <pt x="264" y="-143" on="1"/>
        <pt x="264" y="-92" on="0"/>
        <pt x="336" y="-18" on="0"/>
        <pt x="407" y="9" on="1"/>
        <pt x="379" y="29" on="0"/>
        <pt x="365" y="65" on="1"/>
        <pt x="314" y="-14" on="0"/>
        <pt x="207" y="-14" on="1"/>
        <pt x="129" y="-14" on="0"/>
        <pt x="37" y="75" on="0"/>
        <pt x="37" y="148" on="1"/>
        <pt x="37" y="233" on="0"/>
        <pt x="161" y="324" on="0"/>
        <pt x="276" y="324" on="1"/>
        <pt x="346" y="324" on="1"/>
        <pt x="346" y="356" on="1"/>
        <pt x="346" y="408" on="0"/>
        <pt x="298" y="451" on="0"/>
        <pt x="244" y="451" on="1"/>
        <pt x="187" y="451" on="0"/>
        <pt x="103" y="423" on="1"/>
        <pt x="75" y="505" on="1"/>
        <pt x="175" y="543" on="0"/>
        <pt x="265" y="543" on="1"/>
        <pt x="464" y="543" on="0"/>
        <pt x="464" y="362" on="1"/>
        <pt x="464" y="136" on="1"/>
        <pt x="464" y="105" on="0"/>
        <pt x="484" y="75" on="0"/>
        <pt x="505" y="68" on="1"/>
        <pt x="479" y="-13" on="1"/>
        <pt x="358" y="-122" on="1"/>
      </contour>
      <contour>
        <pt x="306" y="73" on="0"/>
        <pt x="346" y="142" on="1"/>
        <pt x="346" y="252" on="1"/>
        <pt x="289" y="252" on="1"/>
        <pt x="160" y="252" on="0"/>
        <pt x="160" y="156" on="1"/>
        <pt x="160" y="116" on="0"/>
        <pt x="200" y="73" on="0"/>
        <pt x="239" y="73" on="1"/>
      </contour>
    </TTGlyph>
    <TTGlyph name="aogonek.sc" xMin="-2" yMin="-238" xMax="513" yMax="566">
      <contour>
        <pt x="396" y="-28" on="0"/>
        <pt x="344" y="-81" on="0"/>
        <pt x="344" y="-109" on="1"/>
        <pt x="344" y="-156" on="0"/>
        <pt x="399" y="-156" on="1"/>
        <pt x="426" y="-156" on="0"/>
        <pt x="460" y="-149" on="1"/>
        <pt x="450" y="-231" on="1"/>
        <pt x="415" y="-238" on="0"/>
        <pt x="384" y="-238" on="1"/>
        <pt x="324" y="-238" on="0"/>
        <pt x="250" y="-178" on="0"/>
        <pt x="250" y="-130" on="1"/>
        <pt x="250" y="-81" on="0"/>
        <pt x="316" y="-8" on="0"/>
        <pt x="382" y="18" on="1"/>
        <pt x="351" y="127" on="1"/>
        <pt x="157" y="127" on="1"/>
        <pt x="121" y="0" on="1"/>
        <pt x="-2" y="0" on="1"/>
        <pt x="183" y="566" on="1"/>
        <pt x="329" y="566" on="1"/>
        <pt x="513" y="0" on="1"/>
        <pt x="465" y="0" on="1"/>
      </contour>
      <contour>
        <pt x="327" y="216" on="1"/>
        <pt x="254" y="477" on="1"/>
        <pt x="181" y="216" on="1"/>
      </contour>
    </TTGlyph>
    <TTGlyph name="approxequal" xMin="55" yMin="147" xMax="500" yMax="498">
      <contour>
        <pt x="322" y="345" on="0"/>
        <pt x="276" y="365" on="0"/>
        <pt x="249" y="384" on="1"/>
        <pt x="229" y="397" on="0"/>
        <pt x="208" y="407" on="0"/>
        <pt x="196" y="407" on="1"/>
        <pt x="172" y="407" on="0"/>
        <pt x="138" y="378" on="0"/>
        <pt x="123" y="354" on="1"/>
        <pt x="55" y="388" on="1"/>
        <pt x="110" y="498" on="0"/>
        <pt x="202" y="498" on="1"/>
        <pt x="233" y="498" on="0"/>
        <pt x="280" y="478" on="0"/>
        <pt x="307" y="460" on="1"/>
        <pt x="327" y="448" on="0"/>
        <pt x="348" y="437" on="0"/>
        <pt x="361" y="437" on="1"/>
        <pt x="385" y="437" on="0"/>
        <pt x="418" y="462" on="0"/>
        <pt x="433" y="485" on="1"/>
        <pt x="500" y="451" on="1"/>
        <pt x="447" y="345" on="0"/>
        <pt x="355" y="345" on="1"/>
      </contour>
      <contour>
        <pt x="322" y="147" on="0"/>
        <pt x="276" y="167" on="0"/>
        <pt x="249" y="186" on="1"/>
        <pt x="229" y="199" on="0"/>
        <pt x="208" y="209" on="0"/>
        <pt x="196" y="209" on="1"/>
        <pt x="172" y="209" on="0"/>
        <pt x="138" y="180" on="0"/>
        <pt x="123" y="156" on="1"/>
        <pt x="55" y="190" on="1"/>
        <pt x="110" y="300" on="0"/>
        <pt x="202" y="300" on="1"/>
        <pt x="233" y="300" on="0"/>
        <pt x="280" y="280" on="0"/>
        <pt x="307" y="262" on="1"/>
        <pt x="327" y="250" on="0"/>
        <pt x="348" y="239" on="0"/>
        <pt x="361" y="239" on="1"/>
        <pt x="385" y="239" on="0"/>
        <pt x="418" y="264" on="0"/>
        <pt x="433" y="287" on="1"/>
        <pt x="500" y="253" on="1"/>
        <pt x="447" y="147" on="0"/>
        <pt x="355" y="147" on="1"/>
      </contour>
    </TTGlyph>
    <TTGlyph name="approxequal.lf" xMin="27" yMin="147" xMax="472" yMax="300">
      <component glyphName="asciitilde.lf" x="0" y="-95" flags="0x0"/>
      <component glyphName="asciitilde.lf" x="0" y="103" flags="0x0"/>
    </TTGlyph>
    <TTGlyph name="approxequal.osf" xMin="27" yMin="147" xMax="472" yMax="498">
      <contour>
        <pt x="294" y="345" on="0"/>
        <pt x="248" y="365" on="0"/>
        <pt x="221" y="384" on="1"/>
        <pt x="201" y="397" on="0"/>
        <pt x="180" y="407" on="0"/>
        <pt x="168" y="407" on="1"/>
        <pt x="144" y="407" on="0"/>
        <pt x="110" y="378" on="0"/>
        <pt x="95" y="354" on="1"/>
        <pt x="27" y="388" on="1"/>
        <pt x="82" y="498" on="0"/>
        <pt x="174" y="498" on="1"/>
        <pt x="205" y="498" on="0"/>
        <pt x="252" y="478" on="0"/>
        <pt x="279" y="460" on="1"/>
        <pt x="299" y="448" on="0"/>
        <pt x="320" y="437" on="0"/>
        <pt x="333" y="437" on="1"/>
        <pt x="357" y="437" on="0"/>
        <pt x="390" y="462" on="0"/>
        <pt x="405" y="485" on="1"/>
        <pt x="472" y="451" on="1"/>
        <pt x="419" y="345" on="0"/>
        <pt x="327" y="345" on="1"/>
      </contour>
      <contour>
        <pt x="294" y="147" on="0"/>
        <pt x="248" y="167" on="0"/>
        <pt x="221" y="186" on="1"/>
        <pt x="201" y="199" on="0"/>
        <pt x="180" y="209" on="0"/>
        <pt x="168" y="209" on="1"/>
        <pt x="144" y="209" on="0"/>
        <pt x="110" y="180" on="0"/>
        <pt x="95" y="156" on="1"/>
        <pt x="27" y="190" on="1"/>
        <pt x="82" y="300" on="0"/>
        <pt x="174" y="300" on="1"/>
        <pt x="205" y="300" on="0"/>
        <pt x="252" y="280" on="0"/>
        <pt x="279" y="262" on="1"/>
        <pt x="299" y="250" on="0"/>
        <pt x="320" y="239" on="0"/>
        <pt x="333" y="239" on="1"/>
        <pt x="357" y="239" on="0"/>
        <pt x="390" y="264" on="0"/>
        <pt x="405" y="287" on="1"/>
        <pt x="472" y="253" on="1"/>
        <pt x="419" y="147" on="0"/>
        <pt x="327" y="147" on="1"/>
      </contour>
    </TTGlyph>
    <TTGlyph name="approxequal.tosf" xMin="57" yMin="147" xMax="502" yMax="498">
      <contour>
        <pt x="324" y="345" on="0"/>
        <pt x="278" y="365" on="0"/>
        <pt x="251" y="384" on="1"/>
        <pt x="231" y="397" on="0"/>
        <pt x="210" y="407" on="0"/>
        <pt x="198" y="407" on="1"/>
        <pt x="174" y="407" on="0"/>
        <pt x="140" y="378" on="0"/>
        <pt x="125" y="354" on="1"/>
        <pt x="57" y="388" on="1"/>
        <pt x="112" y="498" on="0"/>
        <pt x="204" y="498" on="1"/>
        <pt x="235" y="498" on="0"/>
        <pt x="282" y="478" on="0"/>
        <pt x="309" y="460" on="1"/>
        <pt x="329" y="448" on="0"/>
        <pt x="350" y="437" on="0"/>
        <pt x="363" y="437" on="1"/>
        <pt x="387" y="437" on="0"/>
        <pt x="420" y="462" on="0"/>
        <pt x="435" y="485" on="1"/>
        <pt x="502" y="451" on="1"/>
        <pt x="449" y="345" on="0"/>
        <pt x="357" y="345" on="1"/>
      </contour>
      <contour>
        <pt x="324" y="147" on="0"/>
        <pt x="278" y="167" on="0"/>
        <pt x="251" y="186" on="1"/>
        <pt x="231" y="199" on="0"/>
        <pt x="210" y="209" on="0"/>
        <pt x="198" y="209" on="1"/>
        <pt x="174" y="209" on="0"/>
        <pt x="140" y="180" on="0"/>
        <pt x="125" y="156" on="1"/>
        <pt x="57" y="190" on="1"/>
        <pt x="112" y="300" on="0"/>
        <pt x="204" y="300" on="1"/>
        <pt x="235" y="300" on="0"/>
        <pt x="282" y="280" on="0"/>
        <pt x="309" y="262" on="1"/>
        <pt x="329" y="250" on="0"/>
        <pt x="350" y="239" on="0"/>
        <pt x="363" y="239" on="1"/>
        <pt x="387" y="239" on="0"/>
        <pt x="420" y="264" on="0"/>
        <pt x="435" y="287" on="1"/>
        <pt x="502" y="253" on="1"/>
        <pt x="449" y="147" on="0"/>
        <pt x="357" y="147" on="1"/>
      </contour>
    </TTGlyph>
    <TTGlyph name="aring" xMin="37" yMin="-14" xMax="505" yMax="849">
      <component glyphName="a" x="0" y="0" flags="0x0"/>
      <component glyphName="uni030A" x="420" y="0" flags="0x0"/>
    </TTGlyph>
    <TTGlyph name="aring.sc" xMin="-2" yMin="0" xMax="513" yMax="879">
      <component glyphName="a.sc" x="0" y="0" flags="0x0"/>
      <component glyphName="uni030A.sc" x="101" y="0" flags="0x0"/>
    </TTGlyph>
    <TTGlyph name="aringacute" xMin="37" yMin="-14" xMax="505" yMax="996">
      <contour>
        <pt x="170" y="819" on="1"/>
        <pt x="139" y="882" on="1"/>
        <pt x="347" y="996" on="1"/>
        <pt x="396" y="902" on="1"/>
      </contour>
      <contour>
        <pt x="141" y="747" on="0"/>
        <pt x="211" y="814" on="0"/>
        <pt x="266" y="814" on="1"/>
        <pt x="321" y="814" on="0"/>
        <pt x="390" y="747" on="0"/>
        <pt x="390" y="698" on="1"/>
        <pt x="390" y="649" on="0"/>
        <pt x="320" y="581" on="0"/>
        <pt x="266" y="581" on="1"/>
        <pt x="211" y="581" on="0"/>
        <pt x="141" y="649" on="0"/>
        <pt x="141" y="698" on="1"/>
      </contour>
      <contour>
        <pt x="315" y="723" on="0"/>
        <pt x="289" y="751" on="0"/>
        <pt x="266" y="751" on="1"/>
        <pt x="243" y="751" on="0"/>
        <pt x="216" y="723" on="0"/>
        <pt x="216" y="698" on="1"/>
        <pt x="216" y="672" on="0"/>
        <pt x="242" y="644" on="0"/>
        <pt x="266" y="644" on="1"/>
        <pt x="288" y="644" on="0"/>
        <pt x="315" y="672" on="0"/>
        <pt x="315" y="698" on="1"/>
      </contour>
      <contour>
        <pt x="464" y="105" on="0"/>
        <pt x="484" y="75" on="0"/>
        <pt x="505" y="68" on="1"/>
        <pt x="479" y="-13" on="1"/>
        <pt x="434" y="-8" on="0"/>
        <pt x="379" y="27" on="0"/>
        <pt x="365" y="65" on="1"/>
        <pt x="314" y="-14" on="0"/>
        <pt x="207" y="-14" on="1"/>
        <pt x="129" y="-14" on="0"/>
        <pt x="37" y="75" on="0"/>
        <pt x="37" y="148" on="1"/>
        <pt x="37" y="233" on="0"/>
        <pt x="161" y="324" on="0"/>
        <pt x="276" y="324" on="1"/>
        <pt x="346" y="324" on="1"/>
        <pt x="346" y="356" on="1"/>
        <pt x="346" y="408" on="0"/>
        <pt x="298" y="451" on="0"/>
        <pt x="244" y="451" on="1"/>
        <pt x="187" y="451" on="0"/>
        <pt x="103" y="423" on="1"/>
        <pt x="75" y="505" on="1"/>
        <pt x="175" y="543" on="0"/>
        <pt x="265" y="543" on="1"/>
        <pt x="464" y="543" on="0"/>
        <pt x="464" y="362" on="1"/>
        <pt x="464" y="136" on="1"/>
      </contour>
      <contour>
        <pt x="306" y="73" on="0"/>
        <pt x="346" y="142" on="1"/>
        <pt x="346" y="252" on="1"/>
        <pt x="289" y="252" on="1"/>
        <pt x="160" y="252" on="0"/>
        <pt x="160" y="156" on="1"/>
        <pt x="160" y="116" on="0"/>
        <pt x="200" y="73" on="0"/>
        <pt x="239" y="73" on="1"/>
      </contour>
    </TTGlyph>
    <TTGlyph name="aringacute.sc" xMin="-2" yMin="0" xMax="513" yMax="1016">
      <contour>
        <pt x="160" y="839" on="1"/>
        <pt x="129" y="902" on="1"/>
        <pt x="337" y="1016" on="1"/>
        <pt x="386" y="922" on="1"/>
      </contour>
      <contour>
        <pt x="131" y="767" on="0"/>
        <pt x="201" y="834" on="0"/>
        <pt x="256" y="834" on="1"/>
        <pt x="311" y="834" on="0"/>
        <pt x="380" y="767" on="0"/>
        <pt x="380" y="718" on="1"/>
        <pt x="380" y="669" on="0"/>
        <pt x="310" y="601" on="0"/>
        <pt x="256" y="601" on="1"/>
        <pt x="201" y="601" on="0"/>
        <pt x="131" y="669" on="0"/>
        <pt x="131" y="718" on="1"/>
      </contour>
      <contour>
        <pt x="305" y="743" on="0"/>
        <pt x="279" y="771" on="0"/>
        <pt x="256" y="771" on="1"/>
        <pt x="233" y="771" on="0"/>
        <pt x="206" y="743" on="0"/>
        <pt x="206" y="718" on="1"/>
        <pt x="206" y="692" on="0"/>
        <pt x="232" y="664" on="0"/>
        <pt x="256" y="664" on="1"/>
        <pt x="278" y="664" on="0"/>
        <pt x="305" y="692" on="0"/>
        <pt x="305" y="718" on="1"/>
      </contour>
      <contour>
        <pt x="351" y="127" on="1"/>
        <pt x="157" y="127" on="1"/>
        <pt x="121" y="0" on="1"/>
        <pt x="-2" y="0" on="1"/>
        <pt x="183" y="566" on="1"/>
        <pt x="329" y="566" on="1"/>
        <pt x="513" y="0" on="1"/>
        <pt x="387" y="0" on="1"/>
      </contour>
      <contour>
        <pt x="327" y="216" on="1"/>
        <pt x="254" y="477" on="1"/>
        <pt x="181" y="216" on="1"/>
      </contour>
    </TTGlyph>
    <TTGlyph name="arrowboth" xMin="97" yMin="10" xMax="1183" yMax="648">
      <contour>
        <pt x="1183" y="329" on="1"/>
        <pt x="896" y="10" on="1"/>
        <pt x="814" y="80" on="1"/>
        <pt x="931" y="208" on="1"/>
        <pt x="973" y="254" on="0"/>
        <pt x="1013" y="279" on="1"/>
        <pt x="267" y="279" on="1"/>
        <pt x="307" y="254" on="0"/>
        <pt x="349" y="208" on="1"/>
        <pt x="466" y="80" on="1"/>
        <pt x="384" y="10" on="1"/>
        <pt x="97" y="329" on="1"/>
        <pt x="384" y="648" on="1"/>
        <pt x="466" y="578" on="1"/>
        <pt x="349" y="450" on="1"/>
        <pt x="324" y="422" on="0"/>
        <pt x="292" y="394" on="0"/>
        <pt x="267" y="379" on="1"/>
        <pt x="1013" y="379" on="1"/>
        <pt x="988" y="394" on="0"/>
        <pt x="956" y="422" on="0"/>
        <pt x="931" y="450" on="1"/>
        <pt x="814" y="578" on="1"/>
        <pt x="896" y="648" on="1"/>
      </contour>
    </TTGlyph>
    <TTGlyph name="arrowdown" xMin="126" yMin="-42" xMax="774" yMax="643">
      <contour>
        <pt x="507" y="120" on="1"/>
        <pt x="519" y="145" on="0"/>
        <pt x="549" y="181" on="0"/>
        <pt x="574" y="204" on="1"/>
        <pt x="705" y="325" on="1"/>
        <pt x="774" y="250" on="1"/>
        <pt x="450" y="-42" on="1"/>
        <pt x="126" y="250" on="1"/>
        <pt x="195" y="325" on="1"/>
        <pt x="326" y="204" on="1"/>
        <pt x="351" y="181" on="0"/>
        <pt x="381" y="145" on="0"/>
        <pt x="393" y="120" on="1"/>
        <pt x="393" y="643" on="1"/>
        <pt x="507" y="643" on="1"/>
      </contour>
    </TTGlyph>
    <TTGlyph name="arrowleft" xMin="97" yMin="10" xMax="790" yMax="648">
      <contour>
        <pt x="466" y="578" on="1"/>
        <pt x="349" y="450" on="1"/>
        <pt x="324" y="422" on="0"/>
        <pt x="292" y="394" on="0"/>
        <pt x="267" y="379" on="1"/>
        <pt x="790" y="379" on="1"/>
        <pt x="790" y="279" on="1"/>
        <pt x="267" y="279" on="1"/>
        <pt x="307" y="254" on="0"/>
        <pt x="349" y="208" on="1"/>
        <pt x="466" y="80" on="1"/>
        <pt x="384" y="10" on="1"/>
        <pt x="97" y="329" on="1"/>
        <pt x="384" y="648" on="1"/>
      </contour>
    </TTGlyph>
    <TTGlyph name="arrowright" xMin="110" yMin="10" xMax="803" yMax="648">
      <component glyphName="arrowleft" x="900" y="0" scalex="-1.0" scaley="1.0" flags="0x0"/>
    </TTGlyph>
    <TTGlyph name="arrowup" xMin="126" yMin="0" xMax="774" yMax="685">
      <component glyphName="arrowdown" x="900" y="643" scale="-1.0" flags="0x0"/>
    </TTGlyph>
    <TTGlyph name="arrowupdn" xMin="126" yMin="-203" xMax="774" yMax="877">
      <contour>
        <pt x="774" y="585" on="1"/>
        <pt x="705" y="511" on="1"/>
        <pt x="574" y="632" on="1"/>
        <pt x="549" y="654" on="0"/>
        <pt x="519" y="690" on="0"/>
        <pt x="507" y="715" on="1"/>
        <pt x="507" y="-41" on="1"/>
        <pt x="519" y="-16" on="0"/>
        <pt x="549" y="20" on="0"/>
        <pt x="574" y="42" on="1"/>
        <pt x="705" y="163" on="1"/>
        <pt x="774" y="89" on="1"/>
        <pt x="450" y="-203" on="1"/>
        <pt x="126" y="89" on="1"/>
        <pt x="195" y="163" on="1"/>
        <pt x="326" y="42" on="1"/>
        <pt x="351" y="20" on="0"/>
        <pt x="381" y="-16" on="0"/>
        <pt x="393" y="-41" on="1"/>
        <pt x="393" y="715" on="1"/>
        <pt x="381" y="690" on="0"/>
        <pt x="351" y="654" on="0"/>
        <pt x="326" y="632" on="1"/>
        <pt x="195" y="511" on="1"/>
        <pt x="126" y="585" on="1"/>
        <pt x="450" y="877" on="1"/>
      </contour>
    </TTGlyph>
    <TTGlyph name="asciicircum" xMin="31" yMin="527" xMax="517" yMax="842">
      <contour>
        <pt x="517" y="527" on="1"/>
        <pt x="395" y="527" on="1"/>
        <pt x="273" y="745" on="1"/>
        <pt x="153" y="527" on="1"/>
        <pt x="31" y="527" on="1"/>
        <pt x="220" y="842" on="1"/>
        <pt x="328" y="842" on="1"/>
      </contour>
    </TTGlyph>
    <TTGlyph name="asciitilde" xMin="55" yMin="242" xMax="500" yMax="395">
      <component glyphName="asciitilde.lf" x="28" y="0" flags="0x0"/>
    </TTGlyph>
    <TTGlyph name="asciitilde.lf" xMin="27" yMin="242" xMax="472" yMax="395">
      <contour>
        <pt x="294" y="242" on="0"/>
        <pt x="248" y="262" on="0"/>
        <pt x="221" y="281" on="1"/>
        <pt x="201" y="294" on="0"/>
        <pt x="180" y="304" on="0"/>
        <pt x="168" y="304" on="1"/>
        <pt x="144" y="304" on="0"/>
        <pt x="110" y="275" on="0"/>
        <pt x="95" y="251" on="1"/>
        <pt x="27" y="285" on="1"/>
        <pt x="82" y="395" on="0"/>
        <pt x="174" y="395" on="1"/>
        <pt x="205" y="395" on="0"/>
        <pt x="252" y="375" on="0"/>
        <pt x="279" y="357" on="1"/>
        <pt x="299" y="345" on="0"/>
        <pt x="320" y="334" on="0"/>
        <pt x="333" y="334" on="1"/>
        <pt x="357" y="334" on="0"/>
        <pt x="390" y="359" on="0"/>
        <pt x="405" y="382" on="1"/>
        <pt x="472" y="348" on="1"/>
        <pt x="419" y="242" on="0"/>
        <pt x="327" y="242" on="1"/>
      </contour>
    </TTGlyph>
    <TTGlyph name="asciitilde.osf" xMin="27" yMin="242" xMax="472" yMax="395">
      <component glyphName="asciitilde.lf" x="0" y="0" flags="0x0"/>
    </TTGlyph>
    <TTGlyph name="asciitilde.tosf" xMin="57" yMin="242" xMax="502" yMax="395">
      <component glyphName="asciitilde.lf" x="30" y="0" flags="0x0"/>
    </TTGlyph>
    <TTGlyph name="asterisk" xMin="15" yMin="346" xMax="429" yMax="740">
      <contour>
        <pt x="280" y="521" on="1"/>
        <pt x="383" y="411" on="1"/>
        <pt x="295" y="347" on="1"/>
        <pt x="221" y="478" on="1"/>
        <pt x="149" y="346" on="1"/>
        <pt x="61" y="410" on="1"/>
        <pt x="162" y="521" on="1"/>
        <pt x="15" y="550" on="1"/>
        <pt x="48" y="651" on="1"/>
        <pt x="184" y="589" on="1"/>
        <pt x="167" y="740" on="1"/>
        <pt x="276" y="740" on="1"/>
        <pt x="259" y="588" on="1"/>
        <pt x="394" y="652" on="1"/>
        <pt x="429" y="550" on="1"/>
      </contour>
    </TTGlyph>
    <TTGlyph name="at" xMin="61" yMin="-217" xMax="959" yMax="705">
      <contour>
        <pt x="661" y="705" on="0"/>
        <pt x="857" y="597" on="0"/>
        <pt x="959" y="417" on="0"/>
        <pt x="959" y="311" on="1"/>
        <pt x="959" y="224" on="0"/>
        <pt x="911" y="86" on="0"/>
        <pt x="818" y="7" on="0"/>
        <pt x="753" y="7" on="1"/>
        <pt x="697" y="7" on="0"/>
        <pt x="632" y="68" on="0"/>
        <pt x="623" y="109" on="1"/>
        <pt x="604" y="65" on="0"/>
        <pt x="533" y="10" on="0"/>
        <pt x="479" y="10" on="1"/>
        <pt x="395" y="10" on="0"/>
        <pt x="302" y="131" on="0"/>
        <pt x="302" y="232" on="1"/>
        <pt x="302" y="357" on="0"/>
        <pt x="424" y="496" on="0"/>
        <pt x="527" y="496" on="1"/>
        <pt x="613" y="496" on="0"/>
        <pt x="690" y="454" on="1"/>
        <pt x="690" y="201" on="1"/>
        <pt x="690" y="139" on="0"/>
        <pt x="718" y="90" on="0"/>
        <pt x="749" y="90" on="1"/>
        <pt x="796" y="90" on="0"/>
        <pt x="846" y="194" on="0"/>
        <pt x="846" y="309" on="1"/>
        <pt x="846" y="451" on="0"/>
        <pt x="683" y="612" on="0"/>
        <pt x="526" y="612" on="1"/>
        <pt x="418" y="612" on="0"/>
        <pt x="259" y="517" on="0"/>
        <pt x="175" y="349" on="0"/>
        <pt x="175" y="241" on="1"/>
        <pt x="175" y="131" on="0"/>
        <pt x="257" y="-33" on="0"/>
        <pt x="415" y="-124" on="0"/>
        <pt x="527" y="-124" on="1"/>
        <pt x="622" y="-124" on="0"/>
        <pt x="720" y="-89" on="1"/>
        <pt x="751" y="-176" on="1"/>
        <pt x="640" y="-217" on="0"/>
        <pt x="526" y="-217" on="1"/>
        <pt x="388" y="-217" on="0"/>
        <pt x="177" y="-105" on="0"/>
        <pt x="61" y="103" on="0"/>
        <pt x="61" y="241" on="1"/>
        <pt x="61" y="373" on="0"/>
        <pt x="179" y="584" on="0"/>
        <pt x="391" y="705" on="0"/>
        <pt x="526" y="705" on="1"/>
      </contour>
      <contour>
        <pt x="556" y="90" on="0"/>
        <pt x="586" y="161" on="1"/>
        <pt x="586" y="404" on="1"/>
        <pt x="559" y="416" on="0"/>
        <pt x="526" y="416" on="1"/>
        <pt x="414" y="416" on="0"/>
        <pt x="414" y="232" on="1"/>
        <pt x="414" y="90" on="0"/>
        <pt x="494" y="90" on="1"/>
      </contour>
    </TTGlyph>
    <TTGlyph name="atilde" xMin="37" yMin="-14" xMax="505" yMax="782">
      <component glyphName="a" x="0" y="0" flags="0x0"/>
      <component glyphName="tildecomb" x="471" y="0" flags="0x0"/>
    </TTGlyph>
    <TTGlyph name="atilde.sc" xMin="-2" yMin="0" xMax="513" yMax="812">
      <component glyphName="a.sc" x="0" y="0" flags="0x0"/>
      <component glyphName="tildecomb.sc" x="50" y="0" flags="0x0"/>
    </TTGlyph>
    <TTGlyph name="b" xMin="81" yMin="-14" xMax="544" yMax="754">
      <contour>
        <pt x="439" y="543" on="0"/>
        <pt x="544" y="397" on="0"/>
        <pt x="544" y="265" on="1"/>
        <pt x="544" y="183" on="0"/>
        <pt x="493" y="56" on="0"/>
        <pt x="399" y="-14" on="0"/>
        <pt x="335" y="-14" on="1"/>
        <pt x="251" y="-14" on="0"/>
        <pt x="195" y="55" on="1"/>
        <pt x="187" y="0" on="1"/>
        <pt x="81" y="0" on="1"/>
        <pt x="81" y="740" on="1"/>
        <pt x="201" y="754" on="1"/>
        <pt x="201" y="468" on="1"/>
        <pt x="227" y="503" on="0"/>
        <pt x="302" y="543" on="0"/>
        <pt x="346" y="543" on="1"/>
      </contour>
      <contour>
        <pt x="357" y="77" on="0"/>
        <pt x="417" y="167" on="0"/>
        <pt x="417" y="265" on="1"/>
        <pt x="417" y="367" on="0"/>
        <pt x="362" y="452" on="0"/>
        <pt x="310" y="452" on="1"/>
        <pt x="246" y="452" on="0"/>
        <pt x="201" y="378" on="1"/>
        <pt x="201" y="139" on="1"/>
        <pt x="219" y="110" on="0"/>
        <pt x="272" y="77" on="0"/>
        <pt x="304" y="77" on="1"/>
      </contour>
    </TTGlyph>
    <TTGlyph name="b.sc" xMin="85" yMin="0" xMax="520" yMax="566">
      <contour>
        <pt x="520" y="275" on="0"/>
        <pt x="520" y="164" on="1"/>
        <pt x="520" y="75" on="0"/>
        <pt x="387" y="0" on="0"/>
        <pt x="268" y="0" on="1"/>
        <pt x="85" y="0" on="1"/>
        <pt x="85" y="566" on="1"/>
        <pt x="244" y="566" on="1"/>
        <pt x="366" y="566" on="0"/>
        <pt x="494" y="496" on="0"/>
        <pt x="494" y="419" on="1"/>
        <pt x="494" y="368" on="0"/>
        <pt x="434" y="313" on="0"/>
        <pt x="385" y="300" on="1"/>
      </contour>
      <contour>
        <pt x="205" y="479" on="1"/>
        <pt x="205" y="337" on="1"/>
        <pt x="271" y="337" on="1"/>
        <pt x="319" y="337" on="0"/>
        <pt x="373" y="374" on="0"/>
        <pt x="373" y="410" on="1"/>
        <pt x="373" y="448" on="0"/>
        <pt x="316" y="479" on="0"/>
        <pt x="256" y="479" on="1"/>
      </contour>
      <contour>
        <pt x="331" y="88" on="0"/>
        <pt x="395" y="123" on="0"/>
        <pt x="395" y="170" on="1"/>
        <pt x="395" y="255" on="0"/>
        <pt x="280" y="255" on="1"/>
        <pt x="205" y="255" on="1"/>
        <pt x="205" y="88" on="1"/>
        <pt x="269" y="88" on="1"/>
      </contour>
    </TTGlyph>
    <TTGlyph name="backslash" xMin="92" yMin="-107" xMax="428" yMax="811">
      <contour>
        <pt x="428" y="-83" on="1"/>
        <pt x="324" y="-107" on="1"/>
        <pt x="92" y="787" on="1"/>
        <pt x="195" y="811" on="1"/>
      </contour>
    </TTGlyph>
    <TTGlyph name="bar" xMin="141" yMin="-103" xMax="251" yMax="808">
      <contour>
        <pt x="251" y="-103" on="1"/>
        <pt x="141" y="-103" on="1"/>
        <pt x="141" y="808" on="1"/>
        <pt x="251" y="808" on="1"/>
      </contour>
    </TTGlyph>
    <TTGlyph name="beta" xMin="81" yMin="-217" xMax="567" yMax="754">
      <contour>
        <pt x="567" y="383" on="0"/>
        <pt x="567" y="205" on="1"/>
        <pt x="567" y="140" on="0"/>
        <pt x="508" y="40" on="0"/>
        <pt x="404" y="-14" on="0"/>
        <pt x="341" y="-14" on="1"/>
        <pt x="265" y="-14" on="0"/>
        <pt x="199" y="35" on="1"/>
        <pt x="199" y="-201" on="1"/>
        <pt x="81" y="-217" on="1"/>
        <pt x="81" y="543" on="1"/>
        <pt x="81" y="642" on="0"/>
        <pt x="199" y="754" on="0"/>
        <pt x="299" y="754" on="1"/>
        <pt x="361" y="754" on="0"/>
        <pt x="458" y="708" on="0"/>
        <pt x="512" y="624" on="0"/>
        <pt x="512" y="569" on="1"/>
        <pt x="512" y="500" on="0"/>
        <pt x="434" y="417" on="0"/>
        <pt x="368" y="405" on="1"/>
      </contour>
      <contour>
        <pt x="373" y="80" on="0"/>
        <pt x="446" y="147" on="0"/>
        <pt x="446" y="211" on="1"/>
        <pt x="446" y="284" on="0"/>
        <pt x="366" y="355" on="0"/>
        <pt x="292" y="355" on="1"/>
        <pt x="245" y="355" on="1"/>
        <pt x="255" y="441" on="1"/>
        <pt x="294" y="441" on="1"/>
        <pt x="341" y="441" on="0"/>
        <pt x="398" y="500" on="0"/>
        <pt x="398" y="559" on="1"/>
        <pt x="398" y="612" on="0"/>
        <pt x="344" y="665" on="0"/>
        <pt x="299" y="665" on="1"/>
        <pt x="199" y="665" on="0"/>
        <pt x="199" y="544" on="1"/>
        <pt x="199" y="116" on="1"/>
        <pt x="246" y="80" on="0"/>
        <pt x="319" y="80" on="1"/>
      </contour>
    </TTGlyph>
    <TTGlyph name="beta.sc" xMin="85" yMin="0" xMax="520" yMax="566">
      <component glyphName="b.sc" x="0" y="0" flags="0x0"/>
    </TTGlyph>
    <TTGlyph name="braceleft" xMin="18" yMin="-138" xMax="286" yMax="838">
      <contour>
        <pt x="286" y="750" on="1"/>
        <pt x="238" y="750" on="0"/>
        <pt x="199" y="721" on="0"/>
        <pt x="199" y="686" on="1"/>
        <pt x="199" y="469" on="1"/>
        <pt x="199" y="413" on="0"/>
        <pt x="157" y="362" on="0"/>
        <pt x="112" y="349" on="1"/>
        <pt x="157" y="337" on="0"/>
        <pt x="199" y="286" on="0"/>
        <pt x="199" y="231" on="1"/>
        <pt x="199" y="14" on="1"/>
        <pt x="199" y="-21" on="0"/>
        <pt x="238" y="-50" on="0"/>
        <pt x="286" y="-50" on="1"/>
        <pt x="286" y="-138" on="1"/>
        <pt x="210" y="-138" on="0"/>
        <pt x="123" y="-105" on="0"/>
        <pt x="86" y="-37" on="0"/>
        <pt x="86" y="18" on="1"/>
        <pt x="86" y="222" on="1"/>
        <pt x="86" y="265" on="0"/>
        <pt x="57" y="300" on="0"/>
        <pt x="18" y="300" on="1"/>
        <pt x="18" y="399" on="1"/>
        <pt x="57" y="399" on="0"/>
        <pt x="86" y="435" on="0"/>
        <pt x="86" y="478" on="1"/>
        <pt x="86" y="682" on="1"/>
        <pt x="86" y="737" on="0"/>
        <pt x="123" y="805" on="0"/>
        <pt x="210" y="838" on="0"/>
        <pt x="286" y="838" on="1"/>
      </contour>
    </TTGlyph>
    <TTGlyph name="braceleft.case" xMin="18" yMin="-148" xMax="286" yMax="828">
      <component glyphName="braceleft" x="0" y="-10" flags="0x0"/>
    </TTGlyph>
    <TTGlyph name="braceright" xMin="37" yMin="-138" xMax="304" yMax="838">
      <contour>
        <pt x="113" y="838" on="0"/>
        <pt x="200" y="805" on="0"/>
        <pt x="237" y="737" on="0"/>
        <pt x="237" y="682" on="1"/>
        <pt x="237" y="478" on="1"/>
        <pt x="237" y="435" on="0"/>
        <pt x="266" y="399" on="0"/>
        <pt x="304" y="399" on="1"/>
        <pt x="304" y="300" on="1"/>
        <pt x="266" y="300" on="0"/>
        <pt x="237" y="265" on="0"/>
        <pt x="237" y="222" on="1"/>
        <pt x="237" y="18" on="1"/>
        <pt x="237" y="-37" on="0"/>
        <pt x="200" y="-105" on="0"/>
        <pt x="113" y="-138" on="0"/>
        <pt x="37" y="-138" on="1"/>
        <pt x="37" y="-50" on="1"/>
        <pt x="85" y="-50" on="0"/>
        <pt x="124" y="-21" on="0"/>
        <pt x="124" y="14" on="1"/>
        <pt x="124" y="231" on="1"/>
        <pt x="124" y="286" on="0"/>
        <pt x="166" y="337" on="0"/>
        <pt x="211" y="349" on="1"/>
        <pt x="166" y="362" on="0"/>
        <pt x="124" y="413" on="0"/>
        <pt x="124" y="469" on="1"/>
        <pt x="124" y="686" on="1"/>
        <pt x="124" y="721" on="0"/>
        <pt x="85" y="750" on="0"/>
        <pt x="37" y="750" on="1"/>
        <pt x="37" y="838" on="1"/>
      </contour>
    </TTGlyph>
    <TTGlyph name="braceright.case" xMin="37" yMin="-148" xMax="304" yMax="828">
      <component glyphName="braceright" x="0" y="-10" flags="0x0"/>
    </TTGlyph>
    <TTGlyph name="bracketleft" xMin="52" yMin="-119" xMax="283" yMax="819">
      <contour>
        <pt x="283" y="724" on="1"/>
        <pt x="165" y="724" on="1"/>
        <pt x="165" y="-25" on="1"/>
        <pt x="283" y="-25" on="1"/>
        <pt x="283" y="-119" on="1"/>
        <pt x="52" y="-119" on="1"/>
        <pt x="52" y="819" on="1"/>
        <pt x="283" y="819" on="1"/>
      </contour>
    </TTGlyph>
    <TTGlyph name="bracketleft.case" xMin="52" yMin="-129" xMax="283" yMax="809">
      <component glyphName="bracketleft" x="0" y="-10" flags="0x0"/>
    </TTGlyph>
    <TTGlyph name="bracketright" xMin="39" yMin="-119" xMax="271" yMax="819">
      <contour>
        <pt x="271" y="-119" on="1"/>
        <pt x="39" y="-119" on="1"/>
        <pt x="39" y="-25" on="1"/>
        <pt x="157" y="-25" on="1"/>
        <pt x="157" y="725" on="1"/>
        <pt x="39" y="725" on="1"/>
        <pt x="39" y="819" on="1"/>
        <pt x="271" y="819" on="1"/>
      </contour>
    </TTGlyph>
    <TTGlyph name="bracketright.case" xMin="39" yMin="-129" xMax="271" yMax="809">
      <component glyphName="bracketright" x="0" y="-10" flags="0x0"/>
    </TTGlyph>
    <TTGlyph name="breve" xMin="30" yMin="639" xMax="351" yMax="802">
      <contour>
        <pt x="122" y="639" on="0"/>
        <pt x="36" y="721" on="0"/>
        <pt x="30" y="788" on="1"/>
        <pt x="102" y="802" on="1"/>
        <pt x="122" y="725" on="0"/>
        <pt x="189" y="725" on="1"/>
        <pt x="257" y="725" on="0"/>
        <pt x="279" y="802" on="1"/>
        <pt x="351" y="788" on="1"/>
        <pt x="345" y="721" on="0"/>
        <pt x="257" y="639" on="0"/>
        <pt x="189" y="639" on="1"/>
      </contour>
    </TTGlyph>
    <TTGlyph name="breve.case" xMin="30" yMin="755" xMax="351" yMax="909">
      <contour>
        <pt x="123" y="755" on="0"/>
        <pt x="36" y="834" on="0"/>
        <pt x="30" y="894" on="1"/>
        <pt x="102" y="909" on="1"/>
        <pt x="112" y="878" on="0"/>
        <pt x="156" y="842" on="0"/>
        <pt x="189" y="842" on="1"/>
        <pt x="223" y="842" on="0"/>
        <pt x="268" y="878" on="0"/>
        <pt x="279" y="909" on="1"/>
        <pt x="351" y="894" on="1"/>
        <pt x="345" y="834" on="0"/>
        <pt x="256" y="755" on="0"/>
        <pt x="189" y="755" on="1"/>
      </contour>
    </TTGlyph>
    <TTGlyph name="breve.sc" xMin="30" yMin="669" xMax="351" yMax="832">
      <component glyphName="uni0306" x="381" y="30" flags="0x0"/>
    </TTGlyph>
    <TTGlyph name="brevecy" xMin="30" yMin="639" xMax="351" yMax="785">
      <contour>
        <pt x="122" y="639" on="0"/>
        <pt x="36" y="710" on="0"/>
        <pt x="30" y="771" on="1"/>
        <pt x="102" y="785" on="1"/>
        <pt x="112" y="753" on="0"/>
        <pt x="154" y="725" on="0"/>
        <pt x="189" y="725" on="1"/>
        <pt x="225" y="725" on="0"/>
        <pt x="269" y="753" on="0"/>
        <pt x="279" y="785" on="1"/>
        <pt x="351" y="771" on="1"/>
        <pt x="345" y="710" on="0"/>
        <pt x="258" y="639" on="0"/>
        <pt x="189" y="639" on="1"/>
      </contour>
    </TTGlyph>
    <TTGlyph name="brevecy.case" xMin="30" yMin="765" xMax="351" yMax="911">
      <contour>
        <pt x="122" y="765" on="0"/>
        <pt x="36" y="836" on="0"/>
        <pt x="30" y="897" on="1"/>
        <pt x="102" y="911" on="1"/>
        <pt x="112" y="879" on="0"/>
        <pt x="154" y="851" on="0"/>
        <pt x="189" y="851" on="1"/>
        <pt x="225" y="851" on="0"/>
        <pt x="269" y="879" on="0"/>
        <pt x="279" y="911" on="1"/>
        <pt x="351" y="897" on="1"/>
        <pt x="345" y="836" on="0"/>
        <pt x="258" y="765" on="0"/>
        <pt x="189" y="765" on="1"/>
      </contour>
    </TTGlyph>
    <TTGlyph name="brevecy.sc" xMin="30" yMin="669" xMax="351" yMax="815">
      <contour>
        <pt x="122" y="669" on="0"/>
        <pt x="36" y="740" on="0"/>
        <pt x="30" y="801" on="1"/>
        <pt x="102" y="815" on="1"/>
        <pt x="112" y="783" on="0"/>
        <pt x="154" y="755" on="0"/>
        <pt x="189" y="755" on="1"/>
        <pt x="225" y="755" on="0"/>
        <pt x="269" y="783" on="0"/>
        <pt x="279" y="815" on="1"/>
        <pt x="351" y="801" on="1"/>
        <pt x="345" y="740" on="0"/>
        <pt x="258" y="669" on="0"/>
        <pt x="189" y="669" on="1"/>
      </contour>
    </TTGlyph>
    <TTGlyph name="brokenbar" xMin="141" yMin="-103" xMax="251" yMax="808">
      <contour>
        <pt x="251" y="443" on="1"/>
        <pt x="141" y="443" on="1"/>
        <pt x="141" y="808" on="1"/>
        <pt x="251" y="808" on="1"/>
      </contour>
      <contour>
        <pt x="251" y="-103" on="1"/>
        <pt x="141" y="-103" on="1"/>
        <pt x="141" y="262" on="1"/>
        <pt x="251" y="262" on="1"/>
      </contour>
    </TTGlyph>
    <TTGlyph name="bullet" xMin="44" yMin="218" xMax="290" yMax="465">
      <contour>
        <pt x="219" y="465" on="0"/>
        <pt x="290" y="394" on="0"/>
        <pt x="290" y="341" on="1"/>
        <pt x="290" y="289" on="0"/>
        <pt x="220" y="218" on="0"/>
        <pt x="167" y="218" on="1"/>
        <pt x="114" y="218" on="0"/>
        <pt x="44" y="289" on="0"/>
        <pt x="44" y="342" on="1"/>
        <pt x="44" y="395" on="0"/>
        <pt x="114" y="465" on="0"/>
        <pt x="167" y="465" on="1"/>
      </contour>
    </TTGlyph>
    <TTGlyph name="c" xMin="46" yMin="-14" xMax="459" yMax="543">
      <contour>
        <pt x="339" y="543" on="0"/>
        <pt x="422" y="513" on="0"/>
        <pt x="459" y="482" on="1"/>
        <pt x="405" y="409" on="1"/>
        <pt x="378" y="429" on="0"/>
        <pt x="327" y="448" on="0"/>
        <pt x="297" y="448" on="1"/>
        <pt x="238" y="448" on="0"/>
        <pt x="174" y="356" on="0"/>
        <pt x="174" y="262" on="1"/>
        <pt x="174" y="84" on="0"/>
        <pt x="296" y="84" on="1"/>
        <pt x="325" y="84" on="0"/>
        <pt x="374" y="102" on="0"/>
        <pt x="405" y="122" on="1"/>
        <pt x="459" y="46" on="1"/>
        <pt x="385" y="-14" on="0"/>
        <pt x="290" y="-14" on="1"/>
        <pt x="215" y="-14" on="0"/>
        <pt x="105" y="52" on="0"/>
        <pt x="46" y="176" on="0"/>
        <pt x="46" y="260" on="1"/>
        <pt x="46" y="344" on="0"/>
        <pt x="105" y="472" on="0"/>
        <pt x="215" y="543" on="0"/>
        <pt x="289" y="543" on="1"/>
      </contour>
    </TTGlyph>
    <TTGlyph name="c.sc" xMin="46" yMin="-13" xMax="493" yMax="577">
      <contour>
        <pt x="364" y="577" on="0"/>
        <pt x="447" y="547" on="0"/>
        <pt x="485" y="516" on="1"/>
        <pt x="425" y="446" on="1"/>
        <pt x="371" y="487" on="0"/>
        <pt x="315" y="487" on="1"/>
        <pt x="249" y="487" on="0"/>
        <pt x="171" y="388" on="0"/>
        <pt x="171" y="285" on="1"/>
        <pt x="171" y="182" on="0"/>
        <pt x="249" y="81" on="0"/>
        <pt x="316" y="81" on="1"/>
        <pt x="350" y="81" on="0"/>
        <pt x="403" y="105" on="0"/>
        <pt x="436" y="129" on="1"/>
        <pt x="493" y="58" on="1"/>
        <pt x="462" y="27" on="0"/>
        <pt x="368" y="-13" on="0"/>
        <pt x="310" y="-13" on="1"/>
        <pt x="231" y="-13" on="0"/>
        <pt x="112" y="56" on="0"/>
        <pt x="46" y="190" on="0"/>
        <pt x="46" y="285" on="1"/>
        <pt x="46" y="376" on="0"/>
        <pt x="114" y="508" on="0"/>
        <pt x="233" y="577" on="0"/>
        <pt x="307" y="577" on="1"/>
      </contour>
    </TTGlyph>
    <TTGlyph name="cacute" xMin="46" yMin="-14" xMax="459" yMax="816">
      <component glyphName="c" x="0" y="0" flags="0x0"/>
      <component glyphName="acutecomb" x="446" y="0" flags="0x0"/>
    </TTGlyph>
    <TTGlyph name="cacute.loclPLK" xMin="46" yMin="-14" xMax="459" yMax="791">
      <component glyphName="c" x="0" y="0" flags="0x0"/>
      <component glyphName="acute.loclPLK" x="132" y="0" flags="0x0"/>
    </TTGlyph>
    <TTGlyph name="cacute.sc" xMin="46" yMin="-13" xMax="493" yMax="846">
      <component glyphName="c.sc" x="0" y="0" flags="0x0"/>
      <component glyphName="acutecomb.sc" x="152" y="0" flags="0x0"/>
    </TTGlyph>
    <TTGlyph name="cacute.sc.loclPLK" xMin="46" yMin="-13" xMax="493" yMax="834">
      <component glyphName="c.sc" x="0" y="0" flags="0x0"/>
      <component glyphName="acute.sc.loclPLK" x="157" y="0" flags="0x0"/>
    </TTGlyph>
    <TTGlyph name="caron" xMin="30" yMin="620" xMax="382" yMax="797">
      <contour>
        <pt x="382" y="743" on="1"/>
        <pt x="244" y="620" on="1"/>
        <pt x="168" y="620" on="1"/>
        <pt x="30" y="743" on="1"/>
        <pt x="77" y="797" on="1"/>
        <pt x="206" y="710" on="1"/>
        <pt x="336" y="797" on="1"/>
      </contour>
    </TTGlyph>
    <TTGlyph name="caron.alt" xMin="65" yMin="493" xMax="184" yMax="703">
      <contour>
        <pt x="184" y="691" on="1"/>
        <pt x="132" y="493" on="1"/>
        <pt x="65" y="503" on="1"/>
        <pt x="86" y="703" on="1"/>
      </contour>
    </TTGlyph>
    <TTGlyph name="caron.case" xMin="30" yMin="752" xMax="382" yMax="924">
      <contour>
        <pt x="382" y="870" on="1"/>
        <pt x="244" y="752" on="1"/>
        <pt x="168" y="752" on="1"/>
        <pt x="30" y="870" on="1"/>
        <pt x="77" y="924" on="1"/>
        <pt x="206" y="841" on="1"/>
        <pt x="336" y="924" on="1"/>
      </contour>
    </TTGlyph>
    <TTGlyph name="caron.sc" xMin="30" yMin="650" xMax="382" yMax="827">
      <component glyphName="uni030C" x="412" y="30" flags="0x0"/>
    </TTGlyph>
    <TTGlyph name="ccaron" xMin="46" yMin="-14" xMax="466" yMax="797">
      <component glyphName="c" x="0" y="0" flags="0x0"/>
      <component glyphName="uni030C" x="496" y="0" flags="0x0"/>
    </TTGlyph>
    <TTGlyph name="ccaron.sc" xMin="46" yMin="-13" xMax="493" yMax="827">
      <component glyphName="c.sc" x="0" y="0" flags="0x0"/>
      <component glyphName="uni030C.sc" x="107" y="0" flags="0x0"/>
    </TTGlyph>
    <TTGlyph name="ccedilla" xMin="46" yMin="-250" xMax="459" yMax="543">
      <contour>
        <pt x="395" y="-6" on="0"/>
        <pt x="315" y="-13" on="1"/>
        <pt x="315" y="-53" on="1"/>
        <pt x="364" y="-57" on="0"/>
        <pt x="413" y="-107" on="0"/>
        <pt x="413" y="-144" on="1"/>
        <pt x="413" y="-193" on="0"/>
        <pt x="338" y="-250" on="0"/>
        <pt x="278" y="-250" on="1"/>
        <pt x="247" y="-250" on="0"/>
        <pt x="195" y="-235" on="0"/>
        <pt x="178" y="-223" on="1"/>
        <pt x="208" y="-162" on="1"/>
        <pt x="237" y="-179" on="0"/>
        <pt x="271" y="-179" on="1"/>
        <pt x="293" y="-179" on="0"/>
        <pt x="320" y="-162" on="0"/>
        <pt x="320" y="-143" on="1"/>
        <pt x="320" y="-123" on="0"/>
        <pt x="277" y="-105" on="0"/>
        <pt x="229" y="-105" on="1"/>
        <pt x="241" y="-10" on="1"/>
        <pt x="149" y="6" on="0"/>
        <pt x="46" y="148" on="0"/>
        <pt x="46" y="260" on="1"/>
        <pt x="46" y="344" on="0"/>
        <pt x="105" y="472" on="0"/>
        <pt x="215" y="543" on="0"/>
        <pt x="289" y="543" on="1"/>
        <pt x="339" y="543" on="0"/>
        <pt x="422" y="513" on="0"/>
        <pt x="459" y="482" on="1"/>
        <pt x="405" y="409" on="1"/>
        <pt x="378" y="429" on="0"/>
        <pt x="327" y="448" on="0"/>
        <pt x="297" y="448" on="1"/>
        <pt x="238" y="448" on="0"/>
        <pt x="174" y="356" on="0"/>
        <pt x="174" y="262" on="1"/>
        <pt x="174" y="84" on="0"/>
        <pt x="296" y="84" on="1"/>
        <pt x="325" y="84" on="0"/>
        <pt x="374" y="102" on="0"/>
        <pt x="405" y="122" on="1"/>
        <pt x="459" y="46" on="1"/>
      </contour>
    </TTGlyph>
    <TTGlyph name="ccedilla.sc" xMin="46" yMin="-250" xMax="493" yMax="577">
      <contour>
        <pt x="466" y="31" on="0"/>
        <pt x="388" y="-7" on="0"/>
        <pt x="339" y="-11" on="1"/>
        <pt x="339" y="-53" on="1"/>
        <pt x="388" y="-57" on="0"/>
        <pt x="437" y="-107" on="0"/>
        <pt x="437" y="-144" on="1"/>
        <pt x="437" y="-193" on="0"/>
        <pt x="362" y="-250" on="0"/>
        <pt x="302" y="-250" on="1"/>
        <pt x="271" y="-250" on="0"/>
        <pt x="219" y="-235" on="0"/>
        <pt x="202" y="-223" on="1"/>
        <pt x="232" y="-162" on="1"/>
        <pt x="261" y="-179" on="0"/>
        <pt x="295" y="-179" on="1"/>
        <pt x="317" y="-179" on="0"/>
        <pt x="344" y="-162" on="0"/>
        <pt x="344" y="-143" on="1"/>
        <pt x="344" y="-123" on="0"/>
        <pt x="301" y="-105" on="0"/>
        <pt x="253" y="-105" on="1"/>
        <pt x="265" y="-10" on="1"/>
        <pt x="164" y="5" on="0"/>
        <pt x="46" y="157" on="0"/>
        <pt x="46" y="285" on="1"/>
        <pt x="46" y="376" on="0"/>
        <pt x="114" y="508" on="0"/>
        <pt x="233" y="577" on="0"/>
        <pt x="307" y="577" on="1"/>
        <pt x="364" y="577" on="0"/>
        <pt x="447" y="547" on="0"/>
        <pt x="485" y="516" on="1"/>
        <pt x="425" y="446" on="1"/>
        <pt x="371" y="487" on="0"/>
        <pt x="315" y="487" on="1"/>
        <pt x="249" y="487" on="0"/>
        <pt x="171" y="388" on="0"/>
        <pt x="171" y="285" on="1"/>
        <pt x="171" y="182" on="0"/>
        <pt x="249" y="81" on="0"/>
        <pt x="316" y="81" on="1"/>
        <pt x="350" y="81" on="0"/>
        <pt x="403" y="105" on="0"/>
        <pt x="436" y="129" on="1"/>
        <pt x="493" y="58" on="1"/>
      </contour>
    </TTGlyph>
    <TTGlyph name="ccircumflex" xMin="46" yMin="-14" xMax="466" yMax="805">
      <component glyphName="c" x="0" y="0" flags="0x0"/>
      <component glyphName="uni0302" x="496" y="0" flags="0x0"/>
    </TTGlyph>
    <TTGlyph name="ccircumflex.sc" xMin="46" yMin="-13" xMax="493" yMax="835">
      <component glyphName="c.sc" x="0" y="0" flags="0x0"/>
      <component glyphName="uni0302.sc" x="107" y="0" flags="0x0"/>
    </TTGlyph>
    <TTGlyph name="cdotaccent" xMin="46" yMin="-14" xMax="459" yMax="793">
      <component glyphName="c" x="0" y="0" flags="0x0"/>
      <component glyphName="uni0307" x="397" y="0" flags="0x0"/>
    </TTGlyph>
    <TTGlyph name="cdotaccent.sc" xMin="46" yMin="-13" xMax="493" yMax="823">
      <component glyphName="c.sc" x="0" y="0" flags="0x0"/>
      <component glyphName="uni0307.sc" x="206" y="0" flags="0x0"/>
    </TTGlyph>
    <TTGlyph name="cedilla" xMin="30" yMin="-250" xMax="265" yMax="16">
      <contour>
        <pt x="167" y="-53" on="1"/>
        <pt x="216" y="-57" on="0"/>
        <pt x="265" y="-107" on="0"/>
        <pt x="265" y="-144" on="1"/>
        <pt x="265" y="-193" on="0"/>
        <pt x="190" y="-250" on="0"/>
        <pt x="130" y="-250" on="1"/>
        <pt x="99" y="-250" on="0"/>
        <pt x="47" y="-235" on="0"/>
        <pt x="30" y="-223" on="1"/>
        <pt x="60" y="-162" on="1"/>
        <pt x="89" y="-179" on="0"/>
        <pt x="123" y="-179" on="1"/>
        <pt x="145" y="-179" on="0"/>
        <pt x="172" y="-162" on="0"/>
        <pt x="172" y="-143" on="1"/>
        <pt x="172" y="-123" on="0"/>
        <pt x="129" y="-105" on="0"/>
        <pt x="81" y="-105" on="1"/>
        <pt x="96" y="16" on="1"/>
        <pt x="167" y="16" on="1"/>
      </contour>
    </TTGlyph>
    <TTGlyph name="cedilla.case" xMin="30" yMin="-250" xMax="265" yMax="16">
      <component glyphName="uni0327" x="295" y="0" flags="0x0"/>
    </TTGlyph>
    <TTGlyph name="cedilla.sc" xMin="30" yMin="-250" xMax="265" yMax="16">
      <component glyphName="uni0327" x="295" y="0" flags="0x0"/>
    </TTGlyph>
    <TTGlyph name="cent" xMin="72" yMin="-157" xMax="485" yMax="687">
      <contour>
        <pt x="485" y="46" on="1"/>
        <pt x="430" y="0" on="0"/>
        <pt x="362" y="-10" on="1"/>
        <pt x="362" y="-157" on="1"/>
        <pt x="267" y="-157" on="1"/>
        <pt x="267" y="-10" on="1"/>
        <pt x="175" y="6" on="0"/>
        <pt x="72" y="148" on="0"/>
        <pt x="72" y="260" on="1"/>
        <pt x="72" y="373" on="0"/>
        <pt x="177" y="523" on="0"/>
        <pt x="268" y="539" on="1"/>
        <pt x="268" y="687" on="1"/>
        <pt x="362" y="687" on="1"/>
        <pt x="362" y="540" on="1"/>
        <pt x="430" y="528" on="0"/>
        <pt x="485" y="482" on="1"/>
        <pt x="431" y="409" on="1"/>
        <pt x="404" y="429" on="0"/>
        <pt x="352" y="448" on="0"/>
        <pt x="323" y="448" on="1"/>
        <pt x="264" y="448" on="0"/>
        <pt x="199" y="356" on="0"/>
        <pt x="199" y="262" on="1"/>
        <pt x="199" y="84" on="0"/>
        <pt x="322" y="84" on="1"/>
        <pt x="351" y="84" on="0"/>
        <pt x="400" y="102" on="0"/>
        <pt x="431" y="122" on="1"/>
      </contour>
    </TTGlyph>
    <TTGlyph name="cent.lf" xMin="46" yMin="-157" xMax="459" yMax="687">
      <contour>
        <pt x="459" y="46" on="1"/>
        <pt x="402" y="0" on="0"/>
        <pt x="336" y="-10" on="1"/>
        <pt x="336" y="-157" on="1"/>
        <pt x="242" y="-157" on="1"/>
        <pt x="242" y="-10" on="1"/>
        <pt x="150" y="5" on="0"/>
        <pt x="46" y="148" on="0"/>
        <pt x="46" y="260" on="1"/>
        <pt x="46" y="373" on="0"/>
        <pt x="151" y="523" on="0"/>
        <pt x="243" y="539" on="1"/>
        <pt x="243" y="687" on="1"/>
        <pt x="336" y="687" on="1"/>
        <pt x="336" y="540" on="1"/>
        <pt x="404" y="528" on="0"/>
        <pt x="459" y="482" on="1"/>
        <pt x="405" y="409" on="1"/>
        <pt x="378" y="429" on="0"/>
        <pt x="327" y="448" on="0"/>
        <pt x="297" y="448" on="1"/>
        <pt x="238" y="448" on="0"/>
        <pt x="174" y="356" on="0"/>
        <pt x="174" y="262" on="1"/>
        <pt x="174" y="84" on="0"/>
        <pt x="296" y="84" on="1"/>
        <pt x="325" y="84" on="0"/>
        <pt x="374" y="102" on="0"/>
        <pt x="405" y="122" on="1"/>
      </contour>
    </TTGlyph>
    <TTGlyph name="cent.osf" xMin="46" yMin="-157" xMax="459" yMax="687">
      <component glyphName="cent.lf" x="0" y="0" flags="0x0"/>
    </TTGlyph>
    <TTGlyph name="cent.tosf" xMin="72" yMin="-157" xMax="485" yMax="687">
      <component glyphName="cent" x="0" y="0" flags="0x0"/>
    </TTGlyph>
    <TTGlyph name="chi" xMin="-12" yMin="-215" xMax="479" yMax="541">
      <contour>
        <pt x="479" y="-198" on="1"/>
        <pt x="359" y="-215" on="1"/>
        <pt x="237" y="87" on="1"/>
        <pt x="113" y="-214" on="1"/>
        <pt x="-8" y="-201" on="1"/>
        <pt x="176" y="185" on="1"/>
        <pt x="115" y="317" on="0"/>
        <pt x="36" y="451" on="0"/>
        <pt x="-12" y="502" on="1"/>
        <pt x="105" y="541" on="1"/>
        <pt x="145" y="490" on="0"/>
        <pt x="204" y="376" on="0"/>
        <pt x="241" y="270" on="1"/>
        <pt x="337" y="541" on="1"/>
        <pt x="461" y="527" on="1"/>
        <pt x="302" y="186" on="1"/>
      </contour>
    </TTGlyph>
    <TTGlyph name="chi.sc" xMin="1" yMin="0" xMax="492" yMax="566">
      <component glyphName="x.sc" x="0" y="0" flags="0x0"/>
    </TTGlyph>
    <TTGlyph name="circumflex" xMin="30" yMin="628" xMax="382" yMax="805">
      <contour>
        <pt x="30" y="682" on="1"/>
        <pt x="168" y="805" on="1"/>
        <pt x="244" y="805" on="1"/>
        <pt x="382" y="682" on="1"/>
        <pt x="335" y="628" on="1"/>
        <pt x="206" y="715" on="1"/>
        <pt x="76" y="628" on="1"/>
      </contour>
    </TTGlyph>
    <TTGlyph name="circumflex.case" xMin="30" yMin="757" xMax="382" yMax="929">
      <contour>
        <pt x="206" y="839" on="1"/>
        <pt x="77" y="757" on="1"/>
        <pt x="30" y="811" on="1"/>
        <pt x="168" y="929" on="1"/>
        <pt x="244" y="929" on="1"/>
        <pt x="382" y="811" on="1"/>
        <pt x="336" y="757" on="1"/>
      </contour>
    </TTGlyph>
    <TTGlyph name="circumflex.sc" xMin="30" yMin="658" xMax="382" yMax="835">
      <component glyphName="uni0302" x="412" y="30" flags="0x0"/>
    </TTGlyph>
    <TTGlyph name="colon" xMin="41" yMin="-14" xMax="198" yMax="143">
      <component glyphName="period" x="0" y="0" flags="0x0"/>
      <component glyphName="period" x="0" y="358" flags="0x0"/>
    </TTGlyph>
    <TTGlyph name="comma" xMin="33" yMin="-171" xMax="198" yMax="143">
      <contour>
        <pt x="153" y="143" on="0"/>
        <pt x="198" y="98" on="0"/>
        <pt x="198" y="65" on="1"/>
        <pt x="198" y="46" on="0"/>
        <pt x="187" y="7" on="0"/>
        <pt x="174" y="-21" on="1"/>
        <pt x="108" y="-171" on="1"/>
        <pt x="33" y="-171" on="1"/>
        <pt x="74" y="0" on="1"/>
        <pt x="59" y="11" on="0"/>
        <pt x="41" y="45" on="0"/>
        <pt x="41" y="65" on="1"/>
        <pt x="41" y="97" on="0"/>
        <pt x="86" y="143" on="0"/>
        <pt x="119" y="143" on="1"/>
      </contour>
    </TTGlyph>
    <TTGlyph name="copyright" xMin="81" yMin="112" xMax="729" yMax="756">
      <contour>
        <pt x="494" y="756" on="0"/>
        <pt x="642" y="669" on="0"/>
        <pt x="729" y="521" on="0"/>
        <pt x="729" y="433" on="1"/>
        <pt x="729" y="345" on="0"/>
        <pt x="642" y="198" on="0"/>
        <pt x="494" y="112" on="0"/>
        <pt x="406" y="112" on="1"/>
        <pt x="317" y="112" on="0"/>
        <pt x="168" y="198" on="0"/>
        <pt x="81" y="345" on="0"/>
        <pt x="81" y="433" on="1"/>
        <pt x="81" y="521" on="0"/>
        <pt x="168" y="669" on="0"/>
        <pt x="317" y="756" on="0"/>
        <pt x="406" y="756" on="1"/>
      </contour>
      <contour>
        <pt x="335" y="692" on="0"/>
        <pt x="221" y="623" on="0"/>
        <pt x="156" y="504" on="0"/>
        <pt x="156" y="433" on="1"/>
        <pt x="156" y="362" on="0"/>
        <pt x="221" y="244" on="0"/>
        <pt x="335" y="176" on="0"/>
        <pt x="406" y="176" on="1"/>
        <pt x="476" y="176" on="0"/>
        <pt x="590" y="244" on="0"/>
        <pt x="655" y="362" on="0"/>
        <pt x="655" y="433" on="1"/>
        <pt x="655" y="504" on="0"/>
        <pt x="590" y="623" on="0"/>
        <pt x="476" y="692" on="0"/>
        <pt x="406" y="692" on="1"/>
      </contour>
      <contour>
        <pt x="478" y="627" on="0"/>
        <pt x="531" y="583" on="1"/>
        <pt x="489" y="528" on="1"/>
        <pt x="455" y="556" on="0"/>
        <pt x="415" y="556" on="1"/>
        <pt x="377" y="556" on="0"/>
        <pt x="331" y="497" on="0"/>
        <pt x="331" y="434" on="1"/>
        <pt x="331" y="374" on="0"/>
        <pt x="376" y="315" on="0"/>
        <pt x="414" y="315" on="1"/>
        <pt x="438" y="315" on="0"/>
        <pt x="477" y="330" on="0"/>
        <pt x="497" y="345" on="1"/>
        <pt x="534" y="290" on="1"/>
        <pt x="480" y="241" on="0"/>
        <pt x="409" y="241" on="1"/>
        <pt x="332" y="241" on="0"/>
        <pt x="239" y="342" on="0"/>
        <pt x="239" y="434" on="1"/>
        <pt x="239" y="494" on="0"/>
        <pt x="284" y="582" on="0"/>
        <pt x="360" y="627" on="0"/>
        <pt x="408" y="627" on="1"/>
      </contour>
    </TTGlyph>
    <TTGlyph name="currency" xMin="22" yMin="84" xMax="534" yMax="600">
      <component glyphName="currency.lf" x="-2" y="0" flags="0x0"/>
    </TTGlyph>
    <TTGlyph name="currency.lf" xMin="24" yMin="84" xMax="536" yMax="600">
      <contour>
        <pt x="496" y="273" on="0"/>
        <pt x="460" y="220" on="1"/>
        <pt x="536" y="145" on="1"/>
        <pt x="475" y="84" on="1"/>
        <pt x="397" y="160" on="1"/>
        <pt x="346" y="129" on="0"/>
        <pt x="279" y="129" on="1"/>
        <pt x="216" y="129" on="0"/>
        <pt x="163" y="161" on="1"/>
        <pt x="85" y="84" on="1"/>
        <pt x="24" y="145" on="1"/>
        <pt x="101" y="222" on="1"/>
        <pt x="67" y="275" on="0"/>
        <pt x="67" y="341" on="1"/>
        <pt x="67" y="408" on="0"/>
        <pt x="101" y="459" on="1"/>
        <pt x="24" y="538" on="1"/>
        <pt x="85" y="600" on="1"/>
        <pt x="163" y="521" on="1"/>
        <pt x="216" y="553" on="0"/>
        <pt x="279" y="553" on="1"/>
        <pt x="346" y="553" on="0"/>
        <pt x="397" y="522" on="1"/>
        <pt x="475" y="600" on="1"/>
        <pt x="536" y="538" on="1"/>
        <pt x="461" y="462" on="1"/>
        <pt x="496" y="408" on="0"/>
        <pt x="496" y="341" on="1"/>
      </contour>
      <contour>
        <pt x="335" y="216" on="0"/>
        <pt x="392" y="282" on="0"/>
        <pt x="392" y="342" on="1"/>
        <pt x="392" y="401" on="0"/>
        <pt x="335" y="467" on="0"/>
        <pt x="281" y="467" on="1"/>
        <pt x="227" y="467" on="0"/>
        <pt x="169" y="401" on="0"/>
        <pt x="169" y="342" on="1"/>
        <pt x="169" y="282" on="0"/>
        <pt x="227" y="216" on="0"/>
        <pt x="281" y="216" on="1"/>
      </contour>
    </TTGlyph>
    <TTGlyph name="currency.osf" xMin="24" yMin="84" xMax="536" yMax="600">
      <component glyphName="currency.lf" x="0" y="0" flags="0x0"/>
    </TTGlyph>
    <TTGlyph name="currency.tosf" xMin="24" yMin="84" xMax="536" yMax="600">
      <component glyphName="currency.lf" x="0" y="0" flags="0x0"/>
    </TTGlyph>
    <TTGlyph name="d" xMin="51" yMin="-14" xMax="518" yMax="754">
      <contour>
        <pt x="518" y="740" on="1"/>
        <pt x="518" y="0" on="1"/>
        <pt x="412" y="0" on="1"/>
        <pt x="403" y="68" on="1"/>
        <pt x="378" y="30" on="0"/>
        <pt x="301" y="-14" on="0"/>
        <pt x="251" y="-14" on="1"/>
        <pt x="155" y="-14" on="0"/>
        <pt x="51" y="135" on="0"/>
        <pt x="51" y="263" on="1"/>
        <pt x="51" y="344" on="0"/>
        <pt x="103" y="472" on="0"/>
        <pt x="199" y="543" on="0"/>
        <pt x="264" y="543" on="1"/>
        <pt x="339" y="543" on="0"/>
        <pt x="398" y="484" on="1"/>
        <pt x="398" y="754" on="1"/>
      </contour>
      <contour>
        <pt x="320" y="77" on="0"/>
        <pt x="374" y="112" on="0"/>
        <pt x="398" y="148" on="1"/>
        <pt x="398" y="394" on="1"/>
        <pt x="375" y="422" on="0"/>
        <pt x="324" y="452" on="0"/>
        <pt x="293" y="452" on="1"/>
        <pt x="239" y="452" on="0"/>
        <pt x="178" y="359" on="0"/>
        <pt x="178" y="264" on="1"/>
        <pt x="178" y="166" on="0"/>
        <pt x="232" y="77" on="0"/>
        <pt x="284" y="77" on="1"/>
      </contour>
    </TTGlyph>
    <TTGlyph name="d.sc" xMin="85" yMin="0" xMax="543" yMax="566">
      <contour>
        <pt x="375" y="566" on="0"/>
        <pt x="543" y="446" on="0"/>
        <pt x="543" y="287" on="1"/>
        <pt x="543" y="129" on="0"/>
        <pt x="378" y="0" on="0"/>
        <pt x="251" y="0" on="1"/>
        <pt x="85" y="0" on="1"/>
        <pt x="85" y="566" on="1"/>
        <pt x="236" y="566" on="1"/>
      </contour>
      <contour>
        <pt x="205" y="478" on="1"/>
        <pt x="205" y="88" on="1"/>
        <pt x="260" y="88" on="1"/>
        <pt x="334" y="88" on="0"/>
        <pt x="418" y="175" on="0"/>
        <pt x="418" y="287" on="1"/>
        <pt x="418" y="397" on="0"/>
        <pt x="332" y="478" on="0"/>
        <pt x="256" y="478" on="1"/>
      </contour>
    </TTGlyph>
    <TTGlyph name="dagger" xMin="45" yMin="0" xMax="511" yMax="691">
      <contour>
        <pt x="335" y="547" on="1"/>
        <pt x="511" y="547" on="1"/>
        <pt x="511" y="448" on="1"/>
        <pt x="335" y="448" on="1"/>
        <pt x="335" y="0" on="1"/>
        <pt x="221" y="0" on="1"/>
        <pt x="221" y="448" on="1"/>
        <pt x="45" y="448" on="1"/>
        <pt x="45" y="547" on="1"/>
        <pt x="221" y="547" on="1"/>
        <pt x="221" y="691" on="1"/>
        <pt x="335" y="691" on="1"/>
      </contour>
    </TTGlyph>
    <TTGlyph name="dagger.lf" xMin="35" yMin="0" xMax="483" yMax="672">
      <contour>
        <pt x="316" y="528" on="1"/>
        <pt x="483" y="528" on="1"/>
        <pt x="483" y="429" on="1"/>
        <pt x="316" y="429" on="1"/>
        <pt x="316" y="0" on="1"/>
        <pt x="202" y="0" on="1"/>
        <pt x="202" y="429" on="1"/>
        <pt x="35" y="429" on="1"/>
        <pt x="35" y="528" on="1"/>
        <pt x="202" y="528" on="1"/>
        <pt x="202" y="672" on="1"/>
        <pt x="316" y="672" on="1"/>
      </contour>
    </TTGlyph>
    <TTGlyph name="dagger.osf" xMin="35" yMin="0" xMax="483" yMax="672">
      <component glyphName="dagger.lf" x="0" y="0" flags="0x0"/>
    </TTGlyph>
    <TTGlyph name="dagger.tosf" xMin="56" yMin="0" xMax="504" yMax="672">
      <component glyphName="dagger.lf" x="21" y="0" flags="0x0"/>
    </TTGlyph>
    <TTGlyph name="daggerdbl" xMin="43" yMin="0" xMax="509" yMax="691">
      <contour>
        <pt x="509" y="177" on="1"/>
        <pt x="333" y="177" on="1"/>
        <pt x="333" y="0" on="1"/>
        <pt x="219" y="0" on="1"/>
        <pt x="219" y="177" on="1"/>
        <pt x="47" y="177" on="1"/>
        <pt x="47" y="276" on="1"/>
        <pt x="219" y="276" on="1"/>
        <pt x="219" y="448" on="1"/>
        <pt x="43" y="448" on="1"/>
        <pt x="43" y="547" on="1"/>
        <pt x="219" y="547" on="1"/>
        <pt x="219" y="691" on="1"/>
        <pt x="333" y="691" on="1"/>
        <pt x="333" y="547" on="1"/>
        <pt x="509" y="547" on="1"/>
        <pt x="509" y="448" on="1"/>
        <pt x="333" y="448" on="1"/>
        <pt x="333" y="276" on="1"/>
        <pt x="509" y="276" on="1"/>
      </contour>
    </TTGlyph>
    <TTGlyph name="daggerdbl.lf" xMin="35" yMin="0" xMax="483" yMax="672">
      <contour>
        <pt x="316" y="429" on="1"/>
        <pt x="316" y="252" on="1"/>
        <pt x="483" y="252" on="1"/>
        <pt x="483" y="153" on="1"/>
        <pt x="316" y="153" on="1"/>
        <pt x="316" y="0" on="1"/>
        <pt x="202" y="0" on="1"/>
        <pt x="202" y="153" on="1"/>
        <pt x="35" y="153" on="1"/>
        <pt x="35" y="252" on="1"/>
        <pt x="202" y="252" on="1"/>
        <pt x="202" y="429" on="1"/>
        <pt x="35" y="429" on="1"/>
        <pt x="35" y="528" on="1"/>
        <pt x="202" y="528" on="1"/>
        <pt x="202" y="672" on="1"/>
        <pt x="316" y="672" on="1"/>
        <pt x="316" y="528" on="1"/>
        <pt x="483" y="528" on="1"/>
        <pt x="483" y="429" on="1"/>
      </contour>
    </TTGlyph>
    <TTGlyph name="daggerdbl.osf" xMin="35" yMin="0" xMax="483" yMax="672">
      <component glyphName="daggerdbl.lf" x="0" y="0" flags="0x0"/>
    </TTGlyph>
    <TTGlyph name="daggerdbl.tosf" xMin="56" yMin="0" xMax="504" yMax="672">
      <component glyphName="daggerdbl.lf" x="21" y="0" flags="0x0"/>
    </TTGlyph>
    <TTGlyph name="dcaron" xMin="51" yMin="-14" xMax="679" yMax="754">
      <component glyphName="d" x="0" y="0" flags="0x0"/>
      <component glyphName="caron.alt" x="495" y="49" flags="0x0"/>
    </TTGlyph>
    <TTGlyph name="dcaron.sc" xMin="85" yMin="0" xMax="543" yMax="827">
      <component glyphName="d.sc" x="0" y="0" flags="0x0"/>
      <component glyphName="uni030C.sc" x="69" y="0" flags="0x0"/>
    </TTGlyph>
    <TTGlyph name="dcroat" xMin="51" yMin="-14" xMax="590" yMax="754">
      <contour>
        <pt x="590" y="681" on="1"/>
        <pt x="590" y="602" on="1"/>
        <pt x="518" y="602" on="1"/>
        <pt x="518" y="0" on="1"/>
        <pt x="412" y="0" on="1"/>
        <pt x="403" y="68" on="1"/>
        <pt x="378" y="30" on="0"/>
        <pt x="301" y="-14" on="0"/>
        <pt x="251" y="-14" on="1"/>
        <pt x="155" y="-14" on="0"/>
        <pt x="51" y="135" on="0"/>
        <pt x="51" y="263" on="1"/>
        <pt x="51" y="344" on="0"/>
        <pt x="103" y="472" on="0"/>
        <pt x="199" y="543" on="0"/>
        <pt x="264" y="543" on="1"/>
        <pt x="339" y="543" on="0"/>
        <pt x="398" y="484" on="1"/>
        <pt x="398" y="602" on="1"/>
        <pt x="249" y="602" on="1"/>
        <pt x="249" y="681" on="1"/>
        <pt x="398" y="681" on="1"/>
        <pt x="398" y="754" on="1"/>
        <pt x="518" y="740" on="1"/>
        <pt x="518" y="681" on="1"/>
      </contour>
      <contour>
        <pt x="320" y="77" on="0"/>
        <pt x="374" y="112" on="0"/>
        <pt x="398" y="148" on="1"/>
        <pt x="398" y="394" on="1"/>
        <pt x="375" y="422" on="0"/>
        <pt x="324" y="452" on="0"/>
        <pt x="293" y="452" on="1"/>
        <pt x="239" y="452" on="0"/>
        <pt x="178" y="359" on="0"/>
        <pt x="178" y="264" on="1"/>
        <pt x="178" y="166" on="0"/>
        <pt x="232" y="77" on="0"/>
        <pt x="284" y="77" on="1"/>
      </contour>
    </TTGlyph>
    <TTGlyph name="dcroat.sc" xMin="32" yMin="0" xMax="548" yMax="566">
      <component glyphName="eth.sc" x="0" y="0" flags="0x0"/>
    </TTGlyph>
    <TTGlyph name="degree" xMin="66" yMin="396" xMax="407" yMax="725">
      <component glyphName="degree.lf" x="18" y="20" flags="0x0"/>
    </TTGlyph>
    <TTGlyph name="degree.lf" xMin="48" yMin="376" xMax="389" yMax="705">
      <contour>
        <pt x="174" y="376" on="0"/>
        <pt x="96" y="416" on="0"/>
        <pt x="48" y="491" on="0"/>
        <pt x="48" y="541" on="1"/>
        <pt x="48" y="591" on="0"/>
        <pt x="96" y="666" on="0"/>
        <pt x="174" y="705" on="0"/>
        <pt x="218" y="705" on="1"/>
        <pt x="262" y="705" on="0"/>
        <pt x="341" y="665" on="0"/>
        <pt x="389" y="590" on="0"/>
        <pt x="389" y="540" on="1"/>
        <pt x="389" y="490" on="0"/>
        <pt x="341" y="415" on="0"/>
        <pt x="262" y="376" on="0"/>
        <pt x="218" y="376" on="1"/>
      </contour>
      <contour>
        <pt x="253" y="451" on="0"/>
        <pt x="298" y="498" on="0"/>
        <pt x="298" y="540" on="1"/>
        <pt x="298" y="583" on="0"/>
        <pt x="253" y="630" on="0"/>
        <pt x="218" y="630" on="1"/>
        <pt x="184" y="630" on="0"/>
        <pt x="139" y="583" on="0"/>
        <pt x="139" y="541" on="1"/>
        <pt x="139" y="498" on="0"/>
        <pt x="184" y="451" on="0"/>
        <pt x="218" y="451" on="1"/>
      </contour>
    </TTGlyph>
    <TTGlyph name="degree.osf" xMin="48" yMin="376" xMax="389" yMax="705">
      <component glyphName="degree.lf" x="0" y="0" flags="0x0"/>
    </TTGlyph>
    <TTGlyph name="degree.tosf" xMin="68" yMin="376" xMax="409" yMax="705">
      <component glyphName="degree.lf" x="20" y="0" flags="0x0"/>
    </TTGlyph>
    <TTGlyph name="delta" xMin="46" yMin="-14" xMax="532" yMax="754">
      <contour>
        <pt x="437" y="465" on="0"/>
        <pt x="532" y="347" on="0"/>
        <pt x="532" y="245" on="1"/>
        <pt x="532" y="172" on="0"/>
        <pt x="473" y="54" on="0"/>
        <pt x="363" y="-14" on="0"/>
        <pt x="289" y="-14" on="1"/>
        <pt x="216" y="-14" on="0"/>
        <pt x="106" y="47" on="0"/>
        <pt x="46" y="162" on="0"/>
        <pt x="46" y="241" on="1"/>
        <pt x="46" y="320" on="0"/>
        <pt x="126" y="433" on="0"/>
        <pt x="198" y="467" on="1"/>
        <pt x="143" y="496" on="0"/>
        <pt x="101" y="562" on="0"/>
        <pt x="101" y="606" on="1"/>
        <pt x="101" y="647" on="0"/>
        <pt x="144" y="714" on="0"/>
        <pt x="231" y="754" on="0"/>
        <pt x="293" y="754" on="1"/>
        <pt x="350" y="754" on="0"/>
        <pt x="438" y="724" on="0"/>
        <pt x="477" y="697" on="1"/>
        <pt x="419" y="628" on="1"/>
        <pt x="390" y="648" on="0"/>
        <pt x="336" y="666" on="0"/>
        <pt x="304" y="666" on="1"/>
        <pt x="261" y="666" on="0"/>
        <pt x="220" y="632" on="0"/>
        <pt x="220" y="605" on="1"/>
        <pt x="220" y="584" on="0"/>
        <pt x="237" y="556" on="0"/>
        <pt x="284" y="529" on="0"/>
        <pt x="332" y="508" on="1"/>
      </contour>
      <contour>
        <pt x="345" y="78" on="0"/>
        <pt x="405" y="162" on="0"/>
        <pt x="405" y="245" on="1"/>
        <pt x="405" y="298" on="0"/>
        <pt x="381" y="364" on="0"/>
        <pt x="322" y="413" on="0"/>
        <pt x="266" y="437" on="1"/>
        <pt x="218" y="403" on="0"/>
        <pt x="172" y="311" on="0"/>
        <pt x="172" y="243" on="1"/>
        <pt x="172" y="78" on="0"/>
        <pt x="288" y="78" on="1"/>
      </contour>
    </TTGlyph>
    <TTGlyph name="delta.sc" xMin="-2" yMin="0" xMax="522" yMax="566">
      <contour>
        <pt x="522" y="0" on="1"/>
        <pt x="-2" y="0" on="1"/>
        <pt x="187" y="566" on="1"/>
        <pt x="333" y="566" on="1"/>
      </contour>
      <contour>
        <pt x="143" y="90" on="1"/>
        <pt x="372" y="90" on="1"/>
        <pt x="258" y="475" on="1"/>
      </contour>
    </TTGlyph>
    <TTGlyph name="dieresis" xMin="30" yMin="648" xMax="384" yMax="781">
      <contour>
        <pt x="126" y="781" on="0"/>
        <pt x="165" y="743" on="0"/>
        <pt x="165" y="715" on="1"/>
        <pt x="165" y="687" on="0"/>
        <pt x="126" y="648" on="0"/>
        <pt x="98" y="648" on="1"/>
        <pt x="70" y="648" on="0"/>
        <pt x="30" y="687" on="0"/>
        <pt x="30" y="715" on="1"/>
        <pt x="30" y="743" on="0"/>
        <pt x="69" y="781" on="0"/>
        <pt x="98" y="781" on="1"/>
      </contour>
      <contour>
        <pt x="345" y="781" on="0"/>
        <pt x="384" y="743" on="0"/>
        <pt x="384" y="715" on="1"/>
        <pt x="384" y="687" on="0"/>
        <pt x="345" y="648" on="0"/>
        <pt x="316" y="648" on="1"/>
        <pt x="288" y="648" on="0"/>
        <pt x="249" y="687" on="0"/>
        <pt x="249" y="715" on="1"/>
        <pt x="249" y="743" on="0"/>
        <pt x="288" y="781" on="0"/>
        <pt x="316" y="781" on="1"/>
      </contour>
    </TTGlyph>
    <TTGlyph name="dieresis.case" xMin="31" yMin="774" xMax="385" yMax="907">
      <component glyphName="uni0308" x="415" y="126" flags="0x0"/>
    </TTGlyph>
    <TTGlyph name="dieresis.sc" xMin="31" yMin="678" xMax="385" yMax="811">
      <component glyphName="uni0308" x="415" y="30" flags="0x0"/>
    </TTGlyph>
    <TTGlyph name="dieresistonos" xMin="30" yMin="614" xMax="397" yMax="933">
      <contour>
        <pt x="313" y="912" on="1"/>
        <pt x="247" y="733" on="1"/>
        <pt x="175" y="745" on="1"/>
        <pt x="204" y="933" on="1"/>
      </contour>
      <contour>
        <pt x="126" y="747" on="0"/>
        <pt x="165" y="709" on="0"/>
        <pt x="165" y="681" on="1"/>
        <pt x="165" y="653" on="0"/>
        <pt x="126" y="614" on="0"/>
        <pt x="98" y="614" on="1"/>
        <pt x="69" y="614" on="0"/>
        <pt x="30" y="652" on="0"/>
        <pt x="30" y="681" on="1"/>
        <pt x="30" y="709" on="0"/>
        <pt x="69" y="747" on="0"/>
        <pt x="98" y="747" on="1"/>
      </contour>
      <contour>
        <pt x="358" y="747" on="0"/>
        <pt x="397" y="709" on="0"/>
        <pt x="397" y="681" on="1"/>
        <pt x="397" y="652" on="0"/>
        <pt x="358" y="614" on="0"/>
        <pt x="329" y="614" on="1"/>
        <pt x="301" y="614" on="0"/>
        <pt x="262" y="653" on="0"/>
        <pt x="262" y="681" on="1"/>
        <pt x="262" y="709" on="0"/>
        <pt x="301" y="747" on="0"/>
        <pt x="329" y="747" on="1"/>
      </contour>
    </TTGlyph>
    <TTGlyph name="divide" xMin="80" yMin="21" xMax="476" yMax="645">
      <contour>
        <pt x="311" y="645" on="0"/>
        <pt x="357" y="599" on="0"/>
        <pt x="357" y="567" on="1"/>
        <pt x="357" y="534" on="0"/>
        <pt x="312" y="488" on="0"/>
        <pt x="278" y="488" on="1"/>
        <pt x="246" y="488" on="0"/>
        <pt x="200" y="534" on="0"/>
        <pt x="200" y="567" on="1"/>
        <pt x="200" y="599" on="0"/>
        <pt x="246" y="645" on="0"/>
        <pt x="278" y="645" on="1"/>
      </contour>
      <contour>
        <pt x="80" y="381" on="1"/>
        <pt x="476" y="381" on="1"/>
        <pt x="476" y="284" on="1"/>
        <pt x="80" y="284" on="1"/>
      </contour>
      <contour>
        <pt x="311" y="178" on="0"/>
        <pt x="357" y="132" on="0"/>
        <pt x="357" y="100" on="1"/>
        <pt x="357" y="67" on="0"/>
        <pt x="312" y="21" on="0"/>
        <pt x="278" y="21" on="1"/>
        <pt x="246" y="21" on="0"/>
        <pt x="200" y="67" on="0"/>
        <pt x="200" y="100" on="1"/>
        <pt x="200" y="132" on="0"/>
        <pt x="246" y="178" on="0"/>
        <pt x="278" y="178" on="1"/>
      </contour>
    </TTGlyph>
    <TTGlyph name="divide.lf" xMin="56" yMin="21" xMax="452" yMax="381">
      <component glyphName="period" x="135" y="35" flags="0x0"/>
      <component glyphName="period" x="135" y="502" flags="0x0"/>
      <component glyphName="minus.lf" x="0" y="0" flags="0x0"/>
    </TTGlyph>
    <TTGlyph name="divide.osf" xMin="56" yMin="21" xMax="452" yMax="645">
      <contour>
        <pt x="287" y="645" on="0"/>
        <pt x="333" y="599" on="0"/>
        <pt x="333" y="567" on="1"/>
        <pt x="333" y="534" on="0"/>
        <pt x="288" y="488" on="0"/>
        <pt x="254" y="488" on="1"/>
        <pt x="222" y="488" on="0"/>
        <pt x="176" y="534" on="0"/>
        <pt x="176" y="567" on="1"/>
        <pt x="176" y="599" on="0"/>
        <pt x="222" y="645" on="0"/>
        <pt x="254" y="645" on="1"/>
      </contour>
      <contour>
        <pt x="56" y="381" on="1"/>
        <pt x="452" y="381" on="1"/>
        <pt x="452" y="284" on="1"/>
        <pt x="56" y="284" on="1"/>
      </contour>
      <contour>
        <pt x="287" y="178" on="0"/>
        <pt x="333" y="132" on="0"/>
        <pt x="333" y="100" on="1"/>
        <pt x="333" y="67" on="0"/>
        <pt x="288" y="21" on="0"/>
        <pt x="254" y="21" on="1"/>
        <pt x="222" y="21" on="0"/>
        <pt x="176" y="67" on="0"/>
        <pt x="176" y="100" on="1"/>
        <pt x="176" y="132" on="0"/>
        <pt x="222" y="178" on="0"/>
        <pt x="254" y="178" on="1"/>
      </contour>
    </TTGlyph>
    <TTGlyph name="divide.tosf" xMin="82" yMin="21" xMax="478" yMax="645">
      <contour>
        <pt x="313" y="645" on="0"/>
        <pt x="359" y="599" on="0"/>
        <pt x="359" y="567" on="1"/>
        <pt x="359" y="534" on="0"/>
        <pt x="314" y="488" on="0"/>
        <pt x="280" y="488" on="1"/>
        <pt x="248" y="488" on="0"/>
        <pt x="202" y="534" on="0"/>
        <pt x="202" y="567" on="1"/>
        <pt x="202" y="599" on="0"/>
        <pt x="248" y="645" on="0"/>
        <pt x="280" y="645" on="1"/>
      </contour>
      <contour>
        <pt x="82" y="381" on="1"/>
        <pt x="478" y="381" on="1"/>
        <pt x="478" y="284" on="1"/>
        <pt x="82" y="284" on="1"/>
      </contour>
      <contour>
        <pt x="313" y="178" on="0"/>
        <pt x="359" y="132" on="0"/>
        <pt x="359" y="100" on="1"/>
        <pt x="359" y="67" on="0"/>
        <pt x="314" y="21" on="0"/>
        <pt x="280" y="21" on="1"/>
        <pt x="248" y="21" on="0"/>
        <pt x="202" y="67" on="0"/>
        <pt x="202" y="100" on="1"/>
        <pt x="202" y="132" on="0"/>
        <pt x="248" y="178" on="0"/>
        <pt x="280" y="178" on="1"/>
      </contour>
    </TTGlyph>
    <TTGlyph name="dollar" xMin="23" yMin="-157" xMax="512" yMax="849">
      <contour>
        <pt x="512" y="122" on="0"/>
        <pt x="414" y="15" on="0"/>
        <pt x="326" y="0" on="1"/>
        <pt x="326" y="-157" on="1"/>
        <pt x="231" y="-157" on="1"/>
        <pt x="231" y="-4" on="1"/>
        <pt x="107" y="4" on="0"/>
        <pt x="23" y="85" on="1"/>
        <pt x="88" y="158" on="1"/>
        <pt x="162" y="89" on="0"/>
        <pt x="259" y="89" on="1"/>
        <pt x="316" y="89" on="0"/>
        <pt x="387" y="144" on="0"/>
        <pt x="387" y="194" on="1"/>
        <pt x="387" y="224" on="0"/>
        <pt x="364" y="264" on="0"/>
        <pt x="306" y="295" on="0"/>
        <pt x="252" y="312" on="1"/>
        <pt x="146" y="345" on="0"/>
        <pt x="51" y="437" on="0"/>
        <pt x="51" y="513" on="1"/>
        <pt x="51" y="586" on="0"/>
        <pt x="150" y="684" on="0"/>
        <pt x="231" y="695" on="1"/>
        <pt x="231" y="849" on="1"/>
        <pt x="326" y="849" on="1"/>
        <pt x="326" y="695" on="1"/>
        <pt x="376" y="688" on="0"/>
        <pt x="456" y="649" on="0"/>
        <pt x="491" y="616" on="1"/>
        <pt x="430" y="545" on="1"/>
        <pt x="364" y="604" on="0"/>
        <pt x="281" y="604" on="1"/>
        <pt x="233" y="604" on="0"/>
        <pt x="173" y="561" on="0"/>
        <pt x="173" y="521" on="1"/>
        <pt x="173" y="494" on="0"/>
        <pt x="196" y="459" on="0"/>
        <pt x="255" y="429" on="0"/>
        <pt x="313" y="411" on="1"/>
        <pt x="378" y="391" on="0"/>
        <pt x="463" y="342" on="0"/>
        <pt x="512" y="261" on="0"/>
        <pt x="512" y="200" on="1"/>
      </contour>
    </TTGlyph>
    <TTGlyph name="dollar.lf" xMin="18" yMin="-158" xMax="505" yMax="827">
      <contour>
        <pt x="505" y="115" on="0"/>
        <pt x="409" y="10" on="0"/>
        <pt x="323" y="-6" on="1"/>
        <pt x="323" y="-158" on="1"/>
        <pt x="228" y="-158" on="1"/>
        <pt x="228" y="-10" on="1"/>
        <pt x="103" y="-3" on="0"/>
        <pt x="18" y="79" on="1"/>
        <pt x="83" y="150" on="1"/>
        <pt x="156" y="82" on="0"/>
        <pt x="253" y="82" on="1"/>
        <pt x="310" y="82" on="0"/>
        <pt x="381" y="136" on="0"/>
        <pt x="381" y="185" on="1"/>
        <pt x="381" y="215" on="0"/>
        <pt x="357" y="254" on="0"/>
        <pt x="300" y="285" on="0"/>
        <pt x="246" y="302" on="1"/>
        <pt x="140" y="335" on="0"/>
        <pt x="46" y="426" on="0"/>
        <pt x="46" y="501" on="1"/>
        <pt x="46" y="573" on="0"/>
        <pt x="146" y="669" on="0"/>
        <pt x="228" y="680" on="1"/>
        <pt x="228" y="827" on="1"/>
        <pt x="323" y="827" on="1"/>
        <pt x="323" y="679" on="1"/>
        <pt x="372" y="672" on="0"/>
        <pt x="450" y="634" on="0"/>
        <pt x="485" y="601" on="1"/>
        <pt x="424" y="532" on="1"/>
        <pt x="390" y="562" on="0"/>
        <pt x="318" y="590" on="0"/>
        <pt x="276" y="590" on="1"/>
        <pt x="228" y="590" on="0"/>
        <pt x="169" y="547" on="0"/>
        <pt x="169" y="508" on="1"/>
        <pt x="169" y="481" on="0"/>
        <pt x="191" y="447" on="0"/>
        <pt x="250" y="418" on="0"/>
        <pt x="308" y="400" on="1"/>
        <pt x="406" y="369" on="0"/>
        <pt x="505" y="279" on="0"/>
        <pt x="505" y="192" on="1"/>
      </contour>
    </TTGlyph>
    <TTGlyph name="dollar.osf" xMin="18" yMin="-158" xMax="505" yMax="827">
      <component glyphName="dollar.lf" x="0" y="0" flags="0x0"/>
    </TTGlyph>
    <TTGlyph name="dollar.tosf" xMin="30" yMin="-157" xMax="505" yMax="827">
      <contour>
        <pt x="505" y="117" on="0"/>
        <pt x="410" y="11" on="0"/>
        <pt x="327" y="-5" on="1"/>
        <pt x="327" y="-157" on="1"/>
        <pt x="233" y="-157" on="1"/>
        <pt x="233" y="-9" on="1"/>
        <pt x="172" y="-5" on="0"/>
        <pt x="68" y="42" on="0"/>
        <pt x="30" y="80" on="1"/>
        <pt x="94" y="152" on="1"/>
        <pt x="168" y="83" on="0"/>
        <pt x="260" y="83" on="1"/>
        <pt x="314" y="83" on="0"/>
        <pt x="384" y="137" on="0"/>
        <pt x="384" y="186" on="1"/>
        <pt x="384" y="216" on="0"/>
        <pt x="361" y="255" on="0"/>
        <pt x="306" y="287" on="0"/>
        <pt x="254" y="304" on="1"/>
        <pt x="151" y="338" on="0"/>
        <pt x="60" y="427" on="0"/>
        <pt x="60" y="501" on="1"/>
        <pt x="60" y="572" on="0"/>
        <pt x="157" y="668" on="0"/>
        <pt x="233" y="680" on="1"/>
        <pt x="233" y="827" on="1"/>
        <pt x="327" y="827" on="1"/>
        <pt x="327" y="680" on="1"/>
        <pt x="420" y="667" on="0"/>
        <pt x="488" y="602" on="1"/>
        <pt x="429" y="533" on="1"/>
        <pt x="359" y="591" on="0"/>
        <pt x="286" y="591" on="1"/>
        <pt x="239" y="591" on="0"/>
        <pt x="180" y="548" on="0"/>
        <pt x="180" y="508" on="1"/>
        <pt x="180" y="482" on="0"/>
        <pt x="202" y="448" on="0"/>
        <pt x="259" y="417" on="0"/>
        <pt x="314" y="399" on="1"/>
        <pt x="376" y="378" on="0"/>
        <pt x="457" y="330" on="0"/>
        <pt x="505" y="252" on="0"/>
        <pt x="505" y="193" on="1"/>
      </contour>
    </TTGlyph>
    <TTGlyph name="dotaccent" xMin="30" yMin="645" xMax="184" yMax="793">
      <contour>
        <pt x="140" y="793" on="0"/>
        <pt x="184" y="751" on="0"/>
        <pt x="184" y="719" on="1"/>
        <pt x="184" y="687" on="0"/>
        <pt x="140" y="645" on="0"/>
        <pt x="106" y="645" on="1"/>
        <pt x="73" y="645" on="0"/>
        <pt x="30" y="687" on="0"/>
        <pt x="30" y="719" on="1"/>
        <pt x="30" y="751" on="0"/>
        <pt x="73" y="793" on="0"/>
        <pt x="106" y="793" on="1"/>
      </contour>
    </TTGlyph>
    <TTGlyph name="dotaccent.case" xMin="30" yMin="771" xMax="184" yMax="919">
      <component glyphName="uni0307" x="214" y="126" flags="0x0"/>
    </TTGlyph>
    <TTGlyph name="dotaccent.sc" xMin="30" yMin="675" xMax="184" yMax="823">
      <component glyphName="uni0307" x="214" y="30" flags="0x0"/>
    </TTGlyph>
    <TTGlyph name="dotbelowcomb" xMin="-184" yMin="-216" xMax="-30" yMax="-68">
      <contour>
        <pt x="-141" y="-216" on="0"/>
        <pt x="-184" y="-174" on="0"/>
        <pt x="-184" y="-142" on="1"/>
        <pt x="-184" y="-110" on="0"/>
        <pt x="-141" y="-68" on="0"/>
        <pt x="-107" y="-68" on="1"/>
        <pt x="-73" y="-68" on="0"/>
        <pt x="-30" y="-110" on="0"/>
        <pt x="-30" y="-142" on="1"/>
        <pt x="-30" y="-174" on="0"/>
        <pt x="-73" y="-216" on="0"/>
        <pt x="-107" y="-216" on="1"/>
      </contour>
    </TTGlyph>
    <TTGlyph name="dotlessi" xMin="81" yMin="0" xMax="201" yMax="529">
      <contour>
        <pt x="201" y="0" on="1"/>
        <pt x="81" y="0" on="1"/>
        <pt x="81" y="529" on="1"/>
        <pt x="201" y="529" on="1"/>
      </contour>
    </TTGlyph>
    <TTGlyph name="dotlessi.sc" xMin="85" yMin="0" xMax="205" yMax="566">
      <component glyphName="i.sc" x="0" y="0" flags="0x0"/>
    </TTGlyph>
    <TTGlyph name="dotmath" xMin="41" yMin="231" xMax="198" yMax="388">
      <component glyphName="periodcentered" x="0" y="0" flags="0x0"/>
    </TTGlyph>
    <TTGlyph name="e" xMin="46" yMin="-14" xMax="507" yMax="543">
      <contour>
        <pt x="507" y="268" on="0"/>
        <pt x="504" y="226" on="1"/>
        <pt x="171" y="226" on="1"/>
        <pt x="178" y="147" on="0"/>
        <pt x="246" y="78" on="0"/>
        <pt x="304" y="78" on="1"/>
        <pt x="340" y="78" on="0"/>
        <pt x="402" y="100" on="0"/>
        <pt x="437" y="124" on="1"/>
        <pt x="487" y="55" on="1"/>
        <pt x="399" y="-14" on="0"/>
        <pt x="294" y="-14" on="1"/>
        <pt x="176" y="-14" on="0"/>
        <pt x="46" y="134" on="0"/>
        <pt x="46" y="260" on="1"/>
        <pt x="46" y="341" on="0"/>
        <pt x="101" y="470" on="0"/>
        <pt x="206" y="543" on="0"/>
        <pt x="278" y="543" on="1"/>
        <pt x="387" y="543" on="0"/>
        <pt x="507" y="402" on="0"/>
        <pt x="507" y="278" on="1"/>
      </contour>
      <contour>
        <pt x="388" y="312" on="1"/>
        <pt x="388" y="381" on="0"/>
        <pt x="335" y="456" on="0"/>
        <pt x="280" y="456" on="1"/>
        <pt x="232" y="456" on="0"/>
        <pt x="177" y="385" on="0"/>
        <pt x="171" y="306" on="1"/>
        <pt x="388" y="306" on="1"/>
      </contour>
    </TTGlyph>
    <TTGlyph name="e.sc" xMin="85" yMin="0" xMax="439" yMax="566">
      <contour>
        <pt x="424" y="478" on="1"/>
        <pt x="205" y="478" on="1"/>
        <pt x="205" y="332" on="1"/>
        <pt x="396" y="332" on="1"/>
        <pt x="396" y="245" on="1"/>
        <pt x="205" y="245" on="1"/>
        <pt x="205" y="88" on="1"/>
        <pt x="439" y="88" on="1"/>
        <pt x="439" y="0" on="1"/>
        <pt x="85" y="0" on="1"/>
        <pt x="85" y="566" on="1"/>
        <pt x="437" y="566" on="1"/>
      </contour>
    </TTGlyph>
    <TTGlyph name="eacute" xMin="46" yMin="-14" xMax="507" yMax="816">
      <component glyphName="e" x="0" y="0" flags="0x0"/>
      <component glyphName="acutecomb" x="436" y="0" flags="0x0"/>
    </TTGlyph>
    <TTGlyph name="eacute.sc" xMin="85" yMin="0" xMax="439" yMax="846">
      <component glyphName="e.sc" x="0" y="0" flags="0x0"/>
      <component glyphName="acutecomb.sc" x="102" y="0" flags="0x0"/>
    </TTGlyph>
    <TTGlyph name="ebreve" xMin="46" yMin="-14" xMax="507" yMax="802">
      <component glyphName="e" x="0" y="0" flags="0x0"/>
      <component glyphName="uni0306" x="471" y="0" flags="0x0"/>
    </TTGlyph>
    <TTGlyph name="ebreve.sc" xMin="85" yMin="0" xMax="439" yMax="832">
      <component glyphName="e.sc" x="0" y="0" flags="0x0"/>
      <component glyphName="uni0306.sc" x="72" y="0" flags="0x0"/>
    </TTGlyph>
    <TTGlyph name="ecaron" xMin="46" yMin="-14" xMax="507" yMax="797">
      <component glyphName="e" x="0" y="0" flags="0x0"/>
      <component glyphName="uni030C" x="487" y="0" flags="0x0"/>
    </TTGlyph>
    <TTGlyph name="ecaron.sc" xMin="85" yMin="0" xMax="439" yMax="827">
      <component glyphName="e.sc" x="0" y="0" flags="0x0"/>
      <component glyphName="uni030C.sc" x="57" y="0" flags="0x0"/>
    </TTGlyph>
    <TTGlyph name="ecircumflex" xMin="46" yMin="-14" xMax="507" yMax="805">
      <component glyphName="e" x="0" y="0" flags="0x0"/>
      <component glyphName="uni0302" x="487" y="0" flags="0x0"/>
    </TTGlyph>
    <TTGlyph name="ecircumflex.sc" xMin="85" yMin="0" xMax="439" yMax="835">
      <component glyphName="e.sc" x="0" y="0" flags="0x0"/>
      <component glyphName="uni0302.sc" x="57" y="0" flags="0x0"/>
    </TTGlyph>
    <TTGlyph name="edieresis" xMin="46" yMin="-14" xMax="507" yMax="781">
      <component glyphName="e" x="0" y="0" flags="0x0"/>
      <component glyphName="uni0308" x="488" y="0" flags="0x0"/>
    </TTGlyph>
    <TTGlyph name="edieresis.sc" xMin="85" yMin="0" xMax="439" yMax="811">
      <component glyphName="e.sc" x="0" y="0" flags="0x0"/>
      <component glyphName="uni0308.sc" x="55" y="0" flags="0x0"/>
    </TTGlyph>
    <TTGlyph name="edotaccent" xMin="46" yMin="-14" xMax="507" yMax="793">
      <component glyphName="e" x="0" y="0" flags="0x0"/>
      <component glyphName="uni0307" x="387" y="0" flags="0x0"/>
    </TTGlyph>
    <TTGlyph name="edotaccent.sc" xMin="85" yMin="0" xMax="439" yMax="823">
      <component glyphName="e.sc" x="0" y="0" flags="0x0"/>
      <component glyphName="uni0307.sc" x="156" y="0" flags="0x0"/>
    </TTGlyph>
    <TTGlyph name="egrave" xMin="46" yMin="-14" xMax="507" yMax="816">
      <component glyphName="e" x="0" y="0" flags="0x0"/>
      <component glyphName="gravecomb" x="449" y="0" flags="0x0"/>
    </TTGlyph>
    <TTGlyph name="egrave.sc" xMin="85" yMin="0" xMax="439" yMax="846">
      <component glyphName="e.sc" x="0" y="0" flags="0x0"/>
      <component glyphName="gravecomb.sc" x="107" y="0" flags="0x0"/>
    </TTGlyph>
    <TTGlyph name="eight" xMin="36" yMin="-14" xMax="520" yMax="705">
      <contour>
        <pt x="451" y="340" on="0"/>
        <pt x="520" y="250" on="0"/>
        <pt x="520" y="186" on="1"/>
        <pt x="520" y="129" on="0"/>
        <pt x="459" y="38" on="0"/>
        <pt x="348" y="-14" on="0"/>
        <pt x="275" y="-14" on="1"/>
        <pt x="203" y="-14" on="0"/>
        <pt x="95" y="36" on="0"/>
        <pt x="36" y="126" on="0"/>
        <pt x="36" y="183" on="1"/>
        <pt x="36" y="304" on="0"/>
        <pt x="165" y="360" on="1"/>
        <pt x="112" y="389" on="0"/>
        <pt x="63" y="468" on="0"/>
        <pt x="63" y="522" on="1"/>
        <pt x="63" y="579" on="0"/>
        <pt x="121" y="662" on="0"/>
        <pt x="219" y="705" on="0"/>
        <pt x="278" y="705" on="1"/>
        <pt x="337" y="705" on="0"/>
        <pt x="435" y="665" on="0"/>
        <pt x="493" y="584" on="0"/>
        <pt x="493" y="526" on="1"/>
        <pt x="493" y="476" on="0"/>
        <pt x="439" y="400" on="0"/>
        <pt x="382" y="371" on="1"/>
      </contour>
      <contour>
        <pt x="231" y="620" on="0"/>
        <pt x="178" y="570" on="0"/>
        <pt x="178" y="520" on="1"/>
        <pt x="178" y="474" on="0"/>
        <pt x="232" y="424" on="0"/>
        <pt x="293" y="404" on="1"/>
        <pt x="303" y="400" on="1"/>
        <pt x="344" y="425" on="0"/>
        <pt x="378" y="480" on="0"/>
        <pt x="378" y="521" on="1"/>
        <pt x="378" y="567" on="0"/>
        <pt x="325" y="620" on="0"/>
        <pt x="278" y="620" on="1"/>
      </contour>
      <contour>
        <pt x="334" y="76" on="0"/>
        <pt x="398" y="136" on="0"/>
        <pt x="398" y="184" on="1"/>
        <pt x="398" y="237" on="0"/>
        <pt x="342" y="295" on="0"/>
        <pt x="268" y="318" on="1"/>
        <pt x="241" y="328" on="1"/>
        <pt x="198" y="305" on="0"/>
        <pt x="157" y="237" on="0"/>
        <pt x="157" y="186" on="1"/>
        <pt x="157" y="134" on="0"/>
        <pt x="223" y="76" on="0"/>
        <pt x="278" y="76" on="1"/>
      </contour>
    </TTGlyph>
    <TTGlyph name="eight.dnom" xMin="34" yMin="-10" xMax="366" yMax="427">
      <contour>
        <pt x="366" y="185" on="0"/>
        <pt x="366" y="113" on="1"/>
        <pt x="366" y="79" on="0"/>
        <pt x="326" y="23" on="0"/>
        <pt x="249" y="-10" on="0"/>
        <pt x="198" y="-10" on="1"/>
        <pt x="123" y="-10" on="0"/>
        <pt x="34" y="59" on="0"/>
        <pt x="34" y="112" on="1"/>
        <pt x="34" y="182" on="0"/>
        <pt x="117" y="216" on="1"/>
        <pt x="52" y="252" on="0"/>
        <pt x="52" y="315" on="1"/>
        <pt x="52" y="365" on="0"/>
        <pt x="137" y="427" on="0"/>
        <pt x="201" y="427" on="1"/>
        <pt x="266" y="427" on="0"/>
        <pt x="349" y="370" on="0"/>
        <pt x="349" y="320" on="1"/>
        <pt x="349" y="261" on="0"/>
        <pt x="278" y="225" on="1"/>
      </contour>
      <contour>
        <pt x="174" y="364" on="0"/>
        <pt x="144" y="338" on="0"/>
        <pt x="144" y="314" on="1"/>
        <pt x="144" y="292" on="0"/>
        <pt x="172" y="264" on="0"/>
        <pt x="202" y="254" on="1"/>
        <pt x="216" y="249" on="1"/>
        <pt x="238" y="264" on="0"/>
        <pt x="257" y="295" on="0"/>
        <pt x="257" y="315" on="1"/>
        <pt x="257" y="337" on="0"/>
        <pt x="228" y="364" on="0"/>
        <pt x="201" y="364" on="1"/>
      </contour>
      <contour>
        <pt x="234" y="58" on="0"/>
        <pt x="271" y="89" on="0"/>
        <pt x="271" y="114" on="1"/>
        <pt x="271" y="140" on="0"/>
        <pt x="239" y="169" on="0"/>
        <pt x="199" y="182" on="1"/>
        <pt x="176" y="190" on="1"/>
        <pt x="130" y="166" on="0"/>
        <pt x="130" y="116" on="1"/>
        <pt x="130" y="89" on="0"/>
        <pt x="168" y="58" on="0"/>
        <pt x="201" y="58" on="1"/>
      </contour>
    </TTGlyph>
    <TTGlyph name="eight.lf" xMin="38" yMin="-14" xMax="525" yMax="683">
      <contour>
        <pt x="525" y="299" on="0"/>
        <pt x="525" y="181" on="1"/>
        <pt x="525" y="126" on="0"/>
        <pt x="464" y="37" on="0"/>
        <pt x="353" y="-14" on="0"/>
        <pt x="280" y="-14" on="1"/>
        <pt x="207" y="-14" on="0"/>
        <pt x="97" y="36" on="0"/>
        <pt x="38" y="123" on="0"/>
        <pt x="38" y="178" on="1"/>
        <pt x="38" y="239" on="0"/>
        <pt x="105" y="323" on="0"/>
        <pt x="168" y="350" on="1"/>
        <pt x="66" y="404" on="0"/>
        <pt x="66" y="508" on="1"/>
        <pt x="66" y="562" on="0"/>
        <pt x="125" y="641" on="0"/>
        <pt x="223" y="683" on="0"/>
        <pt x="282" y="683" on="1"/>
        <pt x="341" y="683" on="0"/>
        <pt x="440" y="644" on="0"/>
        <pt x="499" y="566" on="0"/>
        <pt x="499" y="512" on="1"/>
        <pt x="499" y="465" on="0"/>
        <pt x="444" y="390" on="0"/>
        <pt x="387" y="361" on="1"/>
      </contour>
      <contour>
        <pt x="237" y="599" on="0"/>
        <pt x="183" y="550" on="0"/>
        <pt x="183" y="506" on="1"/>
        <pt x="183" y="464" on="0"/>
        <pt x="234" y="416" on="0"/>
        <pt x="289" y="397" on="1"/>
        <pt x="308" y="390" on="1"/>
        <pt x="348" y="414" on="0"/>
        <pt x="382" y="469" on="0"/>
        <pt x="382" y="507" on="1"/>
        <pt x="382" y="549" on="0"/>
        <pt x="330" y="599" on="0"/>
        <pt x="283" y="599" on="1"/>
      </contour>
      <contour>
        <pt x="339" y="76" on="0"/>
        <pt x="403" y="134" on="0"/>
        <pt x="403" y="181" on="1"/>
        <pt x="403" y="229" on="0"/>
        <pt x="347" y="283" on="0"/>
        <pt x="275" y="308" on="1"/>
        <pt x="246" y="318" on="1"/>
        <pt x="161" y="275" on="0"/>
        <pt x="161" y="181" on="1"/>
        <pt x="161" y="132" on="0"/>
        <pt x="226" y="76" on="0"/>
        <pt x="282" y="76" on="1"/>
      </contour>
    </TTGlyph>
    <TTGlyph name="eight.numr" xMin="34" yMin="262" xMax="366" yMax="699">
      <component glyphName="eight.dnom" x="0" y="272" flags="0x0"/>
    </TTGlyph>
    <TTGlyph name="eight.osf" xMin="38" yMin="-14" xMax="525" yMax="683">
      <contour>
        <pt x="525" y="299" on="0"/>
        <pt x="525" y="181" on="1"/>
        <pt x="525" y="126" on="0"/>
        <pt x="464" y="37" on="0"/>
        <pt x="353" y="-14" on="0"/>
        <pt x="280" y="-14" on="1"/>
        <pt x="207" y="-14" on="0"/>
        <pt x="97" y="36" on="0"/>
        <pt x="38" y="123" on="0"/>
        <pt x="38" y="178" on="1"/>
        <pt x="38" y="239" on="0"/>
        <pt x="105" y="323" on="0"/>
        <pt x="168" y="350" on="1"/>
        <pt x="66" y="404" on="0"/>
        <pt x="66" y="508" on="1"/>
        <pt x="66" y="562" on="0"/>
        <pt x="125" y="641" on="0"/>
        <pt x="223" y="683" on="0"/>
        <pt x="282" y="683" on="1"/>
        <pt x="341" y="683" on="0"/>
        <pt x="440" y="644" on="0"/>
        <pt x="499" y="566" on="0"/>
        <pt x="499" y="512" on="1"/>
        <pt x="499" y="465" on="0"/>
        <pt x="444" y="390" on="0"/>
        <pt x="387" y="361" on="1"/>
      </contour>
      <contour>
        <pt x="237" y="599" on="0"/>
        <pt x="183" y="550" on="0"/>
        <pt x="183" y="506" on="1"/>
        <pt x="183" y="464" on="0"/>
        <pt x="234" y="416" on="0"/>
        <pt x="289" y="397" on="1"/>
        <pt x="308" y="390" on="1"/>
        <pt x="348" y="414" on="0"/>
        <pt x="382" y="469" on="0"/>
        <pt x="382" y="507" on="1"/>
        <pt x="382" y="549" on="0"/>
        <pt x="330" y="599" on="0"/>
        <pt x="283" y="599" on="1"/>
      </contour>
      <contour>
        <pt x="339" y="76" on="0"/>
        <pt x="403" y="134" on="0"/>
        <pt x="403" y="181" on="1"/>
        <pt x="403" y="229" on="0"/>
        <pt x="347" y="283" on="0"/>
        <pt x="275" y="308" on="1"/>
        <pt x="246" y="318" on="1"/>
        <pt x="161" y="275" on="0"/>
        <pt x="161" y="181" on="1"/>
        <pt x="161" y="132" on="0"/>
        <pt x="226" y="76" on="0"/>
        <pt x="282" y="76" on="1"/>
      </contour>
    </TTGlyph>
    <TTGlyph name="eight.tosf" xMin="41" yMin="-14" xMax="525" yMax="683">
      <contour>
        <pt x="525" y="299" on="0"/>
        <pt x="525" y="181" on="1"/>
        <pt x="525" y="126" on="0"/>
        <pt x="465" y="37" on="0"/>
        <pt x="353" y="-14" on="0"/>
        <pt x="280" y="-14" on="1"/>
        <pt x="208" y="-14" on="0"/>
        <pt x="99" y="36" on="0"/>
        <pt x="41" y="123" on="0"/>
        <pt x="41" y="178" on="1"/>
        <pt x="41" y="239" on="0"/>
        <pt x="107" y="323" on="0"/>
        <pt x="169" y="350" on="1"/>
        <pt x="117" y="379" on="0"/>
        <pt x="68" y="456" on="0"/>
        <pt x="68" y="507" on="1"/>
        <pt x="68" y="561" on="0"/>
        <pt x="126" y="641" on="0"/>
        <pt x="224" y="683" on="0"/>
        <pt x="283" y="683" on="1"/>
        <pt x="342" y="683" on="0"/>
        <pt x="440" y="643" on="0"/>
        <pt x="498" y="565" on="0"/>
        <pt x="498" y="511" on="1"/>
        <pt x="498" y="464" on="0"/>
        <pt x="444" y="390" on="0"/>
        <pt x="388" y="361" on="1"/>
      </contour>
      <contour>
        <pt x="237" y="599" on="0"/>
        <pt x="183" y="550" on="0"/>
        <pt x="183" y="506" on="1"/>
        <pt x="183" y="463" on="0"/>
        <pt x="235" y="415" on="0"/>
        <pt x="292" y="396" on="1"/>
        <pt x="309" y="390" on="1"/>
        <pt x="349" y="414" on="0"/>
        <pt x="383" y="469" on="0"/>
        <pt x="383" y="507" on="1"/>
        <pt x="383" y="549" on="0"/>
        <pt x="331" y="599" on="0"/>
        <pt x="283" y="599" on="1"/>
      </contour>
      <contour>
        <pt x="340" y="76" on="0"/>
        <pt x="403" y="134" on="0"/>
        <pt x="403" y="181" on="1"/>
        <pt x="403" y="229" on="0"/>
        <pt x="347" y="282" on="0"/>
        <pt x="275" y="307" on="1"/>
        <pt x="245" y="318" on="1"/>
        <pt x="203" y="296" on="0"/>
        <pt x="162" y="229" on="0"/>
        <pt x="162" y="181" on="1"/>
        <pt x="162" y="132" on="0"/>
        <pt x="227" y="76" on="0"/>
        <pt x="284" y="76" on="1"/>
      </contour>
    </TTGlyph>
    <TTGlyph name="ellipsis" xMin="288" yMin="-14" xMax="445" yMax="143">
      <component glyphName="period" x="247" y="0" flags="0x0"/>
      <component glyphName="period" x="493" y="0" flags="0x0"/>
      <component glyphName="period" x="0" y="0" flags="0x0"/>
    </TTGlyph>
    <TTGlyph name="emacron" xMin="46" yMin="-14" xMax="507" yMax="748">
      <component glyphName="e" x="0" y="0" flags="0x0"/>
      <component glyphName="uni0304" x="454" y="0" flags="0x0"/>
    </TTGlyph>
    <TTGlyph name="emacron.sc" xMin="85" yMin="0" xMax="439" yMax="778">
      <component glyphName="e.sc" x="0" y="0" flags="0x0"/>
      <component glyphName="uni0304.sc" x="89" y="0" flags="0x0"/>
    </TTGlyph>
    <TTGlyph name="emdash" xMin="28" yMin="264" xMax="765" yMax="362">
      <contour>
        <pt x="28" y="362" on="1"/>
        <pt x="765" y="362" on="1"/>
        <pt x="765" y="264" on="1"/>
        <pt x="28" y="264" on="1"/>
      </contour>
    </TTGlyph>
    <TTGlyph name="emdash.case" xMin="28" yMin="309" xMax="765" yMax="407">
      <component glyphName="emdash" x="0" y="45" flags="0x0"/>
    </TTGlyph>
    <TTGlyph name="emptyset" xMin="84" yMin="-16" xMax="816" yMax="716">
      <contour>
        <pt x="749" y="578" on="0"/>
        <pt x="816" y="432" on="0"/>
        <pt x="816" y="349" on="1"/>
        <pt x="816" y="248" on="0"/>
        <pt x="718" y="81" on="0"/>
        <pt x="551" y="-16" on="0"/>
        <pt x="451" y="-16" on="1"/>
        <pt x="344" y="-16" on="0"/>
        <pt x="255" y="40" on="1"/>
        <pt x="217" y="-12" on="1"/>
        <pt x="130" y="-12" on="1"/>
        <pt x="199" y="82" on="1"/>
        <pt x="145" y="133" on="0"/>
        <pt x="84" y="270" on="0"/>
        <pt x="84" y="349" on="1"/>
        <pt x="84" y="450" on="0"/>
        <pt x="183" y="618" on="0"/>
        <pt x="351" y="716" on="0"/>
        <pt x="451" y="716" on="1"/>
        <pt x="548" y="716" on="0"/>
        <pt x="631" y="669" on="1"/>
        <pt x="663" y="712" on="1"/>
        <pt x="750" y="712" on="1"/>
        <pt x="689" y="629" on="1"/>
      </contour>
      <contour>
        <pt x="160" y="289" on="0"/>
        <pt x="204" y="183" on="0"/>
        <pt x="244" y="143" on="1"/>
        <pt x="588" y="609" on="1"/>
        <pt x="523" y="644" on="0"/>
        <pt x="451" y="644" on="1"/>
        <pt x="371" y="644" on="0"/>
        <pt x="237" y="565" on="0"/>
        <pt x="160" y="429" on="0"/>
        <pt x="160" y="349" on="1"/>
      </contour>
      <contour>
        <pt x="531" y="56" on="0"/>
        <pt x="663" y="135" on="0"/>
        <pt x="740" y="269" on="0"/>
        <pt x="740" y="349" on="1"/>
        <pt x="740" y="413" on="0"/>
        <pt x="689" y="528" on="0"/>
        <pt x="644" y="569" on="1"/>
        <pt x="299" y="99" on="1"/>
        <pt x="369" y="56" on="0"/>
        <pt x="451" y="56" on="1"/>
      </contour>
    </TTGlyph>
    <TTGlyph name="endash" xMin="28" yMin="264" xMax="492" yMax="362">
      <contour>
        <pt x="28" y="362" on="1"/>
        <pt x="492" y="362" on="1"/>
        <pt x="492" y="264" on="1"/>
        <pt x="28" y="264" on="1"/>
      </contour>
    </TTGlyph>
    <TTGlyph name="endash.case" xMin="28" yMin="309" xMax="492" yMax="407">
      <component glyphName="endash" x="0" y="45" flags="0x0"/>
    </TTGlyph>
</ttFont>
